<svg width="111" height="113" viewBox="0 0 111 113" fill="none" xmlns="http://www.w3.org/2000/svg">
<rect width="111" height="113" fill="#BBF1F2"/>
<path d="M33.7776 57.9111C40.9245 57.1089 47.6242 57.4518 53.583 61.457C56.1612 63.1901 58.8252 63.9372 61.8628 63.5882C62.4078 63.5269 62.9651 63.5637 63.5163 63.5637C67.0315 63.5637 68.9055 64.6293 69.1015 66.7421C69.2852 68.7079 67.497 70.6615 64.3859 71.2739C62.1629 71.7087 59.8173 71.4821 57.5637 71.8006C56.6634 71.9292 55.8612 72.7192 55.0099 73.203C55.855 73.8338 56.743 75.0586 57.533 74.9974C60.7053 74.7463 63.9144 74.3543 66.9642 73.4908C68.3911 73.0866 70.1058 71.721 70.6019 70.3859C71.6675 67.526 73.8783 66.4236 76.2912 65.2968C78.7041 64.1699 81.0435 62.89 83.4686 61.7938C86.5674 60.3975 89.7091 61.2977 91.1544 63.876C92.5017 66.2828 91.7913 69.106 88.7782 70.9065C79.5002 76.4549 70.1916 81.9605 60.7176 87.1598C56.0449 89.7197 50.9374 89.4931 46.0993 87.1966C42.382 85.4328 38.7565 83.4792 35.1433 81.5073C34.5431 81.1827 33.8389 80.3437 33.8327 79.7374C33.7409 72.4926 33.7715 65.2478 33.7715 57.9111H33.7776Z" fill="black"/>
<path d="M36.6748 49.4782C38.6406 42.5824 40.5146 36.0235 42.4866 29.1033C55.2798 32.9737 67.9139 36.7952 81.0685 40.7758C79.1945 47.4633 77.3389 54.0651 75.3485 61.1568C62.5185 57.2803 49.811 53.4466 36.6748 49.4782ZM48.4392 34.2169C47.0307 35.4295 45.2118 36.7278 43.7665 38.3507C43.05 39.1591 42.9888 40.5554 42.6581 41.6944C41.9722 44.0338 44.0972 48.0941 46.4428 48.8351C53.0568 50.9235 59.6831 52.9812 66.3032 55.0511C69.9287 56.1841 73.4684 54.3101 74.4667 50.6663C74.8954 49.1107 75.9548 47.0285 75.3424 46.0242C73.8665 43.5929 72.5804 40.6901 68.857 40.3655C66.4563 40.1573 64.1353 38.9753 61.7775 38.2527C57.509 36.9483 53.2344 35.6622 48.4515 34.2108L48.4392 34.2169Z" fill="black"/>
<path d="M30.3112 83.0138H19V55.5288H30.3112V83.0138Z" fill="black"/>
<path d="M87.4925 36.6909C85.6736 43.1457 83.9405 49.1902 82.287 55.2653C81.7787 57.1393 80.7621 57.2863 79.0474 56.4167C80.3334 51.793 81.5521 47.1264 82.9545 42.5149C83.7201 40.0041 82.9117 38.8037 80.462 38.0688C70.4124 35.0313 60.4056 31.8774 50.3804 28.7541C49.621 28.5152 48.8739 28.2213 48.041 27.9273C48.3656 26.8985 48.6351 26.0472 48.9658 25C61.7958 28.8949 74.5278 32.7592 87.4925 36.6909Z" fill="black"/>
<path d="M64.159 45.2524C64.208 47.9593 62.0278 50.2436 59.4189 50.2313C56.8774 50.2129 54.7769 48.094 54.7217 45.4974C54.6666 42.7477 56.7978 40.5062 59.4496 40.5185C61.9972 40.5307 64.11 42.6558 64.159 45.2524Z" fill="black"/>
</svg>
