<svg width="111" height="113" viewBox="0 0 111 113" fill="none" xmlns="http://www.w3.org/2000/svg">
<rect width="111" height="113" fill="#BBF1F2"/>
<path d="M34.8414 42.1138C34.8414 38.9916 34.838 35.871 34.8431 32.7488C34.8447 31.5046 35.1859 31.1718 36.4401 31.1702C39.0891 31.1668 41.7364 31.1551 44.3853 31.1802C44.9054 31.1852 45.1813 31.018 45.4021 30.543C46.1178 29.0028 46.8771 27.4844 47.6329 25.9626C48.1463 24.9274 48.6146 24.7752 49.6414 25.2769C53.369 27.0997 57.0866 28.9393 60.8292 30.7303C61.3811 30.9946 62.0433 31.1451 62.6554 31.1501C66.7525 31.1869 70.8514 31.1685 74.9486 31.1702C76.3048 31.1702 76.6142 31.4812 76.6175 32.8442C76.6226 34.488 76.6393 36.1336 76.6058 37.7775C76.5958 38.3059 76.7898 38.5668 77.2547 38.7892C79.5926 39.9047 81.9171 41.0452 84.2366 42.1941C85.628 42.8831 85.735 43.2627 85.0393 44.6842C83.765 47.2846 82.5075 49.8918 81.2114 52.4822C80.9856 52.9337 80.9706 53.228 81.285 53.6612C84.9724 58.7233 83.1078 65.4961 77.35 67.9377C76.753 68.1902 76.5992 68.5013 76.6025 69.1117C76.6293 73.1253 76.6176 77.1388 76.6142 81.1524C76.6142 82.5187 76.3032 82.828 74.9486 82.8297C72.3832 82.8314 69.8196 82.8515 67.2542 82.8163C66.6104 82.808 66.2609 82.9769 65.9866 83.5923C65.3194 85.0924 64.5635 86.5523 63.831 88.0223C63.3109 89.0675 62.8477 89.2263 61.8309 88.728C58.0799 86.8934 54.3339 85.0439 50.5695 83.2361C50.0645 82.9936 49.4608 82.8515 48.9022 82.8481C44.7766 82.8163 40.651 82.8314 36.5254 82.8297C35.1524 82.8297 34.8447 82.5254 34.8397 81.1708C34.8347 79.5536 34.813 77.9365 34.8514 76.3211C34.8648 75.7357 34.6758 75.4297 34.1407 75.1755C31.7509 74.0434 29.3796 72.8711 27.0083 71.6988C25.9129 71.1569 25.7607 70.6753 26.3076 69.5565C29.0334 63.9794 31.771 58.4072 34.4802 52.8217C34.6892 52.3902 34.818 51.8718 34.823 51.3935C34.8531 48.2997 34.838 45.2059 34.838 42.1121L34.8414 42.1138ZM37.2328 33.5632V80.4249H74.2128V68.7254C68.0904 67.8909 64.6254 64.6282 64.4983 59.6798C64.4381 57.3553 65.0786 55.2733 66.5318 53.4638C68.4918 51.0222 71.1223 49.9486 74.2128 49.8968V33.5632H37.2328ZM66.8479 59.2433C66.8395 63.1616 69.9283 66.2871 73.8164 66.2905C77.7029 66.2938 80.8619 63.1599 80.8652 59.2935C80.8686 55.4656 77.646 52.2447 73.8231 52.2531C70.0086 52.2614 66.8562 55.4204 66.8479 59.2433ZM34.7829 57.9841C34.7293 57.9573 34.6758 57.9289 34.6223 57.9022C32.6724 61.889 30.7241 65.8774 28.7358 69.9412C30.7643 70.9329 32.7226 71.8877 34.7829 72.8961V57.9858V57.9841ZM76.6293 41.0753C76.6293 44.1657 76.6242 47.0538 76.6426 49.9419C76.6426 50.1175 76.8032 50.3717 76.9587 50.452C77.641 50.8015 78.3484 51.0992 79.111 51.4453C80.315 48.982 81.5041 46.5488 82.7232 44.057C80.6896 43.062 78.7498 42.1121 76.6293 41.0753ZM47.7166 31.1116H55.8373C55.8557 31.0564 55.8725 31.0013 55.8908 30.9477C53.7402 29.8942 51.5896 28.8406 49.3688 27.7536C48.8186 28.8741 48.2969 29.9343 47.7166 31.1133V31.1116ZM63.7206 82.9133H55.6132C55.6032 82.9635 55.5932 83.0137 55.5831 83.0622C57.7404 84.1141 59.8977 85.1676 62.1002 86.2429C62.6637 85.084 63.1805 84.0237 63.7206 82.9133Z" fill="black"/>
<path d="M44.2458 37.478C45.2776 37.478 46.3094 37.4697 47.3395 37.4797C48.3546 37.4914 48.7727 37.8944 48.7777 38.8895C48.7878 40.9799 48.7894 43.0703 48.7777 45.1607C48.7727 46.1072 48.3379 46.552 47.4031 46.5587C45.2843 46.5738 43.1654 46.5721 41.0466 46.5587C40.1151 46.5537 39.672 46.1724 39.6586 45.2643C39.6268 43.0903 39.6268 40.9163 39.6586 38.7423C39.6703 37.871 40.1051 37.4931 40.9847 37.4797C42.0717 37.463 43.1588 37.4764 44.2458 37.4747V37.478ZM46.3612 44.1874V39.8945H42.045V44.1874H46.3612Z" fill="black"/>
<path d="M44.1663 60.4524C43.1077 60.4524 42.0474 60.4641 40.9889 60.449C40.1176 60.4373 39.6694 60.0577 39.6577 59.1914C39.6242 56.9907 39.6242 54.7882 39.6594 52.5875C39.6727 51.7697 40.1193 51.3918 40.9554 51.3867C43.1294 51.3734 45.3034 51.3734 47.4774 51.3867C48.3203 51.3918 48.7685 51.8333 48.7752 52.6761C48.7919 54.8217 48.7919 56.9673 48.7752 59.1128C48.7685 59.9975 48.3153 60.4357 47.4273 60.4474C46.3403 60.4624 45.2533 60.4507 44.1663 60.4507V60.4524ZM42.024 53.7497V58.0509H46.3821V53.7497H42.024Z" fill="black"/>
<path d="M44.195 74.3294C43.108 74.3294 42.021 74.3428 40.934 74.3244C40.1112 74.311 39.6697 73.9281 39.658 73.1053C39.6263 70.9045 39.6246 68.7021 39.6597 66.5013C39.6731 65.6467 40.133 65.2671 41.0109 65.2638C43.1565 65.2537 45.3038 65.2521 47.4494 65.2638C48.3223 65.2688 48.7705 65.7253 48.7772 66.6184C48.7922 68.7355 48.7906 70.8543 48.7772 72.9715C48.7705 73.908 48.3357 74.316 47.3741 74.3261C46.3155 74.3378 45.2553 74.3294 44.1967 74.3277L44.195 74.3294ZM42.0227 71.9313H46.3657V67.6418H42.0227V71.9313Z" fill="black"/>
<path d="M60.8244 46.5656C58.2356 46.5656 55.6469 46.5706 53.0581 46.5622C52.13 46.5589 51.6367 46.1525 51.6233 45.4184C51.6099 44.6625 52.1384 44.2193 53.0949 44.2176C58.244 44.2126 63.3947 44.2126 68.5438 44.2176C69.5572 44.2176 70.1643 44.7795 70.0088 45.5789C69.8599 46.3448 69.3181 46.5739 68.5906 46.5706C66.0019 46.5572 63.4131 46.5656 60.8244 46.5656Z" fill="black"/>
<path d="M60.7469 41.8629C58.21 41.8629 55.6731 41.8663 53.1362 41.8629C52.1462 41.8629 51.6245 41.4582 51.6211 40.709C51.6178 39.9565 52.1479 39.5267 53.1162 39.5267C58.2452 39.5233 63.3742 39.5233 68.5031 39.5267C69.4614 39.5267 70.0166 39.9598 70.0266 40.6889C70.0367 41.4264 69.4898 41.8612 68.5232 41.8629C65.9311 41.8679 63.339 41.8629 60.7453 41.8629H60.7469Z" fill="black"/>
<path d="M60.8464 74.3293C58.2543 74.3293 55.6639 74.3326 53.0718 74.3276C52.1186 74.3259 51.6386 73.943 51.6253 73.2088C51.6119 72.4814 52.1219 72.0131 53.0267 72.0114C58.2092 72.0014 63.3934 72.0014 68.5759 72.0114C69.4923 72.0114 70.0157 72.4529 70.0308 73.1637C70.0475 73.9145 69.5291 74.3276 68.5374 74.3293C65.9737 74.3343 63.4101 74.3293 60.8464 74.3293Z" fill="black"/>
<path d="M58.209 69.6585C56.4815 69.6585 54.7523 69.6652 53.0248 69.6552C52.1134 69.6502 51.6167 69.217 51.6251 68.4762C51.6318 67.7437 52.1352 67.3173 53.0566 67.3156C56.5133 67.3072 59.97 67.3072 63.4266 67.3156C64.3581 67.3173 64.8531 67.7337 64.8665 68.4662C64.8799 69.2354 64.3782 69.6518 63.3965 69.6568C61.669 69.6652 59.9399 69.6585 58.2124 69.6585H58.209Z" fill="black"/>
<path d="M57.4999 55.7599C56.0232 55.7599 54.5466 55.7665 53.0682 55.7582C52.1351 55.7532 51.6384 55.3501 51.6234 54.621C51.6083 53.8651 52.1434 53.4153 53.0933 53.4136C56.0466 53.4086 59.0016 53.4069 61.9549 53.4136C62.8714 53.4153 63.3764 53.8317 63.3965 54.5625C63.4182 55.3284 62.9098 55.7532 61.9298 55.7582C60.4532 55.7665 58.9765 55.7599 57.4982 55.7599H57.4999Z" fill="black"/>
<path d="M57.0197 60.4524C55.6568 60.4524 54.2955 60.4624 52.9326 60.449C52.0964 60.4407 51.6148 59.9891 51.6232 59.2751C51.6315 58.5994 52.0981 58.1345 52.8908 58.1278C55.6434 58.1078 58.396 58.1078 61.147 58.1278C61.9464 58.1329 62.4012 58.5927 62.4096 59.2751C62.418 59.9908 61.9363 60.4407 61.1052 60.449C59.7423 60.4624 58.381 60.4524 57.0181 60.4524H57.0197Z" fill="black"/>
<path d="M72.7443 60.7149C73.8581 59.0743 74.8949 57.5609 75.915 56.0341C76.3298 55.4136 76.8632 55.1762 77.5572 55.4705C78.1526 55.723 78.39 56.504 77.9937 57.1044C76.6157 59.1964 75.2126 61.2734 73.7811 63.3287C73.348 63.9508 72.5503 64.0093 72.0319 63.4508C70.9733 62.3086 69.9566 61.1229 68.9699 59.9155C68.5418 59.3904 68.6254 58.79 69.1555 58.3552C69.7157 57.8954 70.3144 57.9723 70.7994 58.4907C71.4416 59.178 72.0403 59.9038 72.7443 60.7132V60.7149Z" fill="black"/>
</svg>
