<svg width="111" height="113" viewBox="0 0 111 113" fill="none" xmlns="http://www.w3.org/2000/svg">
<rect width="111" height="113" fill="#BBF1F2"/>
<path d="M51.9327 82.1266C53.4774 80.2693 54.0114 78.3572 52.9877 76.242C51.99 74.1762 50.2655 73.1655 48.0382 73.0352C47.5433 68.7995 46.3684 67.4058 42.5573 66.554C42.698 63.7354 41.6169 61.5446 38.8452 60.5547C36.1308 59.5857 34.2761 60.9481 32.9111 63.2613C30.3425 58.8302 26.9925 58.5854 24.1531 61.0158C23.0225 59.656 21.8763 58.3118 20.7875 56.9182C20.6364 56.7254 20.6702 56.2409 20.8083 55.996C24.5464 49.3377 28.3054 42.6923 32.067 36.0444C32.0853 36.0106 32.1374 35.9949 32.3562 35.8464C34.9273 38.0268 38.2461 38.3003 41.6482 38.764C40.3353 40.7073 39.0588 42.411 37.9908 44.2371C37.2145 45.563 36.5059 46.9984 36.1334 48.4754C35.5994 50.5933 36.8602 52.026 39.0692 52.0885C42.4792 52.1849 45.3134 50.7834 47.7543 48.5275C48.6738 47.6783 49.4215 46.6441 50.3072 45.7558C50.7735 45.2869 51.3387 44.8936 51.9144 44.5653C53.6181 43.6015 55.0977 44.1563 56.7493 45.0108C66.1663 49.8847 74.7471 55.9778 82.9372 62.6622C84.4116 63.8657 84.917 65.1734 84.4663 66.4941C83.7109 68.7162 81.343 69.5003 79.1209 68.1899C75.4583 66.0278 71.827 63.8136 68.1826 61.6202C67.4011 61.1513 66.6534 60.5912 65.8172 60.263C65.3718 60.0884 64.77 60.3177 64.236 60.362C64.4548 60.8491 64.5382 61.555 64.9159 61.7921C68.2998 63.9073 71.7358 65.9418 75.1587 67.9998C75.7162 68.3358 76.2789 68.6641 76.8337 69.0053C78.6103 70.0942 78.6155 72.6653 76.7452 73.6969C75.4244 74.4237 73.9578 74.6451 72.5277 73.8167C69.1464 71.8604 65.7678 69.904 62.3839 67.9503C62.0843 67.7758 61.7769 67.5022 61.4643 67.4918C61.0892 67.4788 60.5343 67.5934 60.3728 67.8513C60.2191 68.0988 60.352 68.6927 60.5708 68.9636C60.8547 69.3153 61.3419 69.5081 61.7535 69.7451C64.7179 71.4644 67.7007 73.1577 70.6469 74.9134C71.2747 75.2885 72.288 75.3849 72.0353 76.6223C71.7123 78.2087 71.0168 79.381 69.7638 79.4383C68.4665 79.4956 67.0442 79.4331 65.8641 78.959C63.3321 77.9456 60.9199 76.6327 58.4608 75.4422C58.3045 75.3667 58.1456 75.2963 57.9893 75.2208C57.3797 74.929 56.7076 74.6164 56.2986 75.4188C55.8844 76.2289 56.5331 76.5858 57.1426 76.8828C59.1355 77.844 61.1335 78.7948 63.1263 79.7561C63.8974 80.1286 64.658 80.5167 65.5073 80.9414C64.4627 82.5981 63.2097 83.7235 61.3367 83.898C58.0987 84.2002 55.116 83.1556 51.9353 82.1214L51.9327 82.1266Z" fill="black"/>
<path d="M78.9512 35.5443C82.8352 42.4475 86.6385 49.21 90.5746 56.207C88.8006 57.7075 87.0396 59.221 85.2526 60.7006C84.6144 61.2294 84.0413 61.1877 83.3275 60.6016C75.0385 53.8234 66.2805 47.7512 56.6994 42.9112C53.9563 41.5253 50.6324 42.2339 48.7047 44.706C46.5712 47.4438 44.0704 49.6815 40.4469 50.1165C39.6862 50.2077 38.3342 50.14 38.2066 49.7961C37.933 49.0537 38.0216 47.9336 38.4228 47.2328C39.6914 45.016 41.1606 42.9112 42.5777 40.7803C43.1795 39.8763 43.948 39.074 44.4637 38.1284C45.4823 36.2632 47.1182 35.4869 49.0876 35.1587C55.9074 34.0177 62.7143 33.5957 69.4951 35.4322C72.621 36.2789 75.7574 36.9744 78.9538 35.5443H78.9512Z" fill="black"/>
<path d="M17.0672 58.3301C16.7233 58.1452 16.5279 58.054 16.3456 57.942C14.4544 56.7932 12.5788 55.6183 10.6693 54.5008C9.88521 54.0397 9.84093 53.5734 10.2734 52.8102C14.9441 44.5341 19.5992 36.2477 24.2335 27.9508C24.6972 27.1224 25.1244 26.9322 25.9606 27.4767C27.7059 28.6098 29.4799 29.7091 31.293 30.7303C32.2647 31.2773 32.2699 31.8244 31.7645 32.7179C27.6148 40.0431 23.4989 47.3866 19.3726 54.7248C18.8412 55.6704 18.3306 56.6291 17.7757 57.559C17.596 57.8586 17.2964 58.0853 17.0672 58.3301Z" fill="black"/>
<path d="M86.2269 27C86.503 27.3491 86.8286 27.6695 87.0474 28.0524C89.5691 32.5095 92.0777 36.9745 94.5863 41.4368C96.6911 45.1828 98.7542 48.9522 100.911 52.6643C101.471 53.6282 101.294 54.1023 100.393 54.6207C98.624 55.634 96.8734 56.689 95.1698 57.8066C94.3179 58.3666 93.8464 58.2911 93.3385 57.3767C90.0927 51.5338 86.8052 45.7168 83.5333 39.8895C82.1735 37.4668 80.8424 35.0286 79.4409 32.632C78.9303 31.7593 79.0553 31.2592 79.9358 30.7538C81.7802 29.6962 83.5724 28.55 85.3881 27.4428C85.6095 27.31 85.8439 27.2006 86.2269 27Z" fill="black"/>
<path d="M28.8887 72.371C29.0215 72.0975 29.243 71.4359 29.6311 70.8914C31.4207 68.3854 33.2572 65.9133 35.0807 63.4307C36.0941 62.0501 37.5086 61.7609 38.9387 62.6284C40.4757 63.561 41.2519 65.5538 40.3454 66.8771C38.3057 69.8416 36.1592 72.7331 33.9632 75.583C33.2546 76.5026 32.1345 76.4687 31.0847 76.0441C29.7822 75.5179 28.8756 74.1581 28.8939 72.371H28.8887Z" fill="black"/>
<path d="M35.627 77.0574C35.7494 76.7995 35.9604 76.1352 36.3433 75.596C37.6901 73.6865 39.0942 71.8161 40.4826 69.9353C41.5872 68.4401 42.8271 68.1535 44.2677 69.0444C45.8854 70.0473 46.6304 72.0245 45.7109 73.3817C44.1348 75.7106 42.4572 77.9717 40.7405 80.199C40.0137 81.142 38.9275 81.1107 37.8829 80.7069C36.5908 80.2068 35.6426 78.8209 35.627 77.0547V77.0574Z" fill="black"/>
<path d="M46.5891 84.9999C44.7995 84.9009 43.8435 84.1533 43.2156 82.9785C42.6113 81.8479 42.6894 80.7616 43.51 79.7144C44.3905 78.5917 45.1928 77.409 46.0395 76.2628C47.0919 74.8379 48.5272 74.5774 49.9912 75.5282C51.5021 76.5103 52.1429 78.464 51.2546 79.8056C50.2543 81.3191 49.1654 82.7805 48.0062 84.1715C47.6103 84.6457 46.8757 84.8384 46.5891 84.9999Z" fill="black"/>
<path d="M31.0983 65.215C30.9055 65.5771 30.5825 66.2649 30.1865 66.9057C29.8218 67.4918 29.3816 68.0362 28.9596 68.5859C27.8525 70.0186 26.563 70.2896 25.1302 69.4013C23.6194 68.4635 22.916 66.5071 23.7392 65.1317C24.4035 64.022 25.2032 62.9748 26.0602 62.0083C26.8053 61.1669 27.8472 61.1435 28.8241 61.5889C30.1839 62.2089 31.0123 63.2587 31.0983 65.2177V65.215Z" fill="black"/>
</svg>
