<svg width="111" height="113" viewBox="0 0 111 113" fill="none" xmlns="http://www.w3.org/2000/svg">
<rect width="111" height="113" fill="#BBF1F2"/>
<path d="M80.6722 46.781C75.0275 46.781 70.4541 51.3576 70.4541 56.9991C70.4541 62.6406 75.0307 67.2172 80.6722 67.2172C86.3137 67.2172 90.8903 62.6406 90.8903 56.9991C90.8903 51.3576 86.3137 46.781 80.6722 46.781ZM80.7531 63.7961C80.0799 63.8155 79.6171 63.453 79.5944 62.7668C79.5718 62.0936 79.9828 61.647 80.6593 61.6405C81.3519 61.634 81.6626 62.1195 81.75 62.7086C81.6821 63.3753 81.3746 63.7799 80.7531 63.7993V63.7961ZM82.9282 52.7591C82.5592 55.0248 82.0575 57.2678 81.5882 59.514C81.4879 59.9963 81.2516 60.4882 80.6755 60.4785C80.1317 60.4688 79.8339 60.0578 79.7368 59.5367C79.3063 57.2257 78.5943 54.9633 78.481 52.6005C78.413 51.1505 79.342 50.2054 80.6755 50.2119C82.0251 50.2183 83.1547 51.39 82.9314 52.7591H82.9282Z" fill="black"/>
<path d="M57.6399 72.4475C61.2585 71.3114 63.741 68.4437 64.0064 65.1197C64.2071 64.8834 64.2427 64.6536 63.9967 64.4238C64.3916 60.9671 62.8736 58.5137 59.98 56.7886C58.5397 55.9308 56.9764 55.3741 55.3904 54.853C53.2089 54.1377 50.9141 53.6943 48.9268 52.4644C47.2243 51.4125 46.5479 49.9722 46.9298 48.4283C47.2664 47.0753 48.6905 46.1302 50.5387 45.9328C53.4581 45.6221 56.1899 46.2662 58.8633 47.3764C60.6726 48.1273 62.045 47.6029 62.7182 46.0364C63.3461 44.5734 62.7214 43.214 60.951 42.4793C59.3683 41.8223 57.7629 41.1846 56.0151 41.0714C54.7787 40.9904 54.0569 40.5341 54.3126 39.0938C54.4518 38.3105 54.3709 37.4787 54.3126 36.676C54.2252 35.4622 53.4258 34.7437 52.3124 34.7728C51.2184 34.802 50.4222 35.5108 50.3607 36.7407C50.3283 37.3848 50.2506 38.0516 50.3607 38.6762C50.6584 40.3528 50.0046 40.9484 48.3248 41.2267C44.1948 41.9096 41.4081 44.7967 40.9549 48.4865C40.5892 49.2763 40.573 50.0693 40.942 50.8655C41.2203 54.6362 43.7903 56.4066 46.9072 57.7078C49.668 58.86 52.6716 59.297 55.3775 60.6046C57.2774 61.5205 58.2743 62.9317 58.1416 64.5533C58.0024 66.2655 56.7531 67.4533 54.5974 67.9809C51.0921 68.8354 47.9526 67.7349 44.8875 66.2007C44.4149 65.8221 43.9003 65.5308 43.3015 65.4013C41.9389 64.3947 40.887 65.0323 40.0293 66.1198C39.1974 67.1717 39.424 68.6994 40.5568 69.5636C42.5441 71.0816 44.7969 72.0656 47.2114 72.7291C48.2245 73.0074 49.6713 72.7291 50.1697 73.5674C50.6487 74.3733 50.3251 75.6582 50.3477 76.7328C50.3833 78.3803 51.1116 79.3092 52.403 79.225C53.9113 79.1247 54.3482 78.1246 54.345 76.7684C54.345 75.6421 54.0019 74.2179 54.5554 73.48C55.0862 72.7712 56.575 72.7938 57.6334 72.4604L57.6399 72.4475Z" fill="black"/>
<path d="M77.643 69.2951C77.384 69.2303 77.1057 69.1915 76.8824 69.0588C75.8304 68.4374 75.3805 68.8873 74.8335 69.8647C71.2959 76.1535 66.0363 80.3288 59.1131 82.4229C54.7307 83.7467 50.3127 83.5752 45.8687 82.889C45.2408 82.5945 44.6194 82.2805 43.9041 82.2708C36.9517 79.8369 31.676 75.4609 28.2905 68.8614C27.6917 67.6929 27.4813 66.3141 26.4779 65.3528C26.4715 64.9256 26.5588 64.4692 26.4456 64.0711C25.1995 59.6887 25.3613 55.2804 26.1025 50.8494C26.2255 50.4221 26.3485 49.9981 26.4715 49.5709C26.7628 49.053 27.0638 48.5416 27.0735 47.9202C27.9636 45.729 29.0187 43.6284 30.3813 41.6832C33.1908 37.6697 36.9712 34.8441 41.3018 32.6788C41.496 32.6885 41.6287 32.6205 41.6676 32.4166C41.8747 32.3972 42.0818 32.3778 42.289 32.3584C42.7907 32.3001 43.2956 32.2451 43.616 31.779C44.4867 31.5686 45.4156 31.5978 46.228 31.1511C46.3898 31.1414 46.5517 31.1446 46.7103 31.1155C57.8023 29.1767 66.6254 32.9215 73.3706 41.7997C74.1765 42.8613 74.5617 44.6415 75.5618 45.0461C76.6202 45.4733 78.1802 44.6512 79.5202 44.3696C79.6173 44.3502 79.7047 44.2854 79.8504 44.2175C79.4005 42.7092 78.5525 41.3983 77.6915 40.1166C74.17 34.8603 69.6484 30.7951 63.6606 28.5068C62.9421 28.1054 62.2397 27.6555 61.3788 27.6102C45.4512 22.1014 27.6755 31.2126 22.5001 47.5415C22.1117 48.0561 22.034 48.6582 21.9984 49.2731C20.4545 55.6461 20.6034 61.9155 23.1345 68.0392C23.1345 68.3953 23.2024 68.7254 23.4937 68.9714C24.2414 71.3503 25.5652 73.425 27.0411 75.3897C30.828 80.4227 35.5729 84.1934 41.6481 86.1321C41.8164 86.3781 42.0657 86.3911 42.3278 86.3587C47.7492 88.2651 53.2451 88.5176 58.8121 87.0805C59.2782 87.0643 59.7572 87.1031 60.1618 86.7924C60.4143 86.7536 60.6797 86.7309 60.7606 86.4202C61.0681 86.3878 61.3788 86.3555 61.6863 86.3231C62.12 86.1127 62.6993 86.2357 63.0101 85.7437C63.1686 85.7437 63.3499 85.7858 63.4858 85.7276C70.1177 82.8534 75.2996 78.3545 78.8276 72.0074C79.6173 70.5854 79.2225 69.6813 77.643 69.2951ZM60.4499 86.4299C60.4499 86.4299 60.4466 86.4299 60.4434 86.4299C60.4434 86.4299 60.4466 86.4267 60.4499 86.4234C60.4499 86.4234 60.4499 86.4299 60.4499 86.4332V86.4299Z" fill="black"/>
</svg>
