<svg width="111" height="113" viewBox="0 0 111 113" fill="none" xmlns="http://www.w3.org/2000/svg">
<rect width="111" height="113" fill="#BBF1F2"/>
<path d="M65.4275 68.0241C61.871 68.0654 58.2274 67.1826 54.8792 65.2279C54.2325 64.85 53.893 64.9326 53.4265 65.4656C52.616 66.3898 51.7036 67.2224 50.8783 68.1348C50.6923 68.3415 50.5845 68.7342 50.6273 69.0117C50.8311 70.3079 50.6082 71.4624 49.6589 72.4132C44.5095 77.5655 39.366 82.7238 34.1974 87.857C32.7461 89.2979 30.7221 89.3244 29.2295 87.9072C27.4461 86.2123 25.7056 84.4703 24.0137 82.6839C22.5758 81.1648 22.6894 79.1467 24.216 77.6039C26.1366 75.6611 28.0751 73.736 30.0061 71.8049C33.0163 68.7947 36.0442 65.8022 39.0294 62.7654C40.1676 61.6065 41.4136 60.9968 43.0627 61.3954C43.2797 61.4471 43.6237 61.2699 43.8126 61.0957C44.8047 60.1759 45.7511 59.206 46.7476 58.2907C47.0901 57.9747 47.096 57.743 46.8701 57.3591C44.5892 53.4616 43.6488 49.2497 44.0164 44.7572C44.4622 39.3052 46.6989 34.6872 50.6377 30.9034C53.6819 27.9803 57.3003 26.1305 61.4429 25.3554C71.1423 23.5381 80.6498 28.3804 84.9105 37.2738C88.6323 45.0422 87.3021 54.3666 81.5592 60.762C77.368 65.4316 72.3234 67.7465 65.4289 68.03L65.4275 68.0241ZM65.4348 64.0439C74.9187 64.1517 82.8894 56.2873 83.009 46.706C83.13 37.0464 75.338 29.0772 65.6401 28.9399C55.982 28.8026 47.9936 36.6818 47.9109 46.4255C47.8297 56.06 55.6601 63.9332 65.4334 64.0439H65.4348ZM27.4196 80.1875C28.8457 81.6549 30.291 83.1416 31.6286 84.5161C36.5344 79.6161 41.4476 74.7074 46.2722 69.8887C44.8904 68.4729 43.4539 67.001 42.047 65.5601C37.153 70.4541 32.253 75.3555 27.4196 80.1875ZM47.6526 65.3578C48.5797 64.4484 49.4271 63.6187 50.1785 62.882C49.839 62.4834 49.4507 62.0272 49.1687 61.6966C48.2815 62.5617 47.4326 63.3899 46.5675 64.2343C46.9306 64.6093 47.3337 65.0271 47.6526 65.3578Z" fill="black"/>
</svg>
