<svg width="111" height="113" viewBox="0 0 111 113" fill="none" xmlns="http://www.w3.org/2000/svg">
<rect width="111" height="113" fill="#BBF1F2"/>
<path d="M55.8107 46.2531V55.0075C50.4989 55.0075 45.3741 55.2487 40.2915 54.899C37.9763 54.7422 35.7455 53.4218 32.9601 52.4511C32.9601 46.8078 32.7129 40.5073 33.0565 34.237C33.2495 30.6315 36.674 29.0217 41.413 29.6186C42.6972 35.5333 43.1976 35.9312 49.4378 35.9312C53.2543 35.9312 57.0708 35.9312 60.8872 35.9312C66.6511 35.9312 67.3626 35.3464 68.4177 29.7874C73.7475 28.5273 77.0635 31.0295 77.16 36.4195C77.2022 38.7106 77.166 41.0017 77.166 43.6003C75.7552 43.6727 74.5916 43.7872 73.434 43.7872C63.2929 43.7993 53.1458 43.7932 43.0047 43.7993C42.2028 43.7993 41.3527 43.6606 40.6111 43.8776C39.966 44.0706 39.4414 44.6795 38.8626 45.1016C39.4836 45.4452 40.0986 46.0783 40.7317 46.0904C45.0486 46.1808 49.3655 46.1386 53.6884 46.1446C54.2853 46.1446 54.8822 46.2049 55.8107 46.2531Z" fill="black"/>
<path d="M35.4261 88.994C34.166 87.2696 33.2195 86.4798 32.9301 85.497C31.9413 82.1328 30.3074 81.4394 27.2385 82.9889C26.31 83.4592 24.9896 83.1517 23.8501 83.1999C23.8742 81.9579 23.5004 80.523 23.9948 79.5161C25.4297 76.5799 24.8509 74.8917 21.6012 74.0717C20.1482 73.704 18.5625 73.306 19.1112 71.4913C19.4006 70.5386 20.6305 69.5257 21.6495 69.2062C24.7967 68.2114 25.4418 66.6558 24.0008 63.7076C23.5185 62.7128 23.9225 61.2838 23.9164 60.0479C25.074 60.1202 26.4004 59.8489 27.3531 60.3252C30.4279 61.8446 31.881 61.1633 32.9843 57.7085C33.2677 56.8283 34.4253 55.6888 35.2211 55.6526C35.9929 55.6224 37.2469 56.7077 37.5484 57.5638C38.9291 61.4285 40.0565 61.8988 43.6499 60.1021C44.4699 59.6921 46.0978 59.7585 46.6766 60.3131C47.2313 60.8497 47.3097 62.5017 46.8997 63.3097C45.103 66.8669 45.5732 68.0064 49.3837 69.363C50.2459 69.6704 51.3191 70.9064 51.313 71.7083C51.313 72.48 50.1675 73.6376 49.2933 73.9391C45.73 75.163 44.9522 76.7005 46.8454 79.7995C47.6111 81.0596 48.1477 82.2955 46.6344 83.1035C45.8024 83.5436 44.3795 83.6159 43.5595 83.1939C40.159 81.4454 38.7422 81.9639 37.5906 85.5453C37.2892 86.4798 36.5295 87.2696 35.4201 89L35.4261 88.994ZM41.1478 71.5455C41.0815 68.4646 38.3985 65.8721 35.2814 65.8781C32.0196 65.8781 29.4452 68.5912 29.5718 71.8952C29.6924 75.0183 32.4055 77.5747 35.4744 77.4601C38.4829 77.3456 41.2081 74.5058 41.1478 71.5455Z" fill="black"/>
<path d="M39.7607 87.5711C39.8934 86.5883 40.0079 85.7262 40.1044 85.0207C42.5884 85.2619 45.1267 86.1844 47.1646 85.5332C49.5099 84.7856 50.6434 82.3257 49.5401 79.3352C56.9741 79.2568 64.1006 79.3835 71.209 79.2629C71.209 78.5997 71.2029 77.9425 71.1969 77.2793C63.8956 76.7728 56.5219 77.2793 48.5392 76.9718C53.869 74.8616 54.5322 73.5713 53.3324 68.4948H55.8165C55.8948 69.2424 56.0275 69.9116 56.0214 70.5808C56.0034 72.6247 56.9982 73.4266 59.0059 73.4085C64.2211 73.3543 69.4424 73.4688 74.6576 73.3543C76.6654 73.3121 77.3406 74.0295 77.208 75.9709C77.0754 77.8701 77.2562 79.7874 77.1537 81.6866C76.9367 85.69 74.8626 87.7158 70.8593 87.7339C61.1282 87.7761 51.391 87.752 41.6599 87.7459C41.0751 87.7459 40.4842 87.6374 39.7668 87.5711H39.7607Z" fill="black"/>
<path d="M90.9488 46.3857C86.2882 51.5105 81.2116 57.0815 75.8999 62.9238C69.9732 57.2564 64.5108 52.0291 58.6143 46.3857H90.9488Z" fill="black"/>
<path d="M59.7178 71.0813C62.8349 67.6206 66.1147 63.985 69.3584 60.3916C71.6435 62.0617 73.5728 64.5578 75.5926 64.6361C77.4436 64.7085 79.397 62.1642 81.6278 60.5423C83.2436 62.0798 85.0343 63.7679 86.8009 65.4802C88.5976 67.2227 90.3641 68.9892 92.4864 71.0813H59.7238H59.7178Z" fill="black"/>
<path d="M54.7668 25.0003C57.3714 25.0003 59.97 25.0184 62.5746 25.0003C65.2576 24.9762 65.9389 26.5377 65.9148 28.8951C65.8907 31.2767 66.1017 33.7908 62.7253 33.8451C57.5222 33.9295 52.3129 33.9838 47.1158 33.821C43.3717 33.7064 44.3303 30.7039 44.1916 28.4369C44.0469 26.2363 44.9513 25.0003 47.2605 25.0003C49.7626 25.0003 52.2647 25.0003 54.7668 25.0003Z" fill="black"/>
<path d="M58.3848 67.8437V49.7079C61.3813 52.9516 64.2512 56.0626 66.6869 58.6974C64.3597 61.2598 61.5139 64.395 58.3848 67.8437Z" fill="black"/>
<path d="M92.6787 68.314C89.5133 64.5699 86.8183 61.3865 84.2197 58.3236C86.5108 55.912 89.441 52.825 92.6787 49.4246V68.32V68.314Z" fill="black"/>
<path d="M47.3574 57.564C48.2075 57.3349 48.4789 57.2143 48.7502 57.1962C56.4313 56.8043 57.2332 57.7871 55.6295 65.7818H48.2497C50.4022 62.7973 50.7217 60.0963 47.3574 57.558V57.564Z" fill="black"/>
</svg>
