<svg width="111" height="113" viewBox="0 0 111 113" fill="none" xmlns="http://www.w3.org/2000/svg">
<rect width="111" height="113" fill="#BBF1F2"/>
<path d="M50.7162 84.6333C50.0918 84.6333 49.5724 84.6333 49.053 84.6333C44.2413 84.6333 39.4296 84.6538 34.615 84.6275C30.2702 84.6042 28 82.2844 28 77.9337C28 62.4774 28 47.0181 28 31.5617C28 27.4649 30.4131 25.0109 34.4924 25.008C44.892 24.9964 55.2945 24.9993 65.6969 25.0051C69.8667 25.008 72.2769 27.4358 72.2886 31.6259C72.3003 35.7548 72.2886 39.8808 72.2886 43.6975C74.0189 44.6546 75.6705 45.3432 77.0507 46.3937C78.6526 47.6104 78.816 49.4166 78.1099 51.3921C79.2187 52.0107 80.3071 52.6206 81.3984 53.2246C82.5423 53.8578 82.8136 54.6835 82.1483 55.8741C80.0007 59.7257 77.891 63.5979 75.7755 67.4671C75.2357 68.4562 74.5004 68.9961 73.4149 68.357C72.3207 67.7151 72.5045 66.8076 73.0385 65.8476C74.9439 62.4161 76.826 58.9729 78.7898 55.3984C78.0428 54.987 77.3366 54.596 76.5225 54.1466C75.154 56.624 73.7797 59.0575 72.4783 61.532C72.2507 61.9667 72.2944 62.5707 72.2944 63.096C72.2828 68.0536 72.2944 73.0112 72.2857 77.9687C72.2769 82.226 69.9747 84.5575 65.7524 84.6275C65.6065 84.6275 65.4577 84.6479 65.3147 84.6275C60.7102 83.9418 56.7447 85.1148 53.4591 88.52C53.0681 88.9256 52.003 89.1416 51.5478 88.8965C51.081 88.6455 50.8621 87.738 50.7454 87.0815C50.6141 86.3403 50.7162 85.5554 50.7162 84.6304V84.6333ZM50.6783 81.4644C51.3436 79.5357 51.7112 77.7032 52.5604 76.1304C57.8331 66.3582 63.2167 56.6502 68.539 46.9072C68.8512 46.3382 69.0847 45.6437 69.0905 45.0047C69.1372 40.4819 69.1255 35.962 69.1109 31.4392C69.1022 29.2507 68.0692 28.1857 65.9158 28.1827C55.4141 28.1711 44.9095 28.1711 34.4078 28.1827C32.196 28.1827 31.2039 29.1894 31.2039 31.3837C31.201 46.9918 31.201 62.5999 31.2039 78.208C31.2039 80.5044 32.1464 81.4469 34.4953 81.4586C37.8977 81.479 41.3029 81.4644 44.7052 81.4644C46.7857 81.4644 48.8692 81.4644 50.6754 81.4644H50.6783ZM54.2323 83.968C56.2224 82.442 58.1249 81.2689 59.2775 79.0659C62.5572 72.8011 66.0383 66.6413 69.4378 60.4406C70.2548 58.9496 70.1264 58.4331 68.7433 57.6482C67.153 56.7465 66.7153 56.8545 65.8662 58.3952C62.6185 64.2953 59.4671 70.2479 56.0882 76.0721C54.6817 78.494 54.1856 80.983 54.2294 83.968H54.2323ZM69.1139 68.2753C69.0088 68.252 68.9009 68.2286 68.7958 68.2024C66.4177 72.5414 64.0366 76.8804 61.5389 81.4353C63.4268 81.4353 65.0171 81.5199 66.5928 81.4119C68.1159 81.3069 69.073 80.2681 69.0964 78.7187C69.1489 75.2376 69.1139 71.7564 69.1139 68.2753ZM68.3231 53.9103C69.537 54.5697 70.7071 55.2059 71.953 55.8799C72.9743 54.0182 73.9839 52.1508 75.0256 50.2979C75.7697 48.976 74.8447 48.4391 73.9314 47.9372C73.0122 47.4324 72.0872 46.9714 71.3811 48.3312C70.4007 50.2191 69.3415 52.0632 68.326 53.9103H68.3231Z" fill="black"/>
<path d="M50.0215 44.2227C45.84 44.2227 41.6615 44.2051 37.4801 44.2343C36.3713 44.2431 35.4784 43.9775 35.4463 42.7258C35.4113 41.4185 36.2984 41.0071 37.4772 41.0071C45.9363 41.0129 54.3925 41.0071 62.8517 41.0129C63.9459 41.0129 64.7746 41.3718 64.7892 42.6557C64.8038 43.9834 63.9634 44.2343 62.8546 44.2314C58.5769 44.2139 54.2992 44.2256 50.0215 44.2256V44.2227Z" fill="black"/>
<path d="M49.2927 52.3697C45.4031 52.3697 41.5106 52.358 37.621 52.3785C36.4946 52.3843 35.5375 52.2005 35.4325 50.8407C35.3479 49.7085 36.0628 49.1833 37.6297 49.1833C45.4586 49.1804 53.2903 49.1921 61.1192 49.1687C62.2951 49.1658 63.2376 49.4693 63.2376 50.7765C63.2376 52.0896 62.2747 52.3901 61.1104 52.3814C57.1712 52.3551 53.232 52.3726 49.2927 52.3726V52.3697Z" fill="black"/>
<path d="M47.0979 57.3361C50.404 57.3361 53.7071 57.3506 57.0131 57.3273C58.0753 57.3215 58.8689 57.622 58.9156 58.8096C58.9681 60.0789 58.1336 60.4874 57.0277 60.4904C50.4652 60.4991 43.9057 60.4933 37.3432 60.4962C36.2169 60.4962 35.4057 60.0818 35.4437 58.83C35.4787 57.6629 36.2432 57.3156 37.3287 57.3244C40.5851 57.3536 43.8415 57.3361 47.0979 57.3361Z" fill="black"/>
<path d="M53.083 36.0583C49.9287 36.0583 46.7744 36.0466 43.6201 36.067C42.5317 36.0729 41.6709 35.8832 41.668 34.5351C41.668 33.1899 42.5959 32.9507 43.6317 32.9448C48.0466 32.9215 52.4644 32.9332 56.8792 32.9332C58.916 32.9332 60.9556 32.9098 62.9923 32.9507C63.9961 32.9711 64.8131 33.2979 64.7956 34.5468C64.781 35.6702 64.177 36.067 63.1265 36.0641C59.7797 36.0495 56.4299 36.0583 53.083 36.0583Z" fill="black"/>
<path d="M44.682 65.4682C47.1127 65.4682 49.5463 65.4944 51.9769 65.4565C53.112 65.439 53.786 65.9205 53.786 67.038C53.786 68.0943 53.0887 68.5904 52.0615 68.5904C47.101 68.5962 42.1405 68.5991 37.18 68.5904C36.0829 68.5904 35.3855 68.0447 35.4438 66.9038C35.4993 65.8358 36.2054 65.4448 37.2413 65.4565C39.7215 65.4857 42.2018 65.4653 44.682 65.4653V65.4682Z" fill="black"/>
<path d="M42.1401 76.6906C40.4944 76.6906 38.8457 76.6906 37.2 76.6906C36.1787 76.6906 35.4726 76.2413 35.4405 75.185C35.4084 74.044 36.1379 73.5509 37.2204 73.5509C40.6111 73.548 44.0017 73.5422 47.3924 73.5626C48.3991 73.5684 49.0556 74.0236 49.0498 75.1354C49.0439 76.2529 48.3786 76.676 47.372 76.6848C45.627 76.7023 43.885 76.6906 42.1401 76.6906Z" fill="black"/>
</svg>
