<svg width="111" height="113" viewBox="0 0 111 113" fill="none" xmlns="http://www.w3.org/2000/svg">
<rect width="111" height="113" fill="#BBF1F2"/>
<g clip-path="url(#clip0_34_1064)">
<path d="M37.9548 67.8306H37.9492C37.9492 67.8306 37.9492 67.8306 37.9548 67.8361C37.9548 67.8361 37.9548 67.8361 37.9548 67.8306Z" fill="#010201"/>
<path d="M86.3014 80.1253C82.997 76.6372 79.8179 73.0238 76.5231 69.5261C75.6031 68.5529 75.5309 67.8639 76.2678 66.6884C78.3198 63.4171 79.4229 59.7411 79.7842 55.935C81.2292 40.7203 71.1668 27.7796 56.1429 25.3514C36.8465 22.2391 20.1897 40.1662 24.7657 59.1244C29.2262 77.6056 49.3174 86.4125 65.8923 77.0997C67.1206 76.4107 67.7757 76.4975 68.6909 77.5285C72.0916 81.3635 75.579 85.1165 79.1242 88.9997C81.5809 86.7594 83.8544 84.6107 86.2195 82.5776C87.26 81.6814 87.2311 81.1081 86.3014 80.1253ZM71.6629 67.8398C64.9241 76.8684 53.0745 80.1638 42.7712 75.8711C33.8696 72.4264 25.7147 63.0654 27.4584 49.402C28.7397 39.3857 35.8975 30.5258 47.6218 28.5071C63.0888 25.8476 74.9576 36.9479 76.5135 49.5514C76.7592 51.5411 77.2071 53.4779 76.5039 55.4387C76.369 56.3782 76.7206 57.39 76.0752 58.2475C75.4779 61.8464 73.9798 65.031 71.6629 67.8398Z" fill="#010201"/>
<path d="M73.3444 52.4616C65.6663 41.7853 54.8187 38.0274 42.7668 41.8431C42.4441 41.8045 42.1262 41.819 41.8323 41.9491C36.9625 44.1219 33.5184 47.9425 30.3007 52.0039C30.0069 52.3749 29.583 52.9964 30.4693 53.324C33.8556 57.6841 37.9258 61.2397 42.8102 63.8461C50.6135 67.1078 58.0652 66.6645 65.1605 61.8274C68.5034 59.5486 71.0034 56.4893 73.4263 53.3384C73.4022 53.0397 73.4889 52.6639 73.3396 52.4616H73.3444ZM65.8493 57.7323C62.1981 61.3649 57.5257 63.2921 52.1886 63.1668C44.9392 62.8729 39.4143 59.2547 34.7034 54.0515C33.9567 53.2228 34.0627 52.5917 34.766 51.7967C43.9325 41.3854 54.7705 39.2559 65.9071 48.8819C65.9697 48.9349 66.0227 48.9927 66.0805 49.0457C71.1527 53.9503 71.514 52.0954 65.8493 57.7323Z" fill="#010201"/>
<path d="M51.9671 45.9287C48.1521 45.7745 45.0067 48.9736 44.9971 52.8423C45.0212 57.0723 47.9209 59.8329 52.0153 60.0497C55.6183 60.2376 59.1876 56.7254 59.072 53.0832C58.9516 49.3012 56.548 46.1166 51.9671 45.9287ZM49.9344 52.7315C48.3448 52.6929 47.2321 51.5607 47.2466 49.9564C47.261 48.328 48.4893 47.5138 49.944 47.1861C51.5866 47.5234 52.7378 48.4388 52.6944 50.0431C52.6559 51.6185 51.5528 52.77 49.9392 52.7315H49.9344Z" fill="#020202"/>
</g>
<defs>
<clipPath id="clip0_34_1064">
<rect width="63" height="64" fill="white" transform="translate(24 25)"/>
</clipPath>
</defs>
</svg>
