<svg width="111" height="113" viewBox="0 0 111 113" fill="none" xmlns="http://www.w3.org/2000/svg">
<g clip-path="url(#clip0_39_2687)">
<rect width="111" height="113" fill="#BBF1F2"/>
<path d="M30.8806 67.3962C29.5998 66.8583 28.4361 66.4482 27.3416 65.8943C21.6804 63.0424 21.1531 57.959 26.2472 54.1697C31.2694 50.4337 37.1091 49.4192 43.4067 49.5416C43.3348 50.5988 43.3482 51.5654 43.1564 52.4868C43.1005 52.7477 42.4561 52.9874 42.0513 53.054C40.0489 53.3842 37.9718 53.4427 36.0492 54.0206C34.7151 54.42 33.4396 55.3494 32.3958 56.3186C31.0191 57.5995 31.1682 59.3304 32.6887 60.4594C34.6246 61.8974 36.6963 62.8906 39.1914 61.5459C40.2725 60.9627 41.4788 60.5686 42.6691 60.2384C43.492 60.0094 44.392 60.0653 45.2495 59.9348C45.9232 59.831 46.5809 59.6339 47.3877 59.4422C47.3877 60.9281 47.4437 62.4273 47.3425 63.9132C47.3212 64.23 46.7646 64.5735 46.3892 64.7972C44.7195 65.7852 42.8449 66.5148 41.3803 67.7397C37.1144 71.3133 37.1597 76.7535 41.4975 80.2339C46.7673 84.4599 52.8014 84.9765 59.1416 83.3068C61.7619 82.6172 64.0866 81.347 65.94 79.3205C69.0209 75.9493 68.957 71.6168 65.7855 68.3282C64.1132 66.5947 62.0681 65.455 59.802 64.7307C58.9952 64.4724 58.6437 64.1022 58.689 63.2341C58.7555 61.9746 58.7049 60.7097 58.7049 59.7458C59.842 59.7458 60.766 59.6845 61.6767 59.7644C62.4143 59.831 63.1519 60.02 63.8656 60.2384C67.6016 61.3834 71.0154 63.1303 73.9232 65.7772C81.1263 72.3332 80.9852 81.6718 73.5877 88.0148C68.7919 92.1263 63.096 94.0808 56.9208 94.672C49.0068 95.4282 41.4842 94.1074 34.8563 89.4847C32.931 88.1426 31.1815 86.3691 29.7888 84.4732C26.2818 79.7013 26.391 73.819 29.7702 68.93C30.0951 68.4587 30.4412 68.0007 30.8806 67.3935V67.3962Z" fill="black"/>
<path d="M52.7765 57.1496C52.7206 57.6342 52.6194 58.1215 52.6194 58.6062C52.6061 63.4419 52.6567 68.2777 52.5635 73.1108C52.5475 73.8884 52.1161 74.8869 51.5356 75.3743C50.2095 76.49 48.2337 75.3929 48.1298 73.5529C48.0526 72.1815 48.1032 70.8048 48.1032 69.4281C48.1032 62.3768 48.1032 55.3255 48.0979 48.2742C48.0979 47.8854 48.0632 47.4967 48.0419 47.1052C47.8955 47.0866 47.749 47.0653 47.6026 47.0466C47.3549 48.8361 47.0141 50.6175 46.8889 52.415C46.7744 54.0473 46.8836 55.693 46.9156 57.3333C46.9369 58.3425 46.6466 59.1494 45.5069 59.192C44.4417 59.2319 44.0583 58.4783 44.0024 57.5357C43.7867 53.8929 43.7734 50.2527 44.8252 46.7164C45.1474 45.63 45.6747 44.5675 46.2978 43.6195C47.1206 42.3653 48.3668 41.7422 49.9246 41.7715C52.0975 41.8088 54.2677 41.7795 56.4406 41.7955C58.4937 41.8114 59.8278 43.0577 60.4616 44.7752C61.2045 46.7883 61.7211 48.9293 61.9927 51.0596C62.2563 53.11 62.0966 55.219 62.0912 57.3014C62.0912 58.3319 61.7531 59.2346 60.5361 59.1867C59.3006 59.1387 59.1861 58.2067 59.1568 57.1762C59.0822 54.4361 58.9517 51.6933 58.7866 48.9559C58.7467 48.2902 58.4831 47.6351 58.3233 46.9747C58.1822 46.9934 58.0384 47.0094 57.8972 47.028C57.8972 48.7242 57.8946 50.4178 57.8972 52.1141C57.9159 59.0775 57.9398 66.0409 57.9532 73.0016C57.9558 74.7325 57.1516 75.7311 55.7669 75.755C54.305 75.7817 53.4529 74.7804 53.4502 72.9857C53.4422 68.1952 53.4502 63.4047 53.4422 58.6141C53.4422 58.1268 53.3464 57.6422 53.2958 57.1549C53.12 57.1549 52.9443 57.1496 52.7659 57.1469L52.7765 57.1496Z" fill="black"/>
<path d="M57.9206 36.4993C57.8567 36.0546 57.7901 35.5833 57.6996 34.9495C60.7725 34.9495 63.7363 34.9842 66.7001 34.9362C68.3804 34.9096 70.066 34.8137 71.7302 34.6034C72.2575 34.5368 72.7235 33.9936 73.2188 33.6687C72.7608 33.2506 72.3587 32.5716 71.8368 32.4624C70.1991 32.1162 68.5188 31.8127 66.8519 31.802C57.5771 31.7408 48.2997 31.8153 39.0249 31.7354C37.0064 31.7168 34.9747 31.3467 32.9828 30.9552C32.357 30.8327 31.8458 30.1164 31.2812 29.6744C31.8112 29.1924 32.2745 28.4175 32.8843 28.279C35.2915 27.7305 37.736 27.0834 40.1832 27.0142C46.4809 26.8358 52.7866 26.9556 59.0869 26.937C60.4344 26.9343 61.8164 27.0115 63.2597 25.9757C61.8164 25.0889 60.4823 24.9078 59.0763 25.1582C55.4601 25.8026 51.8359 25.8532 48.2144 25.278C47.2638 25.1262 46.3265 24.7987 45.4291 24.4365C44.8459 24.2022 44.577 23.6084 45.2507 23.2196C47.0055 22.205 48.9521 22.0746 50.8853 21.9707C50.9306 22.1251 50.9758 22.2796 51.0184 22.434C50.1424 22.7642 49.2663 23.0918 48.3316 23.4433C49.6604 25.1156 56.2244 25.2088 58.2854 23.5178C57.1244 23.1077 56.1178 22.7536 55.1139 22.3994C55.1193 22.3142 55.1246 22.229 55.1299 22.1438C55.3856 22.0852 55.6545 21.9494 55.8968 21.984C57.3401 22.1997 58.7834 22.442 60.216 22.7136C60.5515 22.7776 61.0575 22.9267 61.1453 23.1637C61.7072 24.6602 63.0892 24.346 64.1943 24.6629C64.916 24.8706 65.6562 25.0729 66.3113 25.4244C67.1288 25.8612 67.1155 26.5349 66.282 26.8997C65.4006 27.2858 64.434 27.632 63.486 27.6852C60.4317 27.8583 57.3721 27.9382 54.3124 27.9648C49.7403 28.0074 45.1681 27.9382 40.5986 27.9994C39.3284 28.0181 38.0556 28.2897 36.804 28.5347C36.3806 28.6172 36.0132 28.9794 35.2835 29.4134C36.1117 29.7756 36.5857 30.0925 37.0996 30.183C37.9677 30.3401 38.8624 30.4147 39.7439 30.4173C48.5313 30.4333 57.3188 30.42 66.1063 30.4306C69.4029 30.4333 72.6809 30.6383 75.7938 31.8526C76.8536 32.268 78.2596 32.6515 78.2303 33.9882C78.1984 35.4315 76.7072 35.6525 75.5834 35.9987C74.8245 36.233 74.0256 36.4674 73.2428 36.4754C68.1913 36.518 63.1372 36.4967 57.9153 36.4967L57.9206 36.4993Z" fill="black"/>
<path d="M62.953 52.9239C62.8571 51.8587 62.7639 50.8149 62.6548 49.6166C63.2353 49.582 63.7039 49.5314 64.1726 49.5314C67.8101 49.526 71.4476 49.5766 75.0824 49.5021C76.3978 49.4754 77.7213 49.2305 79.0101 48.9455C79.9794 48.7325 81.1164 48.1893 80.9673 47.1161C80.8555 46.3253 80.0327 45.2574 79.2897 44.9992C77.2233 44.2855 75.0531 43.6517 72.8882 43.4973C69.4904 43.255 66.0606 43.3961 62.6468 43.444C61.4032 43.46 60.2981 43.4068 59.4886 42.2564C59.1877 41.8277 58.6205 41.5854 58.1519 41.2445C58.2903 41.1327 58.3542 41.0368 58.4155 41.0395C64.7931 41.154 71.1973 40.4882 77.5349 41.5854C79.4415 41.9155 81.3215 42.5307 83.1296 43.231C84.3492 43.7023 85.5208 44.424 86.5381 45.2495C89.0252 47.2653 88.7935 49.6432 86.0055 51.1957C83.6648 52.4978 81.0765 52.9611 78.4429 53.0091C73.5645 53.0969 68.6862 53.0623 63.8078 53.0703C63.5522 53.0703 63.2939 52.9878 62.9477 52.9265L62.953 52.9239Z" fill="black"/>
<path d="M48.0332 41.0817C47.181 41.8246 46.4834 42.4823 45.7271 43.0575C45.4395 43.2759 45.0055 43.4037 44.6407 43.4037C40.1644 43.3851 35.6854 43.4463 31.2171 43.2386C29.4437 43.1561 27.6436 42.6102 25.9686 41.9764C25.1857 41.6808 24.1765 40.6796 24.1685 39.9899C24.1605 39.199 24.978 38.0247 25.7396 37.6732C27.7687 36.7385 29.9177 35.7213 32.0906 35.5189C37.4482 35.0237 42.8485 34.9651 48.1743 34.7334C48.5045 36.3072 48.0704 36.7545 46.8029 36.7279C43.4797 36.6587 40.1484 36.5788 36.8331 36.7598C34.9238 36.8637 33.0199 37.3989 31.1559 37.8942C30.6766 38.022 29.9709 38.8103 30.0428 39.1511C30.1493 39.657 30.7937 40.2935 31.3236 40.424C32.6418 40.7515 34.0185 40.9539 35.3765 40.9805C39.1418 41.0524 42.9125 41.0045 46.6778 41.0124C47.0932 41.0124 47.5059 41.0551 48.0332 41.0843V41.0817Z" fill="black"/>
<path d="M57.144 36.5577C57.1786 38.8265 55.3199 40.7145 53.0405 40.7198C50.825 40.7251 48.9796 38.917 48.9317 36.6909C48.8811 34.4967 50.7025 32.5954 52.91 32.5368C55.2001 32.4782 57.1094 34.2916 57.1466 36.5577H57.144Z" fill="black"/>
<path d="M52.9912 21.2198C52.9832 21.2837 52.9699 21.3476 52.9699 21.4088C52.9699 22.0399 52.9752 22.6737 52.9619 23.3048C52.9619 23.406 52.9033 23.5365 52.8288 23.6004C52.6557 23.7468 52.3974 23.6004 52.3841 23.3634C52.3734 23.185 52.3814 23.0039 52.3814 22.8255C52.3814 21.9041 52.3814 20.9828 52.3814 20.0614C52.3814 20.0108 52.3761 19.9602 52.3734 19.9097C52.3548 19.9097 52.3361 19.9043 52.3148 19.9017C52.2829 20.136 52.2376 20.3677 52.2216 20.6047C52.2057 20.8177 52.2216 21.0334 52.2243 21.2464C52.227 21.3796 52.1897 21.4834 52.0406 21.4887C51.9021 21.4941 51.8515 21.3955 51.8435 21.273C51.8142 20.7964 51.8142 20.3197 51.95 19.8591C51.9926 19.7179 52.0619 19.5795 52.1418 19.4543C52.2483 19.2892 52.4134 19.2093 52.6157 19.212C52.9007 19.2173 53.1829 19.212 53.4679 19.2146C53.7368 19.2146 53.9099 19.3797 53.9925 19.6034C54.091 19.867 54.1575 20.1466 54.1922 20.4262C54.2268 20.6952 54.2055 20.9695 54.2055 21.2411C54.2055 21.3769 54.1602 21.4941 54.0031 21.4887C53.8407 21.4834 53.8274 21.3609 53.822 21.2251C53.8114 20.8656 53.7954 20.5088 53.7741 20.1493C53.7688 20.0614 53.7342 19.9762 53.7128 19.891C53.6942 19.891 53.6756 19.8963 53.6569 19.899C53.6569 20.12 53.6569 20.341 53.6569 20.5647C53.6569 21.4754 53.6623 22.3861 53.6649 23.2942C53.6649 23.5205 53.5611 23.651 53.38 23.6536C53.1883 23.6563 53.0764 23.5258 53.0764 23.2915C53.0764 22.6657 53.0764 22.0399 53.0764 21.4115C53.0764 21.3476 53.0631 21.2837 53.0578 21.2198C53.0338 21.2198 53.0125 21.2198 52.9885 21.2198H52.9912Z" fill="black"/>
<path d="M53.5613 18.5274C53.5666 18.823 53.3216 19.0707 53.026 19.0707C52.7358 19.0707 52.4961 18.8363 52.4881 18.5434C52.4828 18.2558 52.7198 18.0082 53.0074 18.0002C53.3056 17.9922 53.5559 18.2292 53.5613 18.5248V18.5274Z" fill="black"/>
</g>
<defs>
<clipPath id="clip0_39_2687">
<rect width="111" height="113" fill="white"/>
</clipPath>
</defs>
</svg>
