<svg width="111" height="113" viewBox="0 0 111 113" fill="none" xmlns="http://www.w3.org/2000/svg">
<rect width="111" height="113" fill="#BBF1F2"/>
<path d="M83.0098 77.3846C80.7119 80.7174 78.4673 83.9703 76.1795 87.2898C74.2144 85.9404 72.3026 84.6691 70.4424 83.328C69.8035 82.8671 69.2244 82.7989 68.5089 83.0468C62.8667 85.0086 57.0664 86.3147 51.1645 87.1899C50.9083 87.2282 50.6088 87.2149 50.3725 87.12C46.6687 85.6392 42.9699 84.1517 39.281 82.6342C38.9149 82.4844 38.6105 82.1583 38.311 81.8755C34.88 78.6458 31.4524 75.4146 28.0314 72.175C26.6338 70.8522 26.6604 68.952 28.088 67.8439C28.9865 67.1467 30.0647 66.9836 30.9749 67.5793C34.078 69.6092 37.1096 71.749 40.0031 73.734C39.5938 74.9071 39.0298 75.9354 38.9016 77.0136C38.5755 79.7557 40.6371 82.1616 43.4507 82.4728C47.058 82.8738 50.6704 83.2299 54.281 83.5959C55.1845 83.6874 55.7036 83.3547 55.7835 82.6758C55.865 81.977 55.3975 81.4828 54.4807 81.3863C51.0081 81.0219 47.5356 80.6691 44.0614 80.328C42.4141 80.1666 41.3309 79.2914 41.113 77.8971C40.8334 76.1101 41.9948 74.7024 43.9249 74.536C46.7685 74.2898 49.6121 74.0485 52.459 73.8522C53.2011 73.8006 53.7452 73.5776 54.251 73.0052C56.0897 70.9187 58.4141 69.6442 61.1446 69.1251C63.4058 68.6958 65.6537 68.2898 67.9782 68.8172C69.9449 69.2632 71.6254 70.2299 73.2926 71.2865C76.3575 73.2299 79.4507 75.13 82.5306 77.0502C82.667 77.135 82.7968 77.2349 83.0064 77.383L83.0098 77.3846Z" fill="black"/>
<path d="M70.9004 52.2015C70.9953 53.338 71.1533 54.4894 71.1733 55.6425C71.2166 58.1649 71.2066 60.689 71.1833 63.2115C71.1683 64.7639 71.1067 66.313 72.1167 67.9137C71.4678 67.6574 71.0718 67.506 70.6791 67.3446C67.1983 65.912 63.6775 66.2714 60.14 67.0934C57.363 67.7389 55.0036 69.0967 52.9753 71.09C52.6592 71.4012 52.14 71.6175 51.6908 71.6657C48.6325 71.9852 45.5693 72.2498 42.5061 72.521C42.3297 72.536 42.1134 72.4977 41.9687 72.4012C41.0918 71.8188 40.2166 71.2298 39.373 70.6008C39.2216 70.4877 39.1167 70.1632 39.1583 69.9719C39.2998 69.328 39.5327 68.704 39.7008 68.0651C39.9004 67.3047 40.2149 66.5393 40.2299 65.7722C40.3064 61.9752 40.1617 58.1682 40.3597 54.3796C40.5743 50.298 42.4229 46.902 45.4212 44.1316C45.7407 43.8371 45.9853 43.704 46.4013 44.0435C53.4229 49.7639 61.4761 52.4228 70.5177 52.12C70.571 52.1183 70.6242 52.1416 70.9004 52.2015ZM59.0119 56.4178C58.962 55.2415 58.4013 54.3513 57.4046 53.7706C56.9686 53.5177 56.779 53.2647 56.7989 52.7456C56.8339 51.8005 56.4096 51.2681 55.734 51.2614C55.0435 51.2548 54.6325 51.7672 54.6575 52.7256C54.6708 53.2265 54.536 53.511 54.0735 53.7639C53.0236 54.338 52.5044 55.2814 52.4312 56.4811C52.3464 57.8604 52.9404 58.8771 54.0319 59.6657C54.8172 60.2331 55.5926 60.8188 56.3547 61.4178C56.8572 61.8122 56.9969 62.4078 56.6958 62.9037C56.4978 63.2298 55.9803 63.5093 55.5876 63.5343C54.9836 63.5726 54.6841 63.0884 54.6292 62.4927C54.6242 62.4378 54.6209 62.3812 54.6043 62.328C54.4246 61.719 54.0269 61.3662 53.383 61.4444C52.7374 61.5226 52.4146 61.9386 52.4362 62.5959C52.4711 63.6608 52.8788 64.5742 53.7823 65.135C54.4079 65.5243 54.744 65.9203 54.6758 66.694C54.6508 66.9902 54.8755 67.4178 55.1234 67.5959C55.3663 67.7689 55.8988 67.8538 56.0951 67.704C56.4212 67.4544 56.6525 67.0118 56.7923 66.6042C56.9304 66.1998 56.6974 65.7539 57.2598 65.4095C59.6092 63.9702 59.6808 61.1466 57.4628 59.4744C56.6875 58.8904 55.9071 58.3147 55.1367 57.7256C54.5976 57.3147 54.4395 56.714 54.769 56.1816C54.9703 55.8554 55.4911 55.5726 55.8821 55.5526C56.4845 55.5243 56.7523 56.0152 56.8256 56.6108C56.9137 57.318 57.333 57.7356 58.0652 57.6591C58.769 57.5859 59.0369 57.095 59.0136 56.4195L59.0119 56.4178ZM44.6525 61.2581C44.6525 60.8438 44.6858 60.4261 44.6442 60.0152C44.5843 59.4095 44.2166 59.0551 43.6059 59.0418C42.952 59.0268 42.5494 59.3895 42.5111 60.0385C42.4662 60.8105 42.4645 61.5875 42.5028 62.3596C42.5344 63.0068 42.9287 63.3762 43.5826 63.3729C44.2432 63.3696 44.5926 62.9786 44.6459 62.3363C44.6741 61.9786 44.6509 61.6175 44.6525 61.2581ZM44.6392 56.1999C44.6392 56.1999 44.6542 56.1999 44.6608 56.1999C44.6608 56.0618 44.6675 55.9236 44.6608 55.7855C44.6226 55.0684 44.17 54.5692 43.566 54.5742C42.957 54.5792 42.5277 55.0667 42.4978 55.8055C42.4828 56.1633 42.4662 56.526 42.5028 56.8804C42.566 57.486 42.9304 57.8355 43.5377 57.8571C44.155 57.8804 44.5161 57.526 44.6309 56.9403C44.6775 56.7007 44.6392 56.4461 44.6392 56.1965V56.1999Z" fill="black"/>
<path d="M79.3558 39.7145C79.0929 40.1371 78.8466 40.415 78.7302 40.7378C78.2626 42.0406 77.855 43.3651 77.3808 44.6646C77.2144 45.1188 77.2243 45.4483 77.5006 45.8759C78.0896 46.7877 77.8633 47.9757 77.0663 48.6662C76.231 49.39 75.1345 49.4117 74.2476 48.7245C73.444 48.1005 73.1794 46.9624 73.6353 46.0256C73.7302 45.8293 73.8417 45.593 74.0147 45.4915C75.8134 44.4283 75.5105 42.3767 76.4972 40.6712C74.8583 41.0173 73.4856 41.2919 72.1195 41.598C68.0946 42.4965 64.0729 43.415 60.043 44.2919C59.7668 44.3518 59.3092 44.2286 59.1378 44.0223C54.9764 39.0523 50.84 34.0589 46.7019 29.0689C46.5971 28.9441 46.5106 28.8044 46.3774 28.6163C46.5688 28.5498 46.7086 28.4732 46.8566 28.4533C52.9498 27.6296 59.0413 26.8044 65.1362 26.009C65.464 25.9658 65.9348 26.0806 66.1561 26.3035C70.5505 30.7261 74.9165 35.1737 79.2876 39.6197C79.3441 39.6779 79.3824 39.7528 79.3558 39.7145Z" fill="black"/>
<path d="M72.5088 43.8326C71.8366 45.7976 71.2326 47.6362 70.5604 49.4499C70.4755 49.6811 70.0396 49.9108 69.76 49.9207C65.8432 50.0472 62.0263 49.4632 58.3158 48.2069C54.5254 46.9257 51.0728 45.0272 47.9547 42.5131C47.5387 42.1787 47.4522 41.8858 47.6303 41.39C48.2692 39.6246 48.8649 37.8442 49.5221 35.9424C50.2675 36.8276 50.9447 37.6179 51.6103 38.4183C53.6818 40.9141 55.765 43.3983 57.8066 45.9174C58.3873 46.6329 58.9647 46.8276 59.8898 46.6063C63.8765 45.6579 67.8848 44.7976 71.8848 43.9074C72.0412 43.8725 72.2043 43.8675 72.5088 43.8292V43.8326Z" fill="black"/>
</svg>
