<svg width="111" height="113" viewBox="0 0 111 113" fill="none" xmlns="http://www.w3.org/2000/svg">
<rect width="111" height="113" fill="#BBF1F2"/>
<path d="M28.5606 86.9077C29.6338 83.2315 30.6377 79.8276 31.6175 76.4184C32.0099 75.0515 32.3062 73.6552 32.7254 72.299C33.6732 69.2341 33.1552 66.3775 31.839 63.5102C30.6403 60.8992 29.3509 58.2482 28.7315 55.4743C27.2444 48.8213 27.9065 42.3606 31.8123 36.5432C35.3177 31.3186 40.4249 28.4993 46.5012 27.5302C54.5238 26.2514 62.2553 27.1244 69.0818 31.9299C74.496 35.7397 77.4754 41.0044 77.5235 47.7481C77.5288 48.3595 77.5529 49.091 77.2512 49.5662C76.4209 50.8744 77.0109 51.8862 77.6383 52.9888C79.1974 55.7333 80.834 58.4431 82.2035 61.2783C83.3275 63.6063 82.6707 64.6742 80.1505 65.3336C79.8942 65.4004 79.6272 65.4458 79.3629 65.4778C77.3873 65.7288 76.9655 66.1906 77.8065 68.0247C78.578 69.7067 78.6074 70.8813 76.5464 71.6769C78.0975 73.1426 77.3206 74.0583 76.1886 75.0728C75.7508 75.4653 75.652 76.3169 75.5586 76.979C75.4918 77.4382 75.7001 77.9374 75.7828 78.4207C76.4423 82.2624 74.1009 84.7506 70.155 84.3314C68.078 84.1099 66.0143 83.7708 63.9479 83.4691C61.7454 83.1488 61.4624 83.1514 60.6882 85.1591C60.0955 86.6968 59.2278 87.0065 57.6927 86.9958C48.5302 86.9264 39.365 86.9771 30.1998 86.9798C29.7273 86.9798 29.2521 86.9398 28.5606 86.9104V86.9077ZM51.8754 66.6979C61.4971 66.7112 68.8736 59.3828 68.9163 49.7691C68.959 40.2248 61.4918 32.7229 51.9555 32.7229C42.5153 32.7229 35.008 40.1447 34.9947 49.4861C34.9813 59.2466 42.275 66.6818 51.8754 66.6952V66.6979Z" fill="black"/>
<path d="M41.8799 40.959C41.8612 40.6039 41.8319 40.3876 41.8426 40.1741C41.8666 39.7042 41.7518 38.9754 41.9894 38.8285C42.3525 38.6043 42.9665 38.8125 43.4684 38.7805C43.8315 38.7564 44.4028 38.7564 44.5123 38.5482C45.4707 36.7622 45.8258 36.7194 46.9711 38.364C47.0192 38.4334 47.1073 38.4761 47.1767 38.5295C49.7289 37.248 49.7797 37.2667 50.1267 39.7122C50.4017 39.6962 50.6927 39.6348 50.973 39.6722C51.4402 39.7309 52.0356 39.7149 52.3213 39.9925C52.5322 40.1981 52.4761 40.8842 52.3026 41.242C51.9769 41.9147 51.9929 42.2565 52.7698 42.5448C53.1809 42.697 53.7282 43.1428 53.7549 43.4925C53.7843 43.853 53.2743 44.2721 52.9673 44.6379C52.8338 44.798 52.6229 44.8942 52.3213 45.1077C52.5615 45.4121 52.8232 45.6417 52.9513 45.9327C53.1329 46.3358 53.4132 46.8644 53.2824 47.1875C53.1542 47.5025 52.5535 47.8042 52.1664 47.7988C51.2293 47.7828 51.1225 48.1325 51.3174 48.9441C51.4082 49.3206 51.3174 49.956 51.0665 50.1482C50.7835 50.3618 50.2148 50.2496 49.7823 50.1989C49.462 50.1615 49.1576 49.9907 48.7705 49.8518C48.6397 50.3271 48.613 50.7062 48.4341 50.9838C48.2392 51.2828 47.9269 51.6379 47.6172 51.694C47.3155 51.7474 46.7762 51.5418 46.6454 51.2908C46.1515 50.3324 45.7457 50.1001 44.9101 51.0212C44.2693 51.726 43.2121 51.3015 43.2148 50.3698C43.2201 49.2912 42.9959 48.8373 41.8399 49.3206C41.5889 49.4247 41.0096 49.2165 40.8628 48.9788C40.6759 48.6745 40.6091 48.0925 40.7827 47.8095C41.3166 46.9365 41.1564 46.5654 40.1553 46.3518C39.8189 46.2797 39.3837 45.8232 39.333 45.4895C39.285 45.1745 39.6 44.6672 39.9017 44.4643C40.5264 44.0505 40.8654 43.7488 40.2434 43.0227C39.9577 42.689 39.7041 42.0322 39.8509 41.7065C40.0031 41.3674 40.6438 41.2313 41.087 41.0471C41.2792 40.967 41.5142 40.9937 41.8826 40.959H41.8799ZM48.0363 44.4643C48.007 43.4925 47.5051 42.9559 46.5466 42.9613C45.5989 42.9666 45.0329 43.5219 45.0329 44.4563C45.0329 45.3881 45.5588 45.946 46.5413 45.938C47.5051 45.93 48.015 45.4388 48.0363 44.4643Z" fill="black"/>
<path d="M57.8317 57.1668C57.466 57.6287 57.2791 58.0398 56.9587 58.2187C56.6731 58.3789 56.1471 58.4269 55.9015 58.2614C55.6025 58.0612 55.3062 57.5753 55.3302 57.2336C55.3943 56.2778 55.0072 56.2057 54.2089 56.3499C53.8138 56.422 53.1944 56.3018 52.9782 56.0295C52.7726 55.7705 52.802 55.1084 52.9969 54.7827C53.4614 54.0112 53.2985 53.7068 52.4683 53.4586C52.0811 53.3438 51.5285 52.9113 51.5232 52.6122C51.5125 52.2251 51.8889 51.6965 52.2493 51.4589C52.9381 51.0051 52.9248 50.6981 52.3908 50.1134C52.0972 49.7903 51.8729 49.1736 51.9824 48.7919C52.0651 48.5009 52.7032 48.2472 53.1197 48.2019C53.7284 48.1351 54.2623 48.1244 53.974 47.3182C53.7551 46.6988 53.4828 46.026 54.297 45.7671C54.7349 45.6282 55.3115 45.9112 55.8241 46.0153C55.9496 46.0394 56.0697 46.1034 56.3554 46.2129C56.4969 45.8578 56.577 45.4734 56.7879 45.1824C57.0415 44.8326 57.3672 44.4002 57.7356 44.3147C58.0293 44.2453 58.614 44.5577 58.7501 44.8513C59.2173 45.8498 59.6338 45.7751 60.2879 45.0302C60.4908 44.8006 61.0381 44.6324 61.2891 44.7445C61.6174 44.8941 62.0045 45.3426 62.0179 45.6736C62.0526 46.6828 62.3035 47.0886 63.3875 46.6828C63.6678 46.5787 64.2578 46.8483 64.4607 47.1259C64.6502 47.3849 64.6636 47.9749 64.4901 48.2552C64.0175 49.0215 63.9721 49.4139 65.0133 49.6195C65.3817 49.6916 65.8543 50.1988 65.913 50.5646C65.9664 50.8929 65.6033 51.4536 65.2696 51.6485C64.5061 52.0917 64.466 52.4334 65.0641 53.0741C65.3337 53.3624 65.5339 53.9845 65.4004 54.3022C65.2669 54.6226 64.6823 54.9322 64.2925 54.9322C63.3688 54.9322 63.2353 55.2499 63.4649 56.0802C63.5663 56.4433 63.4248 57.068 63.1579 57.2843C62.9016 57.4925 62.2635 57.4685 61.9325 57.2896C61.225 56.9078 60.8325 56.8251 60.6056 57.7728C60.5148 58.1546 60.053 58.7633 59.8234 58.7339C59.3668 58.6779 58.9424 58.2747 58.5312 57.9757C58.331 57.8316 58.1948 57.5966 57.8317 57.1695V57.1668ZM60.2318 51.5737C60.1624 50.6954 59.7299 50.116 58.7395 50.1027C57.7757 50.0894 57.199 50.5886 57.1777 51.5363C57.159 52.4788 57.7223 53.0261 58.6674 53.0688C59.6418 53.1142 60.1304 52.5589 60.2318 51.5737Z" fill="black"/>
<path d="M51.547 54.7055C51.3441 56.2406 50.0065 57.6288 48.8933 57.458C47.3742 57.2257 45.9939 55.9389 46.1087 54.863C46.2903 53.1223 47.521 51.9183 48.9093 52.1212C50.5405 52.3588 51.7072 53.5014 51.5497 54.7055H51.547Z" fill="black"/>
</svg>
