<svg width="111" height="113" viewBox="0 0 111 113" fill="none" xmlns="http://www.w3.org/2000/svg">
<rect width="111" height="113" fill="#BBF1F2"/>
<path d="M58.91 59.2713C59.3551 61.4856 59.7796 63.6118 60.2478 65.9401C59.5532 65.9401 59.0541 65.9401 58.555 65.9401C51.0943 65.9401 43.6311 65.9401 36.1704 65.9479C35.7434 65.9479 35.2263 65.8469 34.9098 66.0463C34.4956 66.3079 33.9914 66.8232 33.9888 67.2298C33.9888 67.6365 34.4853 68.1751 34.8995 68.416C35.2623 68.6258 35.818 68.5248 36.2862 68.5274C43.8343 68.5325 51.3825 68.5325 58.928 68.5325C59.4297 68.5325 59.9314 68.5325 60.5025 68.5325V70.9825C59.9648 71.0084 59.4709 71.055 58.9744 71.055C50.1836 71.0602 41.3929 71.0576 32.5996 71.0576C32.2137 71.0576 31.7403 70.9204 31.4599 71.0965C30.948 71.4202 30.2714 71.8708 30.171 72.3733C30.0192 73.1347 30.6572 73.5905 31.4702 73.606C31.7712 73.6112 32.0696 73.6112 32.3706 73.6112C38.4601 73.6112 44.5495 73.6112 50.639 73.6112C51.0995 73.6112 51.56 73.6112 51.969 73.6112C51.3439 75.2946 50.7393 76.9158 50.0601 78.7443C49.8646 78.7443 49.4479 78.7443 49.0311 78.7443C41.7402 78.7443 34.4493 78.7443 27.161 78.7443C25.2573 78.7443 25 78.4904 25 76.5766C25.0026 60.1233 25.0026 43.6701 25.0026 27.2169C25.0051 25.2201 25.2341 25 27.2433 25C40.9658 25 54.6883 25 68.4134 25C70.5564 25 70.7391 25.1916 70.7416 27.3904C70.7416 30.7986 70.7416 34.2069 70.7416 37.8352C67.9092 37.5995 65.3365 38.2522 62.8976 39.7517C60.1552 34.5099 56.0415 31.2078 50.2479 30.3118C45.7484 29.6151 41.6476 30.7391 37.9944 33.4558C30.8733 38.752 29.2629 48.7591 34.2898 56.223C38.8485 62.9929 49.5842 66.7637 58.91 59.2687V59.2713Z" fill="black"/>
<path d="M69.4824 65.9346C67.5992 65.9346 65.7135 65.9113 63.8303 65.945C63.1202 65.9579 62.7729 65.7637 62.6263 64.9893C61.7747 60.4571 60.738 55.9586 60.0125 51.4082C59.377 47.4225 60.9 44.1567 64.2496 41.9579C67.5066 39.8187 71.008 39.7488 74.3447 41.7378C77.7303 43.7552 79.5028 46.92 78.9549 50.8695C78.286 55.6866 77.2055 60.4467 76.233 65.2172C76.1713 65.5202 75.523 65.8932 75.1371 65.9061C73.2565 65.9786 71.3707 65.9372 69.485 65.9372L69.4824 65.9346ZM73.2616 49.3104C73.2565 47.1609 71.5276 45.449 69.3975 45.4853C67.3368 45.5215 65.6749 47.2334 65.6774 49.3234C65.6774 51.4755 67.396 53.1693 69.5416 53.133C71.6408 53.0968 73.2667 51.4289 73.2616 49.3104Z" fill="black"/>
<path d="M69.5249 83.89C64.6806 83.89 59.8364 83.8952 54.9921 83.89C53.2787 83.89 52.9545 83.5559 52.9442 81.8596C52.9365 80.7796 52.9108 79.6996 52.9545 78.6223C53.0652 75.8693 55.167 73.6576 57.9017 73.6394C65.6171 73.585 73.335 73.585 81.0504 73.6394C83.744 73.6601 85.8046 75.7838 85.9616 78.5057C86.0285 79.6686 85.9976 80.8366 85.9847 82.002C85.9667 83.5404 85.622 83.8874 84.0604 83.89C79.2161 83.9003 74.3718 83.8926 69.5275 83.8926L69.5249 83.89Z" fill="black"/>
<path d="M82.065 86.5088C82.3506 88.5263 81.9853 88.9924 80.1458 88.995C73.035 89.0002 65.9217 89.0002 58.8109 88.995C56.9354 88.995 56.6267 88.5988 56.8788 86.5088H82.065Z" fill="black"/>
<path d="M63.2109 70.9462V68.6309H75.7706V70.9462H63.2109Z" fill="black"/>
<path d="M49.1895 45.3766V41.6627C50.6018 41.6627 51.955 41.6394 53.3057 41.6886C53.5038 41.6964 53.8202 42.0305 53.8562 42.2506C54.0183 43.2607 54.1006 44.2862 54.219 45.3792H49.1895V45.3766Z" fill="black"/>
<path d="M46.5049 45.3921H41.5371C41.6555 44.2862 41.7172 43.2632 41.9076 42.2661C41.9539 42.0201 42.4041 41.6938 42.6845 41.6783C43.9168 41.6135 45.1568 41.6498 46.5049 41.6498V45.3921Z" fill="black"/>
<path d="M49.2051 51.8695V48.166H54.2114C54.0931 49.2486 54.0082 50.3 53.841 51.3412C53.8075 51.5458 53.4525 51.8384 53.239 51.8462C51.9244 51.8928 50.6046 51.8695 49.2051 51.8695Z" fill="black"/>
<path d="M34.1872 45.4003C34.0972 45.2294 34.0586 45.1906 34.0586 45.1543C34.2001 41.7383 35.2369 41.0598 39.3145 41.8264C39.2065 42.9892 39.0958 44.165 38.9801 45.4003H34.1872Z" fill="black"/>
<path d="M46.5447 51.875C45.1735 51.875 43.8975 51.9112 42.6266 51.8439C42.3616 51.8309 41.9423 51.4632 41.8934 51.2016C41.7081 50.2382 41.6515 49.2515 41.5332 48.1611H46.5473V51.875H46.5447Z" fill="black"/>
<path d="M33.9004 48.127H38.9685C39.0894 49.3545 39.2026 50.5277 39.3338 51.8693C37.9266 51.8693 36.6531 51.9081 35.39 51.8382C35.1198 51.8226 34.7262 51.4523 34.6362 51.1674C34.3429 50.2351 34.1654 49.2665 33.9004 48.127Z" fill="black"/>
<path d="M42.6406 54.4824H46.5227V60.4753C44.3514 58.9551 43.4459 56.8728 42.6406 54.4824Z" fill="black"/>
<path d="M42.668 39.0449C43.3909 36.6493 44.3711 34.624 46.4883 33.0391V39.0449H42.668Z" fill="black"/>
<path d="M52.922 54.4312C52.6082 56.8035 50.9617 59.3907 49.1325 60.3386C49.1325 58.5102 49.1068 56.7776 49.166 55.045C49.1737 54.8326 49.6368 54.4804 49.9069 54.4597C50.8768 54.3872 51.8569 54.4312 52.922 54.4312Z" fill="black"/>
<path d="M49.1953 39.0238V33.0957C51.4104 34.5978 52.3442 36.6412 53.0363 39.0238H49.1953Z" fill="black"/>
<path d="M53.9102 34.1006C56.277 35.2945 58.0341 36.8096 59.5365 39.0912C58.2991 39.0912 57.3343 39.13 56.3773 39.0653C56.1226 39.0472 55.765 38.7752 55.6621 38.5292C55.0781 37.154 54.5559 35.7529 53.9127 34.1006H53.9102Z" fill="black"/>
<path d="M41.8175 59.3956C39.4661 58.2638 37.7579 56.7099 36.168 54.4386C37.462 54.4386 38.4551 54.4179 39.4455 54.4568C39.6488 54.4645 39.9472 54.6588 40.0218 54.8426C40.6186 56.2852 41.1718 57.7458 41.8149 59.3956H41.8175Z" fill="black"/>
<path d="M54 59.1861C54.5557 57.7695 55.0599 56.3269 55.7082 54.9569C55.8523 54.6539 56.5058 54.4933 56.938 54.4622C57.2904 54.4363 57.931 54.6358 57.9773 54.8429C58.0956 55.3687 58.1728 56.1845 57.8744 56.4745C56.7579 57.5597 55.4818 58.4791 54.2676 59.4632C54.1775 59.3726 54.09 59.2819 54 59.1887V59.1861Z" fill="black"/>
<path d="M56.4141 41.7275H60.3219C59.6273 42.9163 59.015 44.1102 58.2458 45.1876C58.04 45.475 57.3557 45.4155 56.7742 45.5398C56.643 44.1594 56.5324 42.9914 56.4141 41.7275Z" fill="black"/>
<path d="M57.328 48.0186V51.9033C57.0193 51.8023 56.6386 51.7971 56.4971 51.6081C56.2012 51.2118 56.8161 48.4666 57.328 48.0186Z" fill="black"/>
<path d="M69.4881 51.1161C68.881 50.2899 68.3253 49.8574 68.2532 49.3576C68.1426 48.5755 68.7523 47.9617 69.5164 48.1378C69.9872 48.2466 70.5969 48.8992 70.6432 49.3576C70.687 49.7875 70.0695 50.2822 69.4855 51.1161H69.4881Z" fill="black"/>
</svg>
