<svg width="111" height="113" viewBox="0 0 111 113" fill="none" xmlns="http://www.w3.org/2000/svg">
<rect width="111" height="113" fill="#BBF1F2"/>
<path d="M65.3764 70.3625C63.0645 69.371 61.2483 68.2698 59.2891 67.836C57.287 67.3927 56.0142 66.7634 55.1466 64.6946C53.2494 60.1708 49.4358 58.7264 46.3707 61.2386C45.2076 62.192 44.3162 63.684 43.7584 65.1141C43.0768 66.854 41.8612 67.3355 40.2643 67.7788C38.1525 68.3651 36.1361 69.2852 34.0577 70.0717C34.0959 69.9382 34.1197 69.185 34.4915 68.6941C38.2765 63.6888 37.2802 60.6332 31.312 59.1507C29.4481 58.6883 28.1897 55.4372 29.5959 54.2074C32.0127 52.0909 34.6393 50.1984 37.3136 48.4108C37.8665 48.0438 39.2585 48.2535 39.84 48.7254C45.5985 53.3636 53.5592 53.3636 59.1747 48.7111C59.6752 48.2964 60.9336 48.1868 61.458 48.5252C63.9654 50.146 66.53 51.7667 68.7085 53.7831C71.0586 55.9568 70.0432 58.5834 66.8637 59.246C62.4638 60.1613 61.0051 64.5611 63.9177 67.9981C64.5231 68.7084 64.9188 69.5998 65.3812 70.3625H65.3764Z" fill="black"/>
<path d="M49.5265 25.0005C56.205 24.9432 61.563 30.3251 61.5773 37.1084C61.5964 43.887 56.3194 49.2974 49.6362 49.3642C43.0673 49.4309 37.4471 43.9251 37.3566 37.342C37.266 30.6111 42.7432 25.0624 49.5265 25.0005Z" fill="black"/>
<path d="M40.5933 84.9636C42.8338 81.1262 40.5742 78.2041 37.4948 75.2534C35.7835 73.6135 36.8274 71.273 39.1442 70.8106C40.3788 70.5627 41.6754 70.5198 42.8528 70.1194C43.7204 69.8238 44.6643 69.2518 45.1695 68.5272C45.9704 67.3736 46.3565 65.9388 47.0668 64.7042C48.3729 62.4256 50.9661 62.2206 51.848 64.5993C53.3829 68.7179 55.8999 70.6962 60.3045 70.9488C62.4163 71.0728 63.2838 73.7089 61.6393 75.0961C58.1546 78.0468 57.2442 81.3407 58.3119 85.7168C58.8649 87.981 56.634 89.5827 54.7177 88.3195C51.1377 85.9503 48.044 85.8216 44.4354 88.2861C42.5096 89.6018 40.5266 87.9667 40.5885 84.9588L40.5933 84.9636Z" fill="black"/>
<path d="M67.8801 71.1585C68.9193 69.1707 67.7847 67.6977 66.1449 66.1342C64.3907 64.4658 65.1963 62.3493 67.637 62.0823C69.7058 61.8583 71.1168 61.1861 71.8938 59.0887C72.1751 58.326 73.3954 57.3678 74.0914 57.4393C74.959 57.5251 76.1269 58.4261 76.4605 59.2603C77.2232 61.1432 78.4722 61.8297 80.3599 62.0966C81.2418 62.2205 82.4669 62.8641 82.7386 63.5791C83.0103 64.2942 82.5717 65.7338 81.9473 66.2534C80.174 67.7216 79.8451 69.2804 80.3837 71.4588C80.9128 73.6135 79.0442 75.0674 77.0993 73.9948C75.04 72.8603 73.3477 72.7364 71.2503 73.9472C69.2625 75.0912 67.7228 73.8232 67.8801 71.1633V71.1585Z" fill="black"/>
<path d="M18.6659 71.2967C19.6718 69.2851 18.6755 67.7025 16.926 66.0817C15.229 64.5086 15.9774 62.3349 18.2512 62.1204C20.5537 61.9059 21.8741 60.9573 22.8465 58.836C23.8762 56.5956 26.15 56.6385 27.1177 58.9075C28.0139 61.0002 29.2819 61.8964 31.5176 62.1109C34.0107 62.3492 34.7448 64.4562 32.8571 66.1294C31.0647 67.7215 30.7644 69.3137 31.1839 71.5303C31.6177 73.8184 29.8587 75.1198 27.8327 73.9471C25.7258 72.7268 24.0335 72.8651 21.9694 73.9853C20.015 75.0483 18.5897 73.8947 18.6612 71.292L18.6659 71.2967Z" fill="black"/>
<path d="M81.6468 54.4934C82.7956 52.5151 81.6182 51.004 80.088 49.3832C78.8486 48.0675 79.5017 46.3133 81.3035 45.951C83.2055 45.5697 84.5451 44.9452 85.365 42.9479C86.1992 40.9076 88.4063 40.9553 89.3072 43.0003C90.0651 44.7164 91.1568 45.5029 92.9158 45.87C95.2945 46.3705 95.857 48.0675 94.1885 49.8027C92.9301 51.1088 92.2389 52.3053 92.8061 54.2026C93.0159 54.9176 92.5821 56.2047 91.9957 56.6575C91.4476 57.0818 90.1128 57.0723 89.474 56.6814C87.9105 55.728 86.6568 55.8567 85.1028 56.729C83.2818 57.7492 81.6754 56.7338 81.6468 54.4886V54.4934Z" fill="black"/>
<path d="M33.6096 74.7623C35.0731 76.6262 36.5556 78.5139 38.2431 80.6685C34.3104 80.6685 30.6208 80.7877 26.9455 80.5827C26.0493 80.5303 25.0196 79.5483 24.419 78.7236C24.009 78.1611 24.2426 77.1315 24.1854 76.3116C24.8957 76.3831 25.6727 76.2973 26.3115 76.5547C29.5434 77.8513 31.1261 77.4652 33.6096 74.7623Z" fill="black"/>
<path d="M60.7334 80.6876C62.4686 78.5759 63.9082 76.8264 65.4622 74.934C67.6597 77.5176 70.477 77.9085 73.6899 76.1448C73.8996 76.0304 75.1486 77.0028 75.12 77.4128C74.9817 79.2766 73.8043 80.5685 71.95 80.6447C68.3414 80.7973 64.7233 80.6876 60.7334 80.6876Z" fill="black"/>
</svg>
