<svg width="111" height="113" viewBox="0 0 111 113" fill="none" xmlns="http://www.w3.org/2000/svg">
<rect width="111" height="113" fill="#BBF1F2"/>
<path d="M50.2648 75.1871V65.3914H36.8114C36.8114 66.5866 36.8014 67.7439 36.8154 68.8991C36.8274 69.8325 36.5775 70.642 35.6681 71.0418C34.7707 71.4355 34.0212 71.1057 33.3096 70.4761C30.1936 67.7159 27.0477 64.9916 23.9217 62.2434C22.6925 61.1621 22.6885 60.0608 23.9357 58.9635C27.1096 56.1693 30.3016 53.3951 33.4795 50.6069C34.1391 50.0272 34.8507 49.7914 35.6781 50.1771C36.4996 50.5589 36.8034 51.2664 36.8094 52.1279C36.8174 53.3551 36.8114 54.5803 36.8114 55.8715H73.2221C73.2221 54.7382 73.24 53.6489 73.2161 52.5596C73.1961 51.5762 73.336 50.6768 74.3273 50.1911C75.3387 49.6954 76.0902 50.1911 76.8357 50.8467C79.8558 53.513 82.9038 56.1493 85.9299 58.8096C87.4129 60.1128 87.399 61.1361 85.9159 62.4313C82.8579 65.1056 79.7898 67.7699 76.7498 70.4621C76.0422 71.0877 75.2967 71.4435 74.3933 71.0597C73.4339 70.652 73.2021 69.8025 73.2181 68.8352C73.238 67.7099 73.2221 66.5826 73.2221 65.3894H59.7607V75.1911C60.9719 75.1911 62.1312 75.2031 63.2884 75.1871C64.2198 75.1731 65.0293 75.407 65.445 76.3124C65.8588 77.2118 65.531 77.9593 64.9014 78.6709C62.1891 81.7389 59.5068 84.8349 56.8046 87.9129C55.5374 89.356 54.5041 89.362 53.2509 87.9329C50.5266 84.8309 47.8223 81.7109 45.0881 78.6169C44.4805 77.9293 44.1967 77.1998 44.5764 76.3384C44.9582 75.4709 45.7157 75.1851 46.6171 75.1891C47.8123 75.1931 49.0076 75.1891 50.2668 75.1891L50.2648 75.1871Z" fill="black"/>
<path d="M47.8983 39.2902C51.9178 43.5075 58.0598 43.5554 62.1332 39.2902C64.2898 40.7132 65.8148 42.65 66.4225 45.1544C66.7702 46.5855 66.7862 48.1125 66.8222 49.5996C66.8442 50.5489 66.0427 51.1865 65.0114 51.1965C63.1126 51.2165 61.2118 51.2025 59.313 51.2025C54.8479 51.2025 50.3807 51.2025 45.9156 51.2025C43.5731 51.2025 43.1933 50.7808 43.1614 48.3963C43.1134 44.8586 44.4905 42.0064 47.2008 39.7739C47.4046 39.606 47.6345 39.472 47.8983 39.2902Z" fill="black"/>
<path d="M60.6144 32.1647C60.8243 34.3673 60.2027 36.4519 58.0561 37.8351C56.2252 39.0123 54.2865 39.1042 52.3737 38.0669C50.5089 37.0556 49.4256 35.4506 49.4416 33.304C49.4536 31.691 49.4216 29.9981 49.8893 28.487C50.6608 25.9946 53.425 24.6175 55.9774 25.0932C58.6557 25.5909 60.5445 27.7695 60.6124 30.4458C60.6244 30.9455 60.6124 31.4451 60.6124 32.1667L60.6144 32.1647Z" fill="black"/>
</svg>
