<svg width="111" height="113" viewBox="0 0 111 113" fill="none" xmlns="http://www.w3.org/2000/svg">
<rect width="111" height="113" fill="#BBF1F2"/>
<path d="M65.8638 64.9595C73.7931 62.6261 75.7852 55.3881 79.5489 49.0835C79.6699 49.857 79.7823 50.2416 79.7823 50.6262C79.7866 62.2328 79.7347 73.8395 79.8212 85.4504C79.8341 87.4857 79.1687 88.0128 77.2155 87.9999C65.1811 87.9221 53.151 87.9178 41.1166 87.9999C39.0986 88.0128 38.5627 87.369 38.5714 85.4072C38.6405 69.043 38.6405 52.6744 38.5714 36.3102C38.5627 34.2577 39.1331 33.5792 41.2462 33.6008C51.6213 33.7002 61.9964 33.6441 72.3715 33.6441C72.9419 33.6441 73.5166 33.6441 74.7395 33.6441C73.3481 36.1244 72.2202 38.3066 70.8936 40.3548C70.6344 40.7524 69.58 40.7394 68.8929 40.7437C61.6896 40.7696 54.4819 40.7351 47.2785 40.7999C46.5223 40.8085 45.442 41.111 45.0877 41.6512C44.2796 42.887 45.2044 44.0537 46.9026 44.058C53.3152 44.084 59.7278 44.071 66.1404 44.071C66.9139 44.071 67.6873 44.071 69.0096 44.071C67.9682 45.9377 67.2423 47.4674 66.283 48.8286C65.9848 49.2521 65.0471 49.3774 64.3989 49.3817C58.8506 49.4206 53.3022 49.3817 47.7538 49.4249C46.5828 49.4336 44.9494 48.8588 44.9278 51.0237C44.9062 53.3053 46.6174 52.7522 47.8705 52.7652C52.4812 52.8127 57.0919 52.7825 61.7069 52.7825C62.4026 52.7825 63.1026 52.7825 63.8631 52.7825C63.3662 54.593 62.9341 56.1573 62.3982 58.1018C61.1538 58.1018 59.6759 58.1018 58.2024 58.1018C54.456 58.1018 50.7095 58.1104 46.9631 58.0975C45.8785 58.0932 44.9537 58.1191 44.9105 59.6142C44.8673 61.2303 45.8439 61.2778 47.0236 61.2692C52.2003 61.2476 57.3771 61.2606 62.5106 61.2606C62.6575 61.6322 62.7742 61.8223 62.8044 62.0211C63.3446 65.7027 63.2841 65.7675 59.5852 65.7675C55.4801 65.7675 51.3707 65.7675 47.2656 65.7675C46.0945 65.7675 44.8803 65.6033 44.9062 67.4096C44.9278 69.0819 46.06 68.9522 47.1532 68.9522C55.1517 68.9522 63.1501 68.9522 71.1486 68.9565C72.3585 68.9565 73.4863 69.0257 73.4302 67.2367C73.374 65.4953 72.1814 65.7891 71.1443 65.7762C69.5368 65.7502 67.9337 65.7675 66.3262 65.7675C66.1706 65.4996 66.0151 65.2317 65.8595 64.9638L65.8638 64.9595ZM66.7669 78.96C68.3528 78.96 69.9343 78.9211 71.5202 78.973C72.7474 79.0119 73.3956 78.6446 73.3783 77.2705C73.3653 75.9611 72.6869 75.7278 71.5937 75.7364C68.3528 75.7667 65.1119 75.771 61.8754 75.7364C60.7432 75.7235 60.0951 76.0519 60.1037 77.305C60.1124 78.4761 60.5963 79.0076 61.7976 78.973C63.4526 78.9255 65.1076 78.96 66.7669 78.9643V78.96Z" fill="black"/>
<path d="M35.5988 61.6755V80.5676C31.3857 80.5676 27.3065 80.5935 23.2273 80.52C22.847 80.5114 22.3155 79.9323 22.1427 79.5045C21.9439 78.999 22.0433 78.3724 22.0433 77.7934C22.0433 61.589 22.0779 45.3804 22.0001 29.1717C21.9915 27.0327 22.5273 26.337 24.7656 26.3586C36.5019 26.471 48.2382 26.4105 59.9744 26.4105C63.5696 26.4105 63.6561 26.5228 62.9776 30.5847C62.1955 30.5847 61.3572 30.5847 60.5232 30.5847C53.7563 30.5847 46.985 30.6063 40.2181 30.5718C38.5069 30.5631 37.163 31.0298 36.1735 32.5422C35.8581 33.0219 35.0673 33.3892 34.4623 33.441C32.9629 33.5707 31.4202 33.3416 29.9424 33.562C29.3634 33.6484 28.4862 34.5559 28.5034 35.0614C28.5207 35.6189 29.3461 36.4961 29.9424 36.6127C31.1912 36.8591 32.5264 36.7769 33.8141 36.6819C35.3654 36.5695 35.776 37.235 35.7673 38.7042C35.7457 42.0833 35.8148 42.0833 32.4011 42.0877C31.5369 42.0877 30.5906 41.8802 29.8344 42.1741C29.2294 42.4074 28.5769 43.2155 28.4948 43.842C28.4386 44.2612 29.2856 45.1513 29.8214 45.2335C31.1566 45.4409 32.5524 45.389 33.9135 45.2896C35.3482 45.1859 35.8667 45.7477 35.7543 47.152C35.6679 48.2064 35.7371 49.2737 35.7371 50.6565C33.8012 50.6565 32.0943 50.6695 30.3918 50.6565C29.2596 50.6479 28.4127 50.8898 28.3825 52.2856C28.3479 53.8109 29.2424 54.0659 30.4739 54.04C32.1159 54.0097 33.758 54.0313 35.5124 54.0313C35.6074 54.7141 35.6636 55.1894 35.7414 55.6647C36.0611 57.6697 35.3568 58.629 33.1962 58.3395C32.2067 58.2056 31.1264 58.1148 30.193 58.3827C29.5016 58.5815 28.6374 59.2988 28.4646 59.9513C28.1361 61.1958 28.9831 61.723 30.2362 61.6927C31.9517 61.6495 33.6715 61.6798 35.5988 61.6798V61.6755Z" fill="black"/>
<path d="M65.5873 61.3987C65.9503 58.9313 65.7429 56.6843 66.6158 54.9991C70.7209 47.0827 75.1198 39.3219 79.4237 31.5093C79.5922 31.2068 79.8471 30.9518 80.128 30.5889C81.6188 31.4142 83.0491 32.205 84.7517 33.1513C83.5677 35.3162 82.4485 37.3688 81.325 39.4213C78.2137 45.0993 75.1068 50.7773 71.9826 56.4467C70.4875 59.1647 69.5455 59.9252 65.583 61.403L65.5873 61.3987Z" fill="black"/>
<path d="M81.5156 26.9981C82.5959 25.9437 83.5423 24.3146 84.7997 24.0208C85.6942 23.8134 87.5998 25.2005 87.9585 26.2505C88.2739 27.1752 86.943 29.6858 86.5541 29.6426C84.9164 29.4568 83.3564 28.571 81.7706 27.9401C81.6885 27.6246 81.6021 27.3092 81.52 26.9938L81.5156 26.9981Z" fill="black"/>
</svg>
