<svg width="111" height="113" viewBox="0 0 111 113" fill="none" xmlns="http://www.w3.org/2000/svg">
<rect width="111" height="113" fill="#BBF1F2"/>
<path d="M55.5918 28.2942C61.3705 28.2942 67.1467 28.2942 72.9254 28.2942C74.551 28.2942 75.0233 28.7213 75.0509 30.3594C75.2545 43.3138 71.835 55.0495 63.3428 65.0718C62.8026 65.7099 62.1946 66.2878 61.6343 66.9109C61.0087 67.6069 60.0314 68.0666 60.3882 69.3656C60.4861 69.7224 59.848 70.3329 59.4736 70.7625C58.755 71.5891 58.2324 72.2675 59.4259 73.2298C60.4359 74.0463 60.4334 75.8779 59.8203 77.207C59.6068 77.6668 59.5389 78.3276 59.6947 78.7999C60.3957 80.9079 61.9132 82.35 63.6569 83.6741C64.7146 84.4781 65.7096 85.5384 66.3352 86.6966C67.1191 88.1463 66.4407 88.9855 64.7624 88.9905C58.6068 89.0031 52.4538 89.0031 46.2982 88.9905C44.6199 88.988 43.9415 88.1463 44.7254 86.6966C45.351 85.5384 46.3459 84.4781 47.4037 83.6741C49.1825 82.3224 50.7126 80.8451 51.4086 78.6818C51.5392 78.2723 51.4965 77.6995 51.3081 77.3125C50.494 75.6568 50.6473 74.1418 51.999 72.8805C52.7402 72.1871 52.2904 71.6595 51.9035 71.1494C51.2704 70.3128 50.19 69.7098 50.7327 68.3581C50.7855 68.2274 50.4362 67.9008 50.2327 67.7048C43.0822 60.7252 38.7934 52.218 37.0774 42.452C36.4141 38.6833 36.2584 34.8191 36.0272 30.9876C35.8815 28.5856 36.2885 28.2942 38.6377 28.2942C44.2907 28.2942 49.9413 28.2942 55.5944 28.2942H55.5918ZM48.9865 40.4194C48.9865 40.3943 48.984 40.3691 48.9815 40.344C47.9765 40.344 46.969 40.2963 45.9691 40.3691C45.6198 40.3943 45.2932 40.7159 44.9565 40.9018C45.145 41.1983 45.2681 41.5801 45.5319 41.7786C47.0344 42.9092 48.5519 44.0223 50.1046 45.085C50.7428 45.5222 50.989 45.889 50.6724 46.7131C49.9991 48.4618 49.4539 50.2633 48.9187 52.0622C48.8182 52.4014 48.9991 52.826 49.0494 53.2129C49.4187 53.1275 49.8559 53.14 50.1423 52.9416C51.6875 51.8687 53.215 50.7683 54.7049 49.6175C55.2954 49.1628 55.7024 49.1025 56.3255 49.5924C57.8028 50.7532 59.3405 51.8436 60.8831 52.9189C61.1796 53.125 61.6117 53.14 61.9811 53.243C62.0388 52.8235 62.2373 52.3612 62.1268 51.9918C61.6293 50.3135 61.0942 48.6427 60.4736 47.0046C60.1243 46.0825 60.2173 45.5222 61.1117 44.9569C62.5941 44.0198 63.991 42.9469 65.3829 41.8791C65.697 41.6379 65.8503 41.1907 66.0789 40.8365C65.687 40.6706 65.2975 40.3742 64.9006 40.3616C63.0187 40.3113 61.1344 40.3063 59.2525 40.3616C58.5264 40.3817 58.2199 40.1154 58.0239 39.4471C57.5541 37.8466 57.0491 36.2562 56.4838 34.6884C56.2903 34.1483 55.8757 33.6885 55.5617 33.191C55.2351 33.6684 54.8356 34.1131 54.6019 34.6332C54.2954 35.3115 54.122 36.0527 53.8834 36.7637C53.4964 37.9069 53.4211 39.4923 52.6221 40.0676C51.7679 40.6807 50.2277 40.3415 48.9891 40.4169L48.9865 40.4194Z" fill="black"/>
<path d="M34.0597 37.4999C33.1602 36.5502 32.3336 35.6909 31.5246 34.8191C30.8437 34.0829 30.2156 33.2965 29.5046 32.593C28.8564 31.9498 28.0599 31.5453 27.1202 31.9096C26.1429 32.2865 25.8037 33.1307 25.7133 34.098C25.4796 36.613 26.1102 38.9873 26.9293 41.3239C28.992 47.2106 32.6552 52.0521 37.4189 55.9012C40.7906 58.6248 42.9991 62.1397 45.406 65.6597C44.2402 64.9788 43.0543 64.3331 41.9137 63.6145C34.5069 58.9564 28.2081 53.1978 24.0676 45.3589C21.6707 40.8264 20.422 36.0226 21.2612 30.8594C21.6682 28.3595 22.6531 26.1963 25.2962 25.2943C27.379 24.5858 29.2106 25.2039 30.7156 26.641C31.8563 27.7314 32.811 29.0178 33.8185 30.2439C33.9843 30.4449 34.0471 30.779 34.0496 31.0529C34.0672 33.098 34.0597 35.1457 34.0597 37.4999Z" fill="black"/>
<path d="M76.9955 37.3114C76.9955 35.108 76.9955 32.99 76.9955 30.8745C76.9955 30.7514 76.9855 30.5906 77.0558 30.5102C78.704 28.6032 79.9024 26.2214 82.5003 25.3169C85.058 24.425 87.7213 25.5757 88.9649 28.1761C90.1408 30.6358 90.2086 33.2638 89.9322 35.912C89.2338 42.5952 85.9751 48.0724 81.719 53.037C77.3422 58.1449 72.0434 62.1196 66.1718 65.3607C66.0009 65.4562 65.815 65.524 65.5537 65.524C67.9556 62.9035 69.247 59.5117 72.1691 57.2052C77.5181 52.9817 81.9049 47.8689 84.1058 41.2661C84.8068 39.1606 85.0606 36.8868 85.352 34.6683C85.5027 33.5226 85.1636 32.3518 83.8872 31.8971C82.6611 31.4599 81.8119 32.2538 81.0557 33.0528C79.9075 34.2663 78.812 35.5301 77.6814 36.7612C77.488 36.9723 77.2342 37.123 76.9955 37.3114Z" fill="black"/>
</svg>
