<svg width="78" height="78" viewBox="0 0 78 78" fill="none" xmlns="http://www.w3.org/2000/svg">
<circle cx="39" cy="39" r="39" fill="#37D7D9"/>
<path d="M36.6157 42.1485C36.6157 41.0732 36.4646 39.9692 36.6444 38.9227C37.263 35.2619 32.6132 31.4644 29.2076 31.4176C28.6574 31.4104 27.8591 31.1551 27.744 32.0182C27.5067 33.8234 26.6616 33.0395 25.8237 32.5576C24.1659 31.6046 22.4973 30.6696 20.825 29.7418C19.9512 29.2563 19.5628 28.796 20.7208 28.1559C22.6555 27.0843 24.5686 25.9767 26.4854 24.8726C27.201 24.4591 27.7512 24.3476 27.7296 25.4552C27.7152 26.2787 28.2043 26.4334 28.8912 26.4298C31.0381 26.4118 33.0339 27.0447 34.8895 28.048C36.2704 28.796 36.5437 28.271 36.4862 26.9764C36.4323 25.7825 36.4502 24.585 36.479 23.3874C36.5042 22.2547 36.5689 21.183 34.9039 21.2513C34.1775 21.2801 34.2135 20.7551 34.5011 20.2516C35.9863 17.6588 37.4715 15.066 38.9675 12.4768C39.3667 11.7899 39.7982 11.8834 40.1615 12.5127C41.6574 15.0984 43.1427 17.6912 44.6422 20.2768C45.1529 21.1578 44.6566 21.3484 43.923 21.2981C42.6716 21.2118 42.4342 21.8951 42.4486 22.9667C42.4918 26.1349 42.5241 29.3067 42.4594 32.4749C42.427 34.0967 43.0024 34.1758 44.2503 33.4998C45.8398 32.6367 47.5515 32.1189 49.3676 31.9606C50.2918 31.8779 51.3167 32.0146 51.2879 30.5078C51.2735 29.7166 51.9388 30.0331 52.3452 30.2668C54.3662 31.4248 56.38 32.5971 58.3903 33.7695C59.0448 34.1507 59.3145 34.5247 58.437 35.0173C56.4088 36.1609 54.4093 37.3584 52.3847 38.5164C51.8057 38.8472 51.2052 39.0558 51.216 38.0057C51.2268 36.9413 50.5435 36.9269 49.7595 36.9664C46.4942 37.1319 41.9272 40.5374 42.4594 44.5902C42.7507 46.8234 42.5277 49.1286 42.5025 51.4013C42.4953 52.0522 42.445 52.7211 42.2724 53.3432C42.0027 54.325 41.3805 55.2276 40.2909 55.0478C39.248 54.8716 39.6328 53.7784 39.6508 53.0771C39.7012 51.0885 39.1761 49.3983 37.4284 48.2835C36.7775 47.8699 36.6193 47.3269 36.6301 46.6185C36.6552 45.1225 36.6372 43.6265 36.6372 42.1341C36.6301 42.1341 36.6265 42.1341 36.6193 42.1341L36.6157 42.1485Z" fill="white"/>
<path d="M38.6258 57.2703C38.6258 58.8238 38.6437 60.3773 38.615 61.9344C38.6078 62.3983 38.5431 62.8946 38.3633 63.3154C38.1691 63.7757 37.698 64.0598 37.1981 64.0166C36.4861 63.9555 36.6731 63.3297 36.6659 62.8946C36.6443 60.683 36.6587 58.4714 36.6479 56.2597C36.6479 55.803 36.7702 55.109 36.148 55.1018C35.5043 55.0946 35.6446 55.7994 35.641 56.2454C35.623 59.0539 35.5547 61.8661 35.6554 64.6711C35.7057 66.0628 35.2058 66.408 33.9004 66.3505C31.6924 66.2498 29.4736 66.2246 27.2692 66.3505C25.73 66.4368 25.1475 66.0448 25.2374 64.3942C25.3812 61.7726 25.2949 59.1367 25.2553 56.5043C25.2482 55.9864 25.5934 55.073 24.7267 55.0766C24.0578 55.0802 24.288 55.9325 24.2808 56.4324C24.2592 58.5253 24.288 60.6183 24.2556 62.7076C24.2484 63.2255 24.5577 64.0346 23.5795 64.0562C22.8351 64.0742 22.3497 63.6174 22.1483 62.9234C22.0512 62.5853 22.0476 62.2149 22.044 61.8589C22.0368 58.8705 22.0152 55.8822 22.0476 52.8938C22.08 50.2146 23.7018 48.5173 26.3881 48.4454C29.1356 48.3698 31.8902 48.3626 34.6341 48.4454C37.0722 48.5173 38.5646 50.1355 38.615 52.6025C38.6473 54.156 38.6222 55.7095 38.6186 57.2667L38.6258 57.2703Z" fill="white"/>
<path d="M30.5998 34.9814C32.9157 34.7621 35.1057 37.5671 35.0374 40.1455C34.9547 43.1555 32.9372 45.5181 30.3624 45.4462C27.8271 45.3743 25.9104 43.0332 25.8888 40.1275C25.8672 37.2434 28.2587 34.5607 30.5998 34.9778V34.9814Z" fill="white"/>
</svg>
