<svg width="78" height="78" viewBox="0 0 78 78" fill="none" xmlns="http://www.w3.org/2000/svg">
<circle cx="39" cy="39" r="39" fill="#37D7D9"/>
<path d="M39.0186 36.7342C43.8102 36.539 48.5203 37.2003 53.1755 38.3029C53.6343 38.4109 54.1577 38.7576 54.4137 39.1498C60.5023 48.4995 56.2321 61.6479 45.824 65.6777C36.7318 69.1978 26.9209 65.5129 22.6431 56.7504C19.7306 50.7844 20.161 44.8297 23.595 39.1346C23.8206 38.7614 24.3174 38.426 24.7479 38.3237C29.4315 37.2003 34.1738 36.5447 39.0167 36.7361L39.0186 36.7342ZM37.8676 42.1015C37.3556 42.1015 36.984 42.0958 36.6123 42.1015C34.3103 42.1375 32.8237 43.6248 32.8067 45.904C32.801 46.6296 32.7991 47.3552 32.8067 48.0808C32.8351 50.4813 34.3179 51.9609 36.7261 51.9818C38.2734 51.995 39.8206 51.9723 41.3679 51.9912C42.4393 52.0045 42.9209 52.4857 42.9588 53.5562C42.9835 54.2818 42.9835 55.0074 42.9588 55.733C42.9247 56.8338 42.4203 57.3264 41.2997 57.3415C40.0046 57.3586 38.7095 57.3472 37.4144 57.3472C35.4006 57.3472 35.3551 57.3112 35.0062 55.3257C34.8906 54.6702 34.4696 54.2022 33.8553 54.3538C33.4495 54.4542 32.9185 54.9657 32.8503 55.3636C32.4672 57.5803 34.115 59.4976 36.3734 59.5828C36.8361 59.5999 37.2987 59.5847 37.8581 59.5847C37.8581 60.227 37.8543 60.7594 37.8581 61.2898C37.8657 62.0515 38.1729 62.6255 38.9958 62.6255C39.8188 62.6255 40.1259 62.0477 40.1354 61.2898C40.143 60.7385 40.1354 60.1872 40.1354 59.5885C40.6777 59.5885 41.0551 59.5942 41.4305 59.5885C43.6832 59.5487 45.1451 58.0823 45.1774 55.8221C45.1868 55.1287 45.1812 54.4334 45.1774 53.7399C45.166 51.1955 43.7211 49.7386 41.1973 49.7291C39.777 49.7234 38.3549 49.7329 36.9347 49.7253C35.5144 49.7196 35.0404 49.2612 35.0271 47.88C35.0214 47.2813 35.0176 46.6807 35.0271 46.082C35.0498 44.8563 35.5277 44.358 36.7545 44.3352C38.0496 44.3125 39.3447 44.3277 40.6379 44.3296C42.4981 44.3296 42.6877 44.4906 42.9778 46.3454C43.0802 47.0047 43.4822 47.484 44.1022 47.3457C44.5099 47.2567 45.0541 46.7527 45.1262 46.3587C45.5376 44.1515 43.8974 42.2057 41.6448 42.1091C41.1802 42.0883 40.7119 42.1053 40.1259 42.1053C40.1259 41.3949 40.1506 40.8018 40.1202 40.2107C40.0842 39.5079 39.6898 39.0778 38.9768 39.0854C38.2639 39.0929 37.8884 39.5344 37.8619 40.2392C37.841 40.8019 37.8581 41.3683 37.8581 42.1034L37.8676 42.1015Z" fill="white"/>
<path d="M39 28.7595C38.7364 28.6781 38.4918 28.6137 38.2567 28.5303C30.7383 25.8476 23.22 23.1686 15.7073 20.4651C15.4304 20.3647 15.2332 20.0445 15 19.8266C15.2617 19.5936 15.4835 19.2563 15.7888 19.1445C20.4155 17.4659 25.0517 15.8139 29.6878 14.1618C32.57 13.133 35.4503 12.0986 38.3458 11.1058C38.7251 10.977 39.2237 10.9581 39.5973 11.0888C46.9488 13.6749 54.2908 16.2913 61.6329 18.9039C61.8414 18.9778 62.0747 19.0233 62.2434 19.1521C62.5184 19.3586 62.7497 19.622 63 19.8626C62.7554 20.0729 62.5449 20.376 62.2605 20.4783C58.1382 21.9732 54.0083 23.4433 49.8784 24.9173C46.5506 26.1071 43.2228 27.2969 39.895 28.4829C39.5992 28.589 39.2939 28.6686 39 28.7576V28.7595ZM48.6326 20.952C50.4643 20.952 52.296 20.9747 54.1278 20.9425C55.1365 20.9254 55.7661 19.9971 55.2105 19.3113C54.9298 18.9646 54.3174 18.7202 53.8528 18.7145C50.3487 18.6652 46.8426 18.6823 43.3366 18.6917C42.8398 18.6917 42.4909 18.6444 42.2064 18.1025C41.4082 16.5755 39.7111 15.8518 38.1315 16.2439C36.5084 16.6475 35.2949 18.2067 35.3157 19.8588C35.3366 21.4654 36.48 22.9337 38.031 23.3448C39.6997 23.7863 41.3759 23.0966 42.2083 21.5374C42.4605 21.0656 42.7336 20.9349 43.2323 20.9425C45.0318 20.969 46.8331 20.9539 48.6326 20.9501V20.952Z" fill="white"/>
<path d="M23.8589 31.0372C23.8589 29.711 23.8513 28.3866 23.8627 27.0604C23.8722 26.0279 24.1016 25.8669 25.0478 26.2041C29.4166 27.7614 33.7779 29.3377 38.158 30.861C38.6473 31.0315 39.2939 31.0561 39.7774 30.8875C44.1879 29.3567 48.5776 27.7671 52.9748 26.1965C53.8243 25.8934 54.122 26.0563 54.1296 26.9335C54.1524 29.6788 54.1296 32.424 54.1467 35.1692C54.1524 36.0445 53.6669 36.0161 53.0184 35.9195C49.8992 35.4534 46.7895 34.8339 43.6513 34.6066C37.519 34.1613 31.4095 34.4796 25.3816 35.8248C23.8931 36.1582 23.8608 36.1127 23.8589 34.6331C23.8589 33.4338 23.8589 32.2345 23.8589 31.0353V31.0372Z" fill="white"/>
<path d="M38.96 18.4361C39.7507 18.4153 40.3613 18.9628 40.4087 19.7377C40.4561 20.5258 39.8303 21.2117 39.0434 21.2363C38.2565 21.2609 37.5947 20.6149 37.5947 19.8192C37.5947 19.0405 38.1693 18.4589 38.96 18.4361Z" fill="white"/>
</svg>
