<svg width="78" height="78" viewBox="0 0 78 78" fill="none" xmlns="http://www.w3.org/2000/svg">
<circle cx="39" cy="39" r="39" fill="#37D7D9"/>
<path d="M46.6287 52.1218C45.5614 52.0694 44.5778 51.9786 43.5961 51.9838C42.2893 51.9891 40.9791 52.0327 39.6794 52.1498C39.4191 52.1725 39.1955 52.597 38.9544 52.8346C39.2304 53.0233 39.5047 53.3726 39.7842 53.3779C42.1653 53.4233 44.5481 53.4006 46.9292 53.4146C47.4847 53.4181 47.9791 53.4093 48.1364 52.7106C48.1713 52.5551 48.4071 52.4171 48.5783 52.3245C50.6257 51.2187 52.6714 50.1076 54.7346 49.0315C55.5836 48.5878 56.4029 48.724 57.2624 49.3809C56.9724 49.615 56.7662 49.8054 56.5374 49.9626C52.9894 52.4031 49.4396 54.8383 45.888 57.2736C44.2459 58.4003 42.4169 58.755 40.4795 58.4405C37.9534 58.03 35.4361 57.5618 32.9222 57.0797C31.8252 56.87 30.8556 57.0779 29.9367 57.6893C29.0493 58.2798 28.1409 58.8388 27.1591 59.466C26.9564 58.8423 26.7887 58.3532 26.6368 57.8588C26.09 56.0787 25.5589 54.295 24.9999 52.5201C24.8549 52.0589 24.9317 51.8301 25.3912 51.5646C26.1406 51.1331 26.8394 50.5968 27.4945 50.029C29.7812 48.048 32.9292 47.5798 35.644 48.9372C36.9297 49.58 38.2557 49.8788 39.6812 49.8578C41.077 49.8368 42.4763 49.8194 43.8721 49.8665C45.3325 49.9137 46.2706 50.6771 46.6287 52.1236V52.1218Z" fill="white"/>
<path d="M50.8529 18.4773C51.1953 19.5656 51.5133 20.5562 51.819 21.5502C52.2121 22.8289 52.5859 24.1129 52.9877 25.3899C53.1257 25.8319 53.1012 26.0817 52.6191 26.3525C51.8662 26.7735 51.1709 27.3186 50.5088 27.8793C48.1172 29.9093 45.4409 30.3251 42.6161 29.083C41.0229 28.3825 39.4454 28.0086 37.7229 28.0663C36.4739 28.1082 35.2178 28.1134 33.9722 28.0401C32.5887 27.9597 31.7484 27.233 31.3815 25.9315C32.3284 25.9315 33.2647 25.9472 34.2011 25.928C35.5655 25.9 36.9316 25.8791 38.2907 25.7708C38.5562 25.7498 38.7903 25.3428 39.0384 25.1122C38.7396 24.9165 38.4444 24.5584 38.1404 24.5532C35.7891 24.5042 33.4359 24.5339 31.0828 24.5147C30.529 24.5112 30.0364 24.485 29.8634 25.1873C29.8198 25.3672 29.556 25.5227 29.3603 25.6293C27.3671 26.7106 25.3738 27.7972 23.3631 28.8471C22.4983 29.2978 21.6353 29.2682 20.7549 28.5327C21.0117 28.3231 21.2143 28.1344 21.4397 27.9789C25.0104 25.5227 28.5847 23.07 32.1607 20.619C33.7521 19.529 35.5305 19.1796 37.4032 19.4696C39.7302 19.8294 42.0553 20.2312 44.3561 20.7291C45.9108 21.0645 47.2735 20.9055 48.5557 19.9203C49.2405 19.3944 50.0214 18.9926 50.8529 18.4773Z" fill="white"/>
<path d="M37.9237 46.57C33.7572 46.7133 30.2703 43.3906 30.1376 39.1508C30.0065 34.9791 33.31 31.4974 37.5481 31.3367C41.6813 31.1812 45.2608 34.5546 45.3953 38.7333C45.5316 42.9504 42.2211 46.4233 37.9237 46.57ZM37.9079 37.7689C37.9376 37.9139 37.9673 38.0589 37.997 38.2039C37.5149 38.3874 37.045 38.6354 36.5453 38.735C36.0684 38.8293 35.5566 38.7263 35.0692 38.7892C34.4612 38.8678 34.2079 39.4355 34.6307 39.8635C35.8745 41.1248 37.162 42.3442 38.4687 43.5408C38.612 43.6719 39.1291 43.6544 39.2182 43.5269C39.3614 43.3225 39.3789 42.9381 39.288 42.6883C39.1972 42.4385 38.9159 42.2551 38.708 42.0507C38.0966 41.4498 37.4799 40.854 37.0223 40.4086C37.7944 39.743 38.5596 39.2049 39.1518 38.5201C39.4697 38.1533 39.6462 37.8423 40.2052 37.8336C40.4812 37.8301 40.752 37.4632 41.0262 37.2623C40.7555 37.0282 40.4917 36.609 40.2122 36.5985C39.4715 36.5723 39.2828 36.2089 39.2566 35.4997C39.6531 35.4997 40.0217 35.5765 40.3345 35.477C40.6105 35.3879 40.8218 35.0996 41.0629 34.9005C40.8358 34.6821 40.614 34.2838 40.3799 34.2768C38.6382 34.2192 36.893 34.2139 35.1513 34.2628C34.9224 34.2698 34.7058 34.6734 34.4839 34.8935C34.7285 35.0926 34.9504 35.4071 35.2246 35.463C35.6998 35.5591 36.2117 35.4595 36.7008 35.5084C37.2791 35.5661 37.8049 35.7512 37.9813 36.5007C37.0939 36.5007 36.2763 36.4413 35.4762 36.5286C35.1268 36.5653 34.5591 36.8693 34.5294 37.1069C34.4508 37.7358 35.0237 37.7672 35.5059 37.7689C36.306 37.7724 37.1061 37.7689 37.9062 37.7689H37.9079Z" fill="white"/>
<path d="M18 49.3145C19.5425 49.3145 20.9576 49.3006 22.3726 49.3355C22.5246 49.339 22.7482 49.6028 22.8041 49.7879C24.2348 54.4558 25.6481 59.1271 27.0614 63.8002C27.0684 63.8246 27.0509 63.8561 27.0352 63.9329H19.7959C19.2019 59.0922 18.6079 54.2636 18 49.3163V49.3145ZM23.0399 63.6429C24.0601 63.7076 24.9179 62.9529 24.9808 61.9362C25.0402 60.9771 24.2733 60.1194 23.3055 60.0582C22.294 59.9953 21.431 60.757 21.3646 61.7702C21.3017 62.7328 22.0599 63.5801 23.0399 63.6429Z" fill="white"/>
<path d="M50.8408 14H58.1989C58.7929 18.8216 59.3886 23.6501 60 28.6149C58.4697 28.6149 57.0547 28.6254 55.6414 28.5992C55.4982 28.5957 55.2815 28.3878 55.2326 28.2341C53.7669 23.5208 52.3187 18.8023 50.8408 14.0017V14ZM54.8064 17.8607C55.8196 17.8642 56.6407 17.0432 56.6302 16.0334C56.6197 15.0586 55.8109 14.2603 54.8396 14.2673C53.8228 14.2743 53 15.1006 53.014 16.1016C53.028 17.0834 53.8176 17.8572 54.8064 17.8607Z" fill="white"/>
<path d="M47.2979 50.2333C48.5626 49.5485 49.6912 48.8934 50.8616 48.3204C51.4259 48.0444 52.0321 48.0898 52.6016 48.6977C51.0171 49.5537 49.4972 50.3748 47.8971 51.2413C47.6962 50.9024 47.5267 50.6194 47.2996 50.2351L47.2979 50.2333Z" fill="white"/>
<path d="M25.4521 29.2037C26.9685 28.3826 28.4848 27.5633 30.0868 26.6951C30.2859 27.0078 30.4641 27.2855 30.7262 27.6926C29.4142 28.3809 28.1948 29.0919 26.9108 29.6544C26.5265 29.8221 25.9623 29.581 25.4801 29.5269C25.4714 29.4185 25.4626 29.3102 25.4539 29.2019L25.4521 29.2037Z" fill="white"/>
<path d="M48.2818 48.088C47.0363 49.2392 46.3812 49.379 45.333 48.7099C46.037 47.8242 47.2337 47.5726 48.2818 48.088Z" fill="white"/>
<path d="M32.7807 29.2944C31.7832 30.0089 30.8276 30.3775 29.6484 29.8744C31.1194 28.6079 31.5666 28.5188 32.7807 29.2944Z" fill="white"/>
<path d="M23.171 62.3727C23.4585 62.3727 23.6916 62.1396 23.6916 61.8521C23.6916 61.5646 23.4585 61.3315 23.171 61.3315C22.8835 61.3315 22.6504 61.5646 22.6504 61.8521C22.6504 62.1396 22.8835 62.3727 23.171 62.3727Z" fill="white"/>
<path d="M54.7867 16.4247C55.0491 16.4247 55.2619 16.212 55.2619 15.9495C55.2619 15.6871 55.0491 15.4744 54.7867 15.4744C54.5243 15.4744 54.3115 15.6871 54.3115 15.9495C54.3115 16.212 54.5243 16.4247 54.7867 16.4247Z" fill="white"/>
</svg>
