<svg width="78" height="78" viewBox="0 0 78 78" fill="none" xmlns="http://www.w3.org/2000/svg">
<circle cx="39" cy="39" r="39" fill="#37D7D9"/>
<path d="M60 35.7026C59.2441 37.0303 58.1999 37.5659 56.6237 37.2005C55.4059 36.9187 54.1209 36.9327 52.8806 36.7291C50.5122 36.3386 50.5178 36.3135 48.8184 34.6315C48.4797 37.3846 47.889 40.0986 49.7703 42.5254C52.8974 46.556 52.7939 51.3453 52.9786 56.0649C53.043 57.6911 53.099 59.3145 53.1662 60.9407C53.2362 62.6367 52.2983 63.8082 50.7558 63.9477C49.1012 64.0955 47.8862 63.1332 47.6986 61.4149C47.3095 57.8613 47.0239 54.2937 46.5816 50.7456C46.4668 49.8279 46.0944 48.8572 45.5709 48.0929C43.9695 45.7527 42.175 43.5463 40.5988 41.1893C40.1005 40.4445 39.8261 39.3929 39.8513 38.4947C39.9045 36.4641 40.2041 34.439 40.4169 32.2828C39.1626 32.7821 38.4179 33.4209 38.4459 34.8211C38.4683 36.0206 38.3424 37.2423 38.1044 38.4194C37.9784 39.0498 37.5921 39.9898 37.1245 40.1293C35.2516 40.69 34.9101 42.3245 34.2046 43.7276C33.9778 44.1767 33.7818 44.6425 33.5803 45.0776C35.7975 46.9409 35.8647 47.2812 34.5853 49.9395C33.0343 53.1612 31.4638 56.3718 29.9436 59.6074C29.6608 60.2127 29.5432 60.9017 29.4061 61.5656C29.1597 62.751 28.5998 63.6576 27.3344 63.9031C26.0046 64.1625 25.0443 63.5376 24.406 62.3047C24.1176 61.7469 23.6137 61.2141 23.0734 60.8905C21.9983 60.2518 20.8225 59.7804 19.6999 59.2141C17.9781 58.3494 17.6002 57.4094 18.4037 55.733C20.3466 51.6717 22.3175 47.6215 24.3052 43.5797C25.0639 42.04 26.1949 41.6746 27.7851 42.411C29.1345 43.0358 30.4587 43.7108 31.9425 44.4361C32.6256 43.0163 33.4095 41.6941 33.8854 40.266C34.101 39.6189 33.5887 38.7653 33.611 38.0094C33.667 36.2465 33.8742 34.4892 33.9722 32.7263C34.0422 31.4851 34.5097 30.5339 35.5652 29.8003C37.8216 28.2327 40.0025 26.5618 42.259 24.997C44.8654 23.1895 47.1415 23.6442 48.9668 26.255C49.5519 27.0918 50.2714 27.8784 50.6774 28.7961C51.9008 31.5827 54.1629 32.4028 56.982 32.6371C58.0179 32.7235 58.9922 33.5408 59.9944 34.0262V35.6998L60 35.7026ZM25.3551 51.1529C25.1703 50.952 24.9491 50.5336 24.7727 50.5532C24.42 50.5894 23.9273 50.7819 23.7845 51.058C22.9418 52.7093 22.1467 54.3857 21.4272 56.0928C21.304 56.3829 21.6344 56.8627 21.752 57.256C22.1131 57.0719 22.6534 56.9826 22.8074 56.6898C23.5857 55.2142 24.2688 53.6912 24.9743 52.1766C25.1115 51.8837 25.1983 51.5713 25.3523 51.1501L25.3551 51.1529ZM26.738 62.8096C27.2196 62.1904 27.6759 61.8501 27.7151 61.4679C27.7431 61.1862 27.2056 60.5753 26.962 60.5949C26.5841 60.6283 26.0074 61.0328 25.9486 61.3564C25.887 61.6967 26.3405 62.1262 26.7352 62.8068L26.738 62.8096Z" fill="white"/>
<path d="M40.9203 45.1001C43.1516 47.6161 45.6237 49.962 45.3073 53.6328C45.2065 54.8071 45.1393 56.0177 44.7894 57.1278C44.2715 58.7568 43.5296 60.3161 42.8521 61.8921C42.1074 63.6159 40.5368 64.3913 39.0306 63.8167C37.6784 63.3035 37.0037 61.5824 37.6 59.9311C38.5911 57.1836 39.5569 54.4249 40.6992 51.7388C41.3487 50.213 41.5335 48.7486 41.1863 47.1586C41.0379 46.4864 41.0071 45.7891 40.9231 45.1001H40.9203Z" fill="white"/>
<path d="M45.4589 22.8716C42.7209 22.8967 40.47 20.6847 40.4532 17.9511C40.4392 15.2175 42.6649 13 45.4197 13C48.1325 13 50.2826 15.1171 50.3497 17.8395C50.4141 20.5592 48.1913 22.8465 45.4617 22.8716H45.4589Z" fill="white"/>
</svg>
