<svg xmlns="http://www.w3.org/2000/svg" width="65" height="64" viewBox="0 0 65 64" fill="none"><path d="M27.2648 50.1871V40.3914H13.8114C13.8114 41.5866 13.8014 42.7439 13.8154 43.8991C13.8274 44.8325 13.5775 45.642 12.6681 46.0418C11.7707 46.4355 11.0212 46.1057 10.3096 45.4761C7.19364 42.7159 4.04766 39.9916 0.921663 37.2434C-0.307549 36.1621 -0.311546 35.0608 0.935654 33.9635C4.10962 31.1693 7.30157 28.3951 10.4795 25.6069C11.1391 25.0272 11.8507 24.7914 12.6781 25.1771C13.4996 25.5589 13.8034 26.2664 13.8094 27.1279C13.8174 28.3551 13.8114 29.5803 13.8114 30.8715H50.222C50.222 29.7382 50.24 28.6489 50.2161 27.5596C50.1961 26.5762 50.336 25.6768 51.3273 25.1911C52.3387 24.6954 53.0902 25.1911 53.8357 25.8467C56.8558 28.513 59.9038 31.1493 62.9299 33.8096C64.4129 35.1128 64.399 36.1361 62.9159 37.4313C59.8579 40.1056 56.7898 42.7699 53.7498 45.4621C53.0422 46.0877 52.2967 46.4435 51.3933 46.0597C50.4339 45.652 50.2021 44.8025 50.2181 43.8352C50.238 42.7099 50.222 41.5826 50.222 40.3894H36.7607V50.1911C37.9719 50.1911 39.1312 50.2031 40.2884 50.1871C41.2198 50.1731 42.0293 50.407 42.445 51.3124C42.8588 52.2118 42.531 52.9593 41.9014 53.6709C39.1891 56.7389 36.5068 59.8349 33.8046 62.9129C32.5374 64.356 31.5041 64.362 30.2509 62.9329C27.5266 59.8309 24.8223 56.7109 22.0881 53.6169C21.4805 52.9293 21.1967 52.1998 21.5764 51.3384C21.9582 50.4709 22.7157 50.1851 23.6171 50.1891C24.8123 50.1931 26.0076 50.1891 27.2668 50.1891L27.2648 50.1871Z" fill="#37D7D9"></path><path d="M24.8983 14.2902C28.9178 18.5075 35.0598 18.5554 39.1332 14.2902C41.2898 15.7132 42.8148 17.65 43.4225 20.1544C43.7702 21.5855 43.7862 23.1125 43.8222 24.5996C43.8442 25.5489 43.0427 26.1865 42.0114 26.1965C40.1126 26.2165 38.2118 26.2025 36.313 26.2025C31.8479 26.2025 27.3807 26.2025 22.9156 26.2025C20.5731 26.2025 20.1933 25.7808 20.1614 23.3963C20.1134 19.8586 21.4905 17.0064 24.2008 14.7739C24.4046 14.606 24.6345 14.472 24.8983 14.2902Z" fill="#37D7D9"></path><path d="M37.6144 7.16469C37.8243 9.36727 37.2027 11.4519 35.0561 12.8351C33.2252 14.0123 31.2865 14.1042 29.3737 13.0669C27.5089 12.0556 26.4256 10.4506 26.4416 8.30396C26.4536 6.69099 26.4216 4.99808 26.8893 3.48705C27.6608 0.994644 30.425 -0.382474 32.9774 0.0932215C35.6557 0.590902 37.5445 2.76951 37.6124 5.44579C37.6244 5.94547 37.6124 6.44515 37.6124 7.16669L37.6144 7.16469Z" fill="#37D7D9"></path></svg>