<svg xmlns="http://www.w3.org/2000/svg" width="79" height="64" viewBox="0 0 79 64" fill="none"><g id="Frame 85"><g id="Group 1504"><path id="Vector" d="M69.0238 45.5247C69.0238 43.1662 68.982 40.9746 69.0331 38.7854C69.1166 35.2163 68.9032 31.7075 67.739 28.2775C64.9027 19.9101 56.3985 13.6578 47.5673 13.5534C45.5961 13.5302 43.6249 13.5674 41.6536 13.5279C40.9138 13.514 40.552 13.7436 40.6471 14.5159C40.661 14.6295 40.6633 14.7501 40.6471 14.8637C40.399 16.4245 40.6773 17.4867 42.5186 17.9806C43.4718 18.2357 44.3229 19.2585 44.9769 20.1165C45.443 20.7288 45.8512 20.9468 46.5701 20.9352C49.469 20.8911 52.3401 20.9027 55.1068 22.0831C61.4472 24.7919 65.1486 31.7353 63.7849 38.5813C62.4445 45.3114 56.4403 50.3624 49.636 50.4042C42.95 50.4459 36.264 50.4227 29.578 50.4134C22.2403 50.4042 16.0042 45.0586 14.9606 37.9064C13.8869 30.5363 18.2306 23.5465 25.392 21.5729C27.5789 20.97 29.9699 21.0766 32.2728 20.9468C33.0451 20.9027 33.5066 20.7288 33.9101 20.0006C34.6545 18.6578 35.9161 17.8763 37.3911 17.5029C38.0427 17.3382 38.2654 17.0112 38.2329 16.3642C38.1889 15.4853 38.2213 14.604 38.2213 13.8201C38.0242 13.681 37.9639 13.6045 37.9013 13.6021C32.4444 13.4305 27.027 13.2775 21.9435 15.9282C13.4903 20.3368 8.6132 29.6991 10.0998 38.9848C11.6327 48.5744 18.9704 56.0164 28.481 57.5076C30.2621 57.7859 32.0965 57.7604 33.9078 57.7836C34.2626 57.7882 34.7542 57.4566 34.963 57.1389C37.2264 53.6741 42.5418 53.085 45.4871 56.0048C47.2751 57.7766 47.238 60.3926 45.3967 62.1945C42.4746 65.0586 37.0989 64.4278 35.007 60.9213C34.5919 60.2256 34.0655 60.2302 33.4486 60.2511C29.8145 60.3763 26.2779 59.9125 22.8943 58.5257C17.0733 56.1393 12.7528 52.1296 9.93046 46.5243C9.58723 45.8401 9.1837 45.5247 8.3952 45.3949C3.46709 44.5809 -0.00694691 40.5062 1.04311e-05 35.6523C0.00696777 30.8053 3.50419 26.7283 8.43231 25.9468C9.24632 25.8169 9.59882 25.4551 9.95133 24.7965C14.7449 15.8215 22.2473 11.2366 32.4375 11.0627C34.0608 11.0349 35.6842 11.0256 37.3076 11.0534C38.0149 11.065 38.2955 10.7983 38.2306 10.098C38.1912 9.67588 38.1842 9.24684 38.2236 8.82476C38.3164 7.8461 38.0938 7.1666 37.1661 6.52884C35.3549 5.28116 35.2598 2.75101 36.7742 1.13458C38.212 -0.402989 40.7468 -0.37284 42.1453 1.19488C43.6573 2.89015 43.3929 5.3345 41.5748 6.69814C41.2292 6.95788 40.7399 7.29879 40.7051 7.64202C40.6007 8.66938 40.6541 9.72226 40.7492 10.7543C40.7608 10.8818 41.4008 11.0163 41.7557 11.0326C44.7612 11.1694 47.8132 10.9955 50.7677 11.4546C58.8684 12.7093 64.803 17.1805 68.6666 24.3605C69.214 25.3786 69.8192 25.8401 70.9579 26.0627C75.7446 26.995 79.0076 31.2088 78.8568 36.0767C78.7107 40.7195 75.0975 44.7177 70.3897 45.4273C70.014 45.483 69.6314 45.4807 69.0261 45.5224L69.0238 45.5247ZM45.392 38.8155H33.4625C33.0636 41.5985 36.5817 43.6741 39.4273 43.6741C42.514 43.6741 45.8327 41.3712 45.392 38.8155ZM25.9115 33.1453C25.872 34.5205 26.8901 35.6152 28.2491 35.6546C29.5733 35.694 30.7515 34.6249 30.8164 33.3262C30.8836 31.9904 29.7334 30.7682 28.3813 30.7404C27.0617 30.7126 25.9509 31.7933 25.9115 33.1453ZM52.9454 33.2497C52.9616 31.8953 51.8948 30.7636 50.5845 30.7404C49.2255 30.7172 48.0381 31.8768 48.0428 33.2195C48.0474 34.5229 49.1629 35.6268 50.5033 35.6523C51.8531 35.6801 52.9315 34.6179 52.9454 33.2474V33.2497Z" fill="#37D7D9"></path></g></g></svg>