<svg xmlns="http://www.w3.org/2000/svg" width="53" height="64" viewBox="0 0 53 64" fill="none"><g id="Frame 57"><g id="Group 1431"><path id="Vector" d="M53 28.4872C52.0461 30.1532 50.7284 30.8252 48.7394 30.3667C47.2026 30.0132 45.5811 30.0307 44.016 29.7752C41.0273 29.2852 41.0343 29.2537 38.8899 27.1431C38.4625 30.5977 37.717 34.0033 40.0911 37.0484C44.0372 42.106 43.9065 48.1157 44.1397 54.0379C44.221 56.0784 44.2916 58.1155 44.3764 60.156C44.4647 62.2841 43.2812 63.7541 41.3346 63.9291C39.2467 64.1147 37.7135 62.9071 37.4768 60.7511C36.9857 56.2919 36.6254 51.8153 36.0672 47.3632C35.9224 46.2117 35.4525 44.9936 34.7919 44.0346C32.7711 41.098 30.5065 38.3294 28.5176 35.3719C27.8887 34.4373 27.5425 33.1178 27.5743 31.9908C27.6414 29.4427 28.0194 26.9016 28.2879 24.196C26.7052 24.8226 25.7655 25.6241 25.8008 27.3811C25.8291 28.8862 25.6701 30.4192 25.3698 31.8963C25.2109 32.6873 24.7233 33.8668 24.1333 34.0418C21.7699 34.7453 21.3389 36.7964 20.4486 38.5569C20.1625 39.1205 19.9152 39.705 19.6608 40.251C22.4588 42.5891 22.5436 43.0161 20.9291 46.3517C18.9719 50.3943 16.99 54.4229 15.0717 58.483C14.7148 59.2425 14.5665 60.107 14.3934 60.9401C14.0825 62.4276 13.3759 63.5651 11.7791 63.8731C10.101 64.1987 8.88923 63.4146 8.08375 61.8676C7.71987 61.1676 7.08396 60.4991 6.40213 60.093C5.04552 59.2915 3.56174 58.7 2.14508 57.9895C-0.0276047 56.9044 -0.504535 55.7249 0.509384 53.6214C2.96116 48.5252 5.44826 43.4431 7.95657 38.3714C8.91396 36.4394 10.3412 35.9809 12.3479 36.9049C14.0507 37.6889 15.7217 38.5359 17.5941 39.446C18.4561 37.6644 19.4453 36.0054 20.0459 34.2133C20.3179 33.4013 19.6714 32.3303 19.6997 31.3818C19.7703 29.1697 20.0317 26.9646 20.1554 24.7526C20.2437 23.195 20.8337 22.0015 22.1656 21.081C25.013 19.1139 27.7651 17.0174 30.6125 15.0538C33.9016 12.7857 36.7738 13.3563 39.0772 16.6323C39.8155 17.6824 40.7235 18.6694 41.2357 19.8209C42.7796 23.3175 45.6341 24.3466 49.1916 24.6406C50.4988 24.7491 51.7282 25.7746 52.9929 26.3836V28.4837L53 28.4872ZM9.28137 47.8742C9.04821 47.6222 8.76911 47.0972 8.54655 47.1217C8.10141 47.1672 7.47964 47.4087 7.29946 47.7552C6.23608 49.8273 5.23276 51.9308 4.32483 54.0729C4.16938 54.4369 4.58626 55.0389 4.73464 55.5324C5.19037 55.3014 5.8722 55.1894 6.06651 54.8219C7.04863 52.9703 7.91064 51.0593 8.80091 49.1587C8.97402 48.7912 9.08354 48.3992 9.27784 47.8707L9.28137 47.8742ZM11.0266 62.5011C11.6342 61.7241 12.2101 61.2971 12.2595 60.8176C12.2949 60.4641 11.6166 59.6975 11.3092 59.722C10.8323 59.764 10.1045 60.2715 10.0303 60.6776C9.95261 61.1046 10.5249 61.6436 11.0231 62.4976L11.0266 62.5011Z" fill="#37D7D9"></path><path id="Vector_2" d="M28.9235 40.2791C31.7392 43.4361 34.8587 46.3797 34.4594 50.9858C34.3323 52.4594 34.2475 53.9784 33.8059 55.3715C33.1523 57.4155 32.2161 59.3721 31.3612 61.3496C30.4214 63.5127 28.4395 64.4857 26.5389 63.7647C24.8325 63.1207 23.9811 60.9611 24.7336 58.8891C25.9842 55.4415 27.203 51.9799 28.6444 48.6093C29.464 46.6947 29.6972 44.8572 29.2591 42.8621C29.0719 42.0186 29.033 41.1436 28.9271 40.2791H28.9235Z" fill="#37D7D9"></path><path id="Vector_3" d="M34.6505 12.3868C31.1954 12.4183 28.355 9.64277 28.3338 6.21267C28.3162 2.78258 31.1247 0 34.601 0C38.0243 0 40.7375 2.65657 40.8223 6.07267C40.9036 9.48526 38.0985 12.3553 34.654 12.3868H34.6505Z" fill="#37D7D9"></path></g></g></svg>