<svg width="382" height="242" viewBox="0 0 382 242" fill="none" xmlns="http://www.w3.org/2000/svg">
<mask id="mask0_1_7977" style="mask-type:alpha" maskUnits="userSpaceOnUse" x="0" y="0" width="382" height="242">
<path d="M0 32C0 14.3269 14.3269 0 32 0H350C367.673 0 382 14.3269 382 32V242H0V32Z" fill="#542828"/>
</mask>
<g mask="url(#mask0_1_7977)">
<path d="M382 -17H0V243.822H382V-17Z" fill="#94CFE3"/>
<path opacity="0.4" d="M0.0380859 194.131C15.9522 194.131 15.9522 205.721 31.8663 205.721C47.7804 205.721 47.7804 194.131 63.6946 194.131C79.6087 194.131 79.6087 205.721 95.5228 205.721C111.437 205.721 111.437 194.131 127.351 194.131C143.265 194.131 143.265 205.721 159.179 205.721C175.093 205.721 175.093 194.131 191 194.131C206.906 194.131 206.914 205.721 222.828 205.721C238.742 205.721 238.742 194.131 254.656 194.131C270.57 194.131 270.57 205.721 286.485 205.721C302.399 205.721 302.399 194.131 318.313 194.131C334.227 194.131 334.227 205.721 350.141 205.721C366.055 205.721 366.055 194.131 381.969 194.131V244.158H0.0380859V194.131Z" fill="#006084"/>
<path d="M201.62 62.3177V64.9153H203.965L202.918 73.5409V73.5562H194.705L194.828 76.8108L195.011 81.349L195.729 99.9218L195.806 101.763L199.885 207.058H182.825L186.913 101.763L186.989 99.9218L187.646 82.8617L187.883 76.8185V76.8108L188.013 73.5562H179.8L179.792 73.5409L178.746 64.9153H181.099V62.3177H178.432L177.508 54.7618H181.526V50.0097H186.714V45.6855H189.739V36.166H192.979V45.6855H196.004V50.0097H201.184V54.7618H205.203L204.278 62.3177H201.62Z" fill="white"/>
<path d="M201.185 38.1377H181.512V41.5375H201.185V38.1377Z" fill="white"/>
<path d="M201.185 36.166H181.512V38.4275H201.185V36.166Z" fill="#032531"/>
<path d="M189.739 36.1663L191.344 16.7607L192.979 36.1663H189.739Z" fill="white"/>
<path opacity="0.3" d="M195.012 81.3497C193.537 81.3726 190.588 81.6018 187.654 82.8624L187.891 76.8192L194.836 76.8115L195.012 81.3573V81.3497Z" fill="#032531"/>
<path d="M198.19 73.5332H184.965V76.8031H198.19V73.5332Z" fill="#032531"/>
<path opacity="0.3" d="M198.19 73.5332V74.5722L184.965 75.489V73.5332H198.19Z" fill="#032531"/>
<path d="M205.723 50.4453L205.204 54.7619L205.02 56.2364L204.6 59.705L204.279 62.3255L204.012 64.5258L203.966 64.9155L203.592 67.9944L202.919 73.541H179.793L179.121 67.9944L178.746 64.9155L178.701 64.5258L178.433 62.3255L178.112 59.705L177.692 56.2364L177.509 54.7619L176.989 50.4453H205.723Z" fill="#E4E4E4"/>
<path d="M205.021 56.2363L204.6 59.7049H178.113L177.692 56.2363H205.021Z" fill="#6AAABD"/>
<path d="M204.012 64.5254L203.967 64.915L203.592 67.994H179.121L178.747 64.915L178.701 64.5254H204.012Z" fill="#6AAABD"/>
<path opacity="0.3" d="M188.877 50.4453C188.877 50.4453 182.055 52.5081 182.597 73.5334H179.793L176.989 50.4453H188.877Z" fill="#032531"/>
<path d="M197.503 41.5449H185.592V43.8904H197.503V41.5449Z" fill="#E4E4E4"/>
<path opacity="0.3" d="M185.592 41.5449H195.249L185.592 43.1417V41.5449Z" fill="#032531"/>
<path d="M199.664 125.997H182.871V127.838H199.664V125.997Z" fill="#032531"/>
<path d="M195.806 101.763H186.913L186.989 99.9219H195.73L195.806 101.763Z" fill="#032531"/>
<path d="M191.359 100.839L164.673 207.058" stroke="#032531" stroke-miterlimit="10"/>
<path d="M218.543 207.058L191.856 100.839" stroke="#032531" stroke-miterlimit="10"/>
<path d="M191.581 100.839V208.563" stroke="#032531" stroke-miterlimit="10"/>
<path d="M201.185 43.8828H181.512V50.4456H201.185V43.8828Z" fill="white"/>
<path d="M334.442 218.449H174.629V221.521H334.442V218.449Z" fill="#032531"/>
<path d="M338.919 206.034C301.773 140.911 207.885 140.911 170.732 206.034C170.136 205.69 169.532 205.354 168.937 205.01C206.877 138.489 302.774 138.489 340.714 205.01C340.118 205.354 339.515 205.698 338.919 206.034Z" fill="#032531"/>
<path d="M315.41 199.914C307.182 188.63 298.473 179.515 289.534 172.838C278.356 164.487 266.774 159.926 255.1 159.269V159.254C255.1 159.254 255.032 159.254 254.993 159.254C254.955 159.254 254.925 159.254 254.886 159.254V159.269C243.212 159.926 231.63 164.487 220.453 172.838C211.506 179.523 202.804 188.63 194.576 199.914C180.595 219.09 172.726 238.206 172.649 238.397L174.559 239.176C174.636 238.985 182.413 220.107 196.242 201.129C204.348 190.005 212.912 181.043 221.691 174.488C232.532 166.39 243.74 161.966 255.001 161.332C266.255 161.966 277.455 166.382 288.288 174.48C297.067 181.036 305.624 189.99 313.73 201.106C327.566 220.084 335.366 239 335.443 239.184L337.353 238.404C337.276 238.213 329.399 219.098 315.426 199.922L315.41 199.914Z" fill="#032531"/>
<path d="M255.559 155.893H254.413V218.93H255.559V155.893Z" fill="#032531"/>
<path d="M263.077 156.58H261.931V219.625H263.077V156.58Z" fill="#032531"/>
<path d="M271.282 156.939H270.136V218.938H271.282V156.939Z" fill="#032531"/>
<path d="M280.022 159.018H278.876V220.474H280.022V159.018Z" fill="#032531"/>
<path d="M288.709 161.409H287.562V221.521H288.709V161.409Z" fill="#032531"/>
<path d="M297.824 165.726H296.678V221.528H297.824V165.726Z" fill="#032531"/>
<path d="M306.876 170.142H305.73V221.521H306.876V170.142Z" fill="#032531"/>
<path d="M315.778 176.612H314.632V221.008H315.778V176.612Z" fill="#032531"/>
<path d="M325.243 185.353H324.097V221.52H325.243V185.353Z" fill="#032531"/>
<path d="M333.724 194.796H332.578V221.521H333.724V194.796Z" fill="#032531"/>
<path d="M247.858 155.893H246.712V218.93H247.858V155.893Z" fill="#032531"/>
<path d="M239.072 157.268H237.926V218.938H239.072V157.268Z" fill="#032531"/>
<path d="M230.24 158.964H229.094V218.93H230.24V158.964Z" fill="#032531"/>
<path d="M221.156 161.791H220.01V219.993H221.156V161.791Z" fill="#032531"/>
<path d="M211.766 166.031H210.62V219.985H211.766V166.031Z" fill="#032531"/>
<path d="M202.117 171.562H200.971V219.992H202.117V171.562Z" fill="#032531"/>
<path d="M192.437 178.568H191.291V219.992H192.437V178.568Z" fill="#032531"/>
<path d="M182.658 187.744H181.512V219.985H182.658V187.744Z" fill="#032531"/>
<path d="M178.632 210.977H155.139V244.165H178.632V210.977Z" fill="#E4E4E4"/>
<path d="M176.201 203.1H157.567V210.976H176.201V203.1Z" fill="#E4E4E4"/>
<path d="M175.072 199.219H158.699V203.153H175.072V199.219Z" fill="#E4E4E4"/>
<path opacity="0.3" d="M157.567 203.1L170.403 203.153C170.403 203.153 158.041 204.368 157.567 206.133V203.1Z" fill="#032531"/>
<path opacity="0.3" d="M155.139 210.977H172.275C172.275 210.977 155.139 212.665 155.139 215.645V210.977Z" fill="#032531"/>
<path d="M170.425 218.938H162.365V226.539H170.425V218.938Z" fill="#6AAABD"/>
<path d="M170.426 219.343C170.426 221.566 168.623 223.369 166.399 223.369C164.176 223.369 162.373 221.566 162.373 219.343C162.373 217.119 164.176 215.316 166.399 215.316C168.623 215.316 170.426 217.119 170.426 219.343Z" fill="#6AAABD"/>
<path d="M171.396 218.938H163.336V226.539H171.396V218.938Z" fill="#032531"/>
<path d="M171.396 219.343C171.396 221.566 169.593 223.369 167.37 223.369C165.147 223.369 163.344 221.566 163.344 219.343C163.344 217.119 165.147 215.316 167.37 215.316C169.593 215.316 171.396 217.119 171.396 219.343Z" fill="#032531"/>
<path d="M358.096 209.754H334.603V242.942H358.096V209.754Z" fill="#E4E4E4"/>
<path d="M355.658 201.885H337.024V209.762H355.658V201.885Z" fill="#E4E4E4"/>
<path d="M354.536 198.004H338.163V201.939H354.536V198.004Z" fill="#E4E4E4"/>
<path opacity="0.3" d="M337.024 201.885L349.86 201.938C349.86 201.938 337.498 203.153 337.024 204.918V201.885Z" fill="#032531"/>
<path opacity="0.3" d="M334.603 209.754H351.739C351.739 209.754 334.603 211.442 334.603 214.422V209.754Z" fill="#032531"/>
<path d="M349.889 217.723H341.829V225.324H349.889V217.723Z" fill="#6AAABD"/>
<path d="M349.889 218.128C349.889 220.351 348.086 222.154 345.863 222.154C343.64 222.154 341.837 220.351 341.837 218.128C341.837 215.905 343.64 214.102 345.863 214.102C348.086 214.102 349.889 215.905 349.889 218.128Z" fill="#6AAABD"/>
<path d="M350.859 217.723H342.799V225.324H350.859V217.723Z" fill="#032531"/>
<path d="M350.859 218.128C350.859 220.351 349.056 222.154 346.833 222.154C344.61 222.154 342.807 220.351 342.807 218.128C342.807 215.905 344.61 214.102 346.833 214.102C349.056 214.102 350.859 215.905 350.859 218.128Z" fill="#032531"/>
<path d="M96.4648 132.988V215.806H176.815C176.815 215.806 162.467 142.363 96.4648 132.988Z" fill="white"/>
<path d="M115.572 215.814H77.3643C79.2131 162.051 96.4643 132.996 96.4643 132.996C96.4643 132.996 97.4116 134.593 98.8861 137.733C103.707 147.978 114.151 174.657 115.564 215.821L115.572 215.814Z" fill="#E4E4E4"/>
<path d="M110.637 215.814H82.9951C83.5223 179.111 91.7582 154.327 96.3728 143.249C101.621 156.061 109.422 180.654 110.637 215.814Z" fill="#6AAABD"/>
<path d="M110.637 215.814H90.6504C91.6207 188.638 96.6478 168.362 100.888 155.786C105.281 169.737 109.75 189.906 110.637 215.814Z" fill="#032531"/>
<path d="M206.144 151.943V215.806H144.184C144.184 215.806 155.246 159.171 206.144 151.943Z" fill="white"/>
<path d="M220.874 215.814H191.414C192.507 184.07 200.559 163.495 204.28 155.595C205.418 153.181 206.152 151.943 206.152 151.943C206.152 151.943 212.882 163.273 217.275 184.727C217.382 185.238 217.482 185.758 217.589 186.278C219.231 194.666 220.492 204.529 220.882 215.806L220.874 215.814Z" fill="#E4E4E4"/>
<path d="M216.534 215.814H195.219C195.242 215.188 195.265 214.569 195.295 213.958C195.318 213.499 195.333 213.041 195.356 212.59C195.379 212.124 195.402 211.673 195.433 211.215C195.532 209.404 195.662 207.639 195.807 205.905C195.838 205.554 195.868 205.21 195.899 204.858C195.96 204.186 196.021 203.514 196.09 202.857C196.12 202.566 196.151 202.284 196.181 202.001C196.243 201.428 196.304 200.863 196.365 200.305C196.388 200.122 196.403 199.931 196.426 199.747C196.579 198.456 196.739 197.188 196.907 195.943C197.007 195.232 197.106 194.529 197.213 193.834C197.228 193.758 197.236 193.689 197.243 193.612C197.274 193.406 197.304 193.2 197.335 193.001C197.396 192.589 197.465 192.184 197.526 191.779C197.58 191.443 197.633 191.106 197.694 190.77C197.74 190.488 197.786 190.205 197.839 189.93C197.877 189.685 197.923 189.449 197.969 189.204C198.183 187.989 198.405 186.813 198.634 185.659C198.68 185.43 198.726 185.201 198.771 184.972C198.894 184.368 199.016 183.78 199.146 183.199C199.214 182.878 199.283 182.557 199.352 182.244C199.413 181.946 199.482 181.648 199.551 181.358C199.619 181.067 199.681 180.777 199.749 180.487C199.803 180.25 199.856 180.021 199.917 179.784C199.994 179.448 200.078 179.112 200.162 178.775C200.231 178.493 200.299 178.218 200.368 177.943C200.529 177.301 200.689 176.674 200.849 176.063C200.964 175.613 201.086 175.177 201.208 174.734C201.3 174.405 201.392 174.085 201.476 173.764C201.583 173.389 201.69 173.023 201.789 172.656C202.102 171.563 202.423 170.517 202.744 169.508C203.928 165.742 205.105 162.571 206.152 160.004C206.174 159.951 206.197 159.889 206.22 159.836C208.222 164.641 211.11 172.793 213.326 184.039C213.417 184.506 213.509 184.972 213.593 185.445C215.182 193.918 216.374 204.064 216.534 215.791V215.814Z" fill="#6AAABD"/>
<path d="M195.219 215.814H210.629C209.88 194.858 206.006 179.219 202.736 169.523C199.352 180.281 195.906 195.836 195.219 215.814Z" fill="#032531"/>
<path d="M184.5 215.814H134.58C134.886 214.522 135.214 213.277 135.573 212.062C137.109 206.89 139.118 202.405 141.349 198.555C149.891 183.802 161.603 178.278 161.603 178.278C169.594 182.587 175.049 190.732 178.625 198.333C181.138 203.689 182.727 208.77 183.606 212.055C184.225 214.377 184.492 215.806 184.492 215.806L184.5 215.814Z" fill="#E4E4E4"/>
<path d="M183.614 212.062H135.581C137.117 206.89 139.126 202.405 141.357 198.555C146.292 198.639 155.17 199.349 161.412 203.039C161.412 203.039 172.093 198.761 178.632 198.333C181.146 203.689 182.735 208.769 183.614 212.054V212.062Z" fill="#032531"/>
<path d="M184.5 215.814H134.58C135.78 210.718 137.445 206.233 139.363 202.306C143.465 202.245 154.2 202.528 161.412 206.791C161.412 206.791 174.071 201.726 180.267 202.069C183.331 209.618 184.507 215.814 184.507 215.814H184.5Z" fill="#6AAABD"/>
<path opacity="0.3" d="M161.274 181.25C161.274 181.25 159.54 213.659 159.593 215.806H162.458C162.458 215.806 161.832 185.017 161.274 181.25Z" fill="#032531"/>
<path d="M283.69 215.783H31.2266V223.507H283.69V215.783Z" fill="#E4E4E4"/>
<path d="M290.788 223.507H25.5732V233.668H290.788V223.507Z" fill="#E4E4E4"/>
<path d="M298.207 233.661H19.5605V243.815H298.207V233.661Z" fill="#E4E4E4"/>
<path d="M106.282 219.894H31.2266V223.507H106.282V219.894Z" fill="#032531"/>
<path d="M100.033 228.106H25.5732V233.661H100.033V228.106Z" fill="#032531"/>
<path d="M283.684 219.642H250.121V223.5H283.684V219.642Z" fill="#032531"/>
<path d="M93.7526 238.26H19.5605V243.814H93.7526V238.26Z" fill="#032531"/>
<path opacity="0.3" d="M130.004 221.696L138.782 243.822H145.849L132.563 223.92L130.004 221.696Z" fill="#032531"/>
<path opacity="0.3" d="M283.507 231.857H229.057V233.66H283.507V231.857Z" fill="#032531"/>
<path d="M205.87 230.888H165.37V236.442H205.87V230.888Z" fill="#69868C"/>
<path d="M204.494 231.781H166.653V235.54H204.494V231.781Z" fill="#032531"/>
<path d="M195.166 230.888H194.104V236.442H195.166V230.888Z" fill="#69868C"/>
<path d="M189.81 230.888H188.748V236.442H189.81V230.888Z" fill="#69868C"/>
<path d="M88.9385 215.783H77.9674L73.6355 198.784L71.5727 190.708L66.2782 169.935L64.2842 162.127C69.9531 161.508 75.3011 161.6 80.3282 162.257C81.4971 162.41 82.6431 162.593 83.7738 162.807C83.8808 162.822 83.9877 162.845 84.0947 162.868C84.3774 162.922 84.6601 162.975 84.9427 163.036C86.4478 163.342 87.9223 163.701 89.3663 164.113C89.4733 164.136 89.5802 164.175 89.6872 164.205C90.3289 164.389 90.9631 164.58 91.5972 164.786C92.1091 164.946 92.6209 165.114 93.1252 165.298C95.2873 166.046 97.3654 166.894 99.3747 167.834C99.474 167.88 99.581 167.926 99.6879 167.979C99.8407 168.048 99.9859 168.124 100.139 168.193C100.269 168.254 100.391 168.308 100.521 168.377C102.056 169.125 103.546 169.928 104.99 170.76C107.786 182.969 110.078 198.035 110.69 215.783H88.9385Z" fill="white"/>
<path d="M88.9383 215.783H63.5812C58.3707 182.48 64.2153 162.341 64.2764 162.119C64.3375 162.18 65.3384 163.189 66.981 165.19C69.2119 167.895 72.6269 172.418 76.4928 178.835C77.7534 180.936 79.0675 183.236 80.4045 185.742C82.5437 189.768 84.7363 194.314 86.8908 199.402C88.5029 203.215 90.0767 207.325 91.5818 211.749C92.0325 213.063 92.4757 214.415 92.9111 215.783H88.9383Z" fill="#E4E4E4"/>
<path d="M88.9391 215.783H67.7458C63.7806 193.78 65.0107 177.697 66.1643 169.79C66.2025 169.836 66.2331 169.882 66.2713 169.935C67.9215 172.166 69.8391 174.947 71.9096 178.286C71.9554 178.362 72.0013 178.439 72.0547 178.515C72.1923 178.736 72.3298 178.966 72.4749 179.195C73.5827 181.013 74.7287 182.984 75.89 185.116C76.0123 185.337 76.1345 185.551 76.2491 185.781C76.9443 187.064 77.6472 188.409 78.3501 189.807C78.48 190.067 78.6099 190.319 78.7397 190.586C78.8161 190.731 78.8925 190.884 78.9613 191.029C79.0606 191.228 79.1599 191.434 79.2593 191.633C79.8628 192.87 80.474 194.154 81.0776 195.476C81.1769 195.697 81.2839 195.919 81.3832 196.14C81.5283 196.454 81.6659 196.767 81.811 197.088C81.9715 197.447 82.1319 197.814 82.2923 198.18C82.3917 198.409 82.491 198.646 82.5903 198.876C83.4995 200.969 84.3933 203.154 85.2796 205.438C85.4095 205.782 85.547 206.126 85.6769 206.477C85.8526 206.936 86.0283 207.402 86.1964 207.868C86.3492 208.28 86.502 208.701 86.6624 209.121C86.7847 209.457 86.9069 209.793 87.0215 210.129C87.1208 210.397 87.2125 210.664 87.3042 210.939C87.8084 212.368 88.305 213.835 88.7863 215.332C88.8398 215.485 88.8857 215.63 88.9315 215.783H88.9391Z" fill="#6AAABD"/>
<path d="M89.1446 216.432C89.0759 216.211 89.0071 215.997 88.9384 215.783H73.9258C72.3214 206.187 71.6796 197.768 71.565 190.701C71.4886 185.911 71.649 181.747 71.9088 178.278C71.9546 178.355 72.0005 178.431 72.054 178.508C72.1915 178.729 72.329 178.958 72.4742 179.187C73.582 181.006 74.728 182.977 75.8892 185.108C76.0115 185.33 76.1337 185.544 76.2483 185.773C76.9436 187.057 77.6464 188.401 78.3493 189.799C78.4792 190.059 78.6091 190.311 78.739 190.579C78.8154 190.724 78.8918 190.877 78.9605 191.022C79.0598 191.22 79.1592 191.427 79.2585 191.625C79.862 192.863 80.4732 194.147 81.0768 195.468C81.1761 195.69 81.2831 195.911 81.3824 196.133C81.5276 196.446 81.6651 196.759 81.8102 197.08C81.9707 197.439 82.1311 197.806 82.2916 198.173C82.3909 198.402 82.4902 198.639 82.5895 198.868C83.4987 200.961 84.3926 203.147 85.2788 205.431C85.4087 205.775 85.5462 206.118 85.6761 206.47C85.8518 206.928 86.0275 207.394 86.1956 207.86C86.3484 208.273 86.5012 208.693 86.6616 209.113C86.7839 209.45 86.9061 209.786 87.0207 210.122C87.12 210.389 87.2117 210.657 87.3034 210.932C87.8076 212.36 88.3042 213.827 88.7856 215.325C88.839 215.47 88.8849 215.623 88.9307 215.775C88.9995 215.989 89.0682 216.203 89.137 216.425L89.1446 216.432Z" fill="#032531"/>
<path opacity="0.3" d="M112.844 215.783H107.58C106.969 185.895 100.36 172.716 97.2964 168.178C97.0061 167.75 96.7463 167.398 96.5324 167.123C96.0434 166.497 95.7607 166.222 95.7607 166.222L96.5324 163.884L100.1 153.127C100.383 153.975 100.666 154.854 100.948 155.755C101.521 157.573 102.094 159.506 102.667 161.539C102.759 161.867 102.851 162.203 102.942 162.539C103.019 162.822 103.095 163.105 103.172 163.395C103.523 164.686 103.867 166.016 104.203 167.383C104.333 167.91 104.463 168.453 104.593 168.995C104.715 169.515 104.837 170.042 104.959 170.569C105.028 170.875 105.097 171.173 105.166 171.486C105.227 171.769 105.295 172.051 105.357 172.334C105.609 173.472 105.853 174.634 106.098 175.81C106.182 176.207 106.258 176.612 106.342 177.025C106.426 177.43 106.503 177.842 106.579 178.255C106.655 178.667 106.739 179.08 106.816 179.5C106.892 179.92 106.969 180.341 107.045 180.761C107.121 181.189 107.198 181.609 107.274 182.037C107.351 182.48 107.427 182.923 107.503 183.381C107.572 183.802 107.641 184.222 107.71 184.642C107.763 184.963 107.817 185.291 107.862 185.62C107.901 185.857 107.939 186.094 107.977 186.338C108.092 187.102 108.214 187.881 108.329 188.668C108.527 190.043 108.718 191.442 108.894 192.87C108.947 193.329 109.009 193.787 109.062 194.253C109.268 196.01 109.467 197.798 109.643 199.624C109.673 199.914 109.696 200.205 109.727 200.487C109.765 200.93 109.811 201.381 109.849 201.832C109.887 202.26 109.925 202.68 109.956 203.108C110.002 203.612 110.04 204.124 110.078 204.643C110.116 205.155 110.155 205.675 110.193 206.194C110.193 206.248 110.2 206.301 110.208 206.355C110.239 206.821 110.269 207.287 110.3 207.753C110.338 208.334 110.376 208.914 110.407 209.503C110.422 209.808 110.445 210.121 110.46 210.427C110.475 210.763 110.498 211.099 110.514 211.435C110.529 211.802 110.552 212.169 110.567 212.536C110.621 213.613 110.659 214.705 110.697 215.798H112.836L112.844 215.783Z" fill="#032531"/>
<path d="M88.9386 215.783H60.556L54.5586 202.528L49.3711 191.068L46.2998 184.276C46.2998 184.276 52.725 182.526 61.4881 184.207C62.6341 184.429 63.8183 184.704 65.0331 185.048C66.8438 185.567 68.7232 186.239 70.6485 187.11C70.9464 187.248 71.2444 187.385 71.5424 187.531C74.2469 188.829 77.0202 190.525 79.7783 192.718C80.2061 193.62 80.6416 194.536 81.0694 195.476C81.1688 195.698 81.2757 195.919 81.375 196.141C81.5202 196.454 81.6577 196.767 81.8029 197.088C81.9633 197.447 82.1238 197.814 82.2842 198.181C82.3835 198.41 82.4828 198.647 82.5822 198.876C83.4913 200.969 84.3852 203.154 85.2714 205.439C85.4013 205.783 85.5388 206.126 85.6687 206.478C85.8444 206.936 86.0202 207.402 86.1882 207.868C86.341 208.281 86.5015 208.701 86.6543 209.121C86.7765 209.457 86.8988 209.794 87.0134 210.13C87.1127 210.397 87.2044 210.664 87.296 210.94C87.8003 212.368 88.2969 213.835 88.7782 215.333C88.8317 215.478 88.8775 215.63 88.9234 215.783H88.9386Z" fill="white"/>
<path d="M79.6482 215.783H42.3268C40.1647 200.358 46.2996 184.275 46.2996 184.275C67.1034 192.076 76.577 209.006 79.6482 215.783Z" fill="#E4E4E4"/>
<path d="M46.2992 215.783C46.2992 215.783 44.5573 204.583 48.6371 190.785C48.6371 190.785 63.8713 195.797 74.2999 215.783H46.2992Z" fill="#032531"/>
<path d="M74.308 215.784H46.2998C46.2998 215.784 53.8252 200.274 60.1129 197.807C64.6969 201.657 69.9227 207.402 74.3004 215.784H74.308Z" fill="#6AAABD"/>
<path opacity="0.3" d="M88.938 215.783V215.814H86.7071C86.7071 215.814 86.7071 215.791 86.6919 215.783C82.7343 204.461 76.4466 196.209 71.664 191.129C71.6258 191.091 71.5952 191.052 71.5647 191.022C67.8975 187.141 65.1394 185.139 65.0325 185.063C64.6963 183.527 65.7048 172.701 66.0562 169.11L66.2701 169.935C67.9204 172.166 69.838 174.947 71.9085 178.286C71.9543 178.362 72.0001 178.439 72.0536 178.515C72.1911 178.737 72.3287 178.966 72.4738 179.195C73.5816 181.013 74.7276 182.985 75.8889 185.116C76.0111 185.338 76.1334 185.552 76.248 185.781C76.9432 187.064 77.6461 188.409 78.349 189.807C78.4789 190.067 78.6087 190.319 78.7386 190.586C78.815 190.732 78.8914 190.884 78.9602 191.03C79.0595 191.228 79.1588 191.434 79.2581 191.633C79.8617 192.871 80.4729 194.154 81.0765 195.476C81.1758 195.698 81.2827 195.919 81.3821 196.141C81.5272 196.454 81.6647 196.767 81.8099 197.088C81.9703 197.447 82.1308 197.814 82.2912 198.181C82.3905 198.41 82.4899 198.647 82.5892 198.876C83.4983 200.969 84.3922 203.154 85.2785 205.439C85.4083 205.782 85.5459 206.126 85.6757 206.478C85.8515 206.936 86.0272 207.402 86.1953 207.868C86.3481 208.281 86.5009 208.701 86.6613 209.121C86.7835 209.457 86.9058 209.793 87.0204 210.13C87.1197 210.397 87.2114 210.664 87.3031 210.939C87.8073 212.368 88.3039 213.835 88.7852 215.332C88.8387 215.478 88.8845 215.63 88.9304 215.783H88.938Z" fill="#032531"/>
<path opacity="0.3" d="M74.3 215.775H73.9256C65.514 203.245 58.5387 202.863 55.1236 203.757C53.6643 204.139 52.8545 204.75 52.8545 204.75L54.436 202.244L58.1108 196.201L58.638 196.606C59.1193 196.98 59.6083 197.378 60.1125 197.79C60.4639 198.088 60.823 198.394 61.1821 198.715C61.3196 198.837 61.4571 198.959 61.5947 199.081C61.7704 199.242 61.9461 199.402 62.1218 199.57C62.4809 199.899 62.84 200.243 63.1991 200.602C63.3748 200.77 63.5505 200.953 63.7262 201.129C64.0853 201.488 64.4444 201.862 64.8035 202.252C64.9792 202.435 65.1549 202.626 65.323 202.817C65.3688 202.871 65.4147 202.917 65.4605 202.97C65.7661 203.306 66.0641 203.65 66.3697 204.002C66.5301 204.185 66.6905 204.376 66.851 204.567C66.9427 204.674 67.0343 204.789 67.126 204.903C67.2559 205.056 67.3858 205.209 67.508 205.369C67.6608 205.56 67.8213 205.759 67.9741 205.95C68.4019 206.485 68.8221 207.042 69.2347 207.615C69.3798 207.806 69.5173 208.005 69.6625 208.204C69.8229 208.425 69.9834 208.654 70.1438 208.891C70.182 208.945 70.2202 208.998 70.2584 209.052C70.4112 209.281 70.5717 209.502 70.7245 209.739C70.8543 209.93 70.9766 210.114 71.0988 210.305C71.4655 210.862 71.8323 211.443 72.1837 212.031C72.3289 212.268 72.474 212.505 72.6115 212.749C72.7032 212.895 72.7873 213.047 72.8713 213.2C73.0012 213.429 73.1387 213.651 73.2609 213.88C73.6047 214.491 73.9485 215.118 74.2847 215.76L74.3 215.775Z" fill="#032531"/>
<path opacity="0.3" d="M220.873 215.813H213.034C212.843 215.057 208.779 198.348 210.452 185.185C211.522 185.23 212.568 185.33 213.592 185.467C214.975 185.658 216.304 185.941 217.588 186.285C219.23 194.673 220.491 204.537 220.881 215.813H220.873Z" fill="#032531"/>
<path d="M225.726 215.852L216.122 194.59L213.838 189.532C223.449 189.96 230.463 195.002 235.322 200.564C236.246 201.626 237.094 202.704 237.866 203.773C238.11 204.117 238.355 204.453 238.584 204.797C242.457 210.466 244.199 215.6 244.283 215.837V215.844H225.718L225.726 215.852Z" fill="#E4E4E4"/>
<path d="M216.053 215.852H230.462C227.712 205.263 220.377 196.355 216.435 192.145C214.861 190.464 213.83 189.54 213.83 189.54C212.363 201.107 216.053 215.86 216.053 215.86V215.852Z" fill="#C6CACB"/>
<path d="M216.84 207.021C217.291 209.664 217.971 212.613 218.949 215.852H230.463C229.607 212.552 228.3 209.412 226.795 206.532C223.472 200.16 219.155 195.041 216.443 192.146C216.443 192.146 215.228 197.578 216.848 207.028L216.84 207.021Z" fill="#032531"/>
<path opacity="0.3" d="M238.683 204.568L238.584 204.797L235.107 213.086L231.822 215.837C232.579 205.37 235.321 200.557 235.321 200.557C236.246 201.619 237.094 202.696 237.866 203.765C237.995 203.559 238.133 203.353 238.27 203.147L238.683 204.552V204.568Z" fill="#032531"/>
<path d="M268.426 184.207L265.675 190.296L259.059 204.934L254.131 215.836H231.822C231.822 215.836 233.671 210.252 237.873 203.765C238.003 203.559 238.141 203.353 238.278 203.146C243.939 194.635 253.627 184.856 268.433 184.199L268.426 184.207Z" fill="white"/>
<path d="M265.752 215.837H248.432C251.74 203.108 260.549 192.405 265.293 187.339C267.18 185.322 268.426 184.207 268.426 184.207C270.19 198.112 265.752 215.844 265.752 215.844V215.837Z" fill="#E4E4E4"/>
<path d="M264.804 205.225C264.262 208.395 263.452 211.948 262.268 215.837H248.432C249.463 211.872 251.029 208.098 252.84 204.629V204.614C256.843 196.966 262.031 190.816 265.293 187.332C265.293 187.332 266.752 193.857 264.804 205.217V205.225Z" fill="#032531"/>
<path d="M274.377 215.836H248.432C249.463 211.871 251.029 208.097 252.84 204.629V204.613L264.804 205.217L274.377 215.829V215.836Z" fill="#6AAABD"/>
<path opacity="0.3" d="M258.303 206.554C257.76 209.35 256.797 214.744 257.118 215.73L254.146 215.753L248.432 215.791C248.6 215.141 248.783 214.5 248.982 213.865C249.028 213.72 249.073 213.575 249.119 213.43C249.241 213.04 249.371 212.651 249.509 212.269C249.555 212.139 249.601 212.009 249.646 211.879C249.685 211.764 249.73 211.65 249.769 211.535C249.822 211.398 249.868 211.26 249.921 211.123C249.99 210.932 250.067 210.741 250.135 210.557C250.502 209.595 250.907 208.647 251.327 207.723C251.404 207.562 251.472 207.394 251.549 207.234C251.717 206.875 251.885 206.508 252.061 206.157L252.275 205.721C252.397 205.477 252.519 205.232 252.649 204.988C252.718 204.858 252.786 204.72 252.855 204.59V204.575H252.863L258.646 204.873C258.646 204.873 258.509 205.545 258.318 206.562L258.303 206.554Z" fill="#032531"/>
<path d="M54.8852 100.028C53.7622 97.6219 52.8606 95.2077 51.9133 92.6712L59.0338 96.1703L59.9964 94.543C60.3326 94.0082 60.6916 93.4887 61.0354 92.9615L63.1135 89.8291C63.6178 92.3579 64.1067 94.7951 64.7408 97.1941C67.285 96.9572 69.9131 96.835 72.442 96.7662C71.6627 97.5837 70.8223 98.3935 70.0736 99.2569L67.7968 101.87C69.7756 103.52 71.8231 105.124 73.9012 106.683C71.3342 106.607 68.7366 106.591 66.1237 106.637C66.116 107.783 66.2306 108.96 66.2994 110.106C66.3911 111.259 66.4216 112.382 66.5668 113.521C64.588 111.87 62.7392 110.182 60.8444 108.394C59.8589 109.135 58.8657 109.907 57.8648 110.686C56.9175 111.481 55.9548 112.306 54.9998 113.139C55.0915 111.893 55.1374 110.633 55.2825 109.387L55.7256 105.629L47.9863 103.925C50.2172 102.504 52.6085 101.236 54.8929 100.028H54.8852Z" fill="white"/>
<path d="M81.8703 57.092C81.9773 54.5173 82.1301 51.8662 82.3822 49.1846L87.2871 55.4188C88.3414 54.7236 89.4339 54.0742 90.4958 53.4095L92.0926 52.4239L93.7352 51.5071C93.0171 53.9137 92.5052 56.4426 91.9933 58.8339C94.4228 59.7583 96.7988 60.7363 99.1138 61.7677C97.0051 62.5851 94.8125 63.3873 92.7267 64.3729C93.8116 66.7337 94.9423 69.0562 96.1113 71.3329C93.8345 70.164 91.512 69.0333 89.1512 67.9484C88.1657 70.0341 87.3558 72.2268 86.546 74.3355C85.5222 72.0205 84.5443 69.6521 83.6122 67.215C81.2209 67.7269 78.6921 68.2387 76.2855 68.9569L77.2023 67.3143L78.1878 65.7175C78.8525 64.6556 79.5019 63.5631 80.1971 62.5087L73.9629 57.6039C76.6445 57.3517 79.2956 57.1989 81.8703 57.092Z" fill="white"/>
<path d="M124.807 30.1077C126.014 27.8234 127.29 25.4244 128.703 23.2012L130.407 30.9405L134.166 30.4974C135.411 30.3522 136.679 30.3064 137.917 30.2147C137.077 31.1773 136.259 32.1323 135.465 33.0797C134.678 34.0805 133.914 35.0737 133.173 36.0593C134.96 37.9464 136.656 39.8029 138.299 41.7817C137.161 41.6441 136.038 41.6059 134.884 41.5142C133.738 41.4455 132.561 41.3309 131.415 41.3385C131.37 43.9514 131.385 46.5414 131.461 49.1161C129.91 47.038 128.298 44.9828 126.648 43.0117L124.035 45.2884C123.172 46.0371 122.362 46.8775 121.545 47.6568C121.621 45.128 121.736 42.4998 121.972 39.9557C119.573 39.3216 117.136 38.8403 114.607 38.3284L117.74 36.2503C118.267 35.9065 118.787 35.5474 119.321 35.2113L120.949 34.2486L117.45 27.1281C119.978 28.0755 122.4 28.977 124.807 30.1001V30.1077Z" fill="white"/>
<path d="M317.694 104.147C315.509 103.161 313.171 102.329 310.955 101.549L318.465 99.0357L318.114 97.332C317.984 96.7666 317.831 96.2089 317.686 95.6435L316.807 92.2514C318.931 93.3592 321.154 94.5205 323.294 95.8116C324.982 93.8023 326.518 91.7624 328.092 89.6309C328.237 90.922 328.428 92.1903 328.519 93.4738L328.779 97.3091C331.438 97.3014 334.058 97.3702 336.694 97.5001C334.693 99.2572 332.668 100.946 330.628 102.588C331.407 103.612 332.072 104.682 332.79 105.751C333.485 106.828 334.234 107.906 334.891 109.014C332.378 108.311 329.78 107.715 327.259 107.18C326.816 108.349 326.365 109.502 325.914 110.633C325.41 111.779 324.906 112.902 324.394 114.002C323.928 112.925 323.515 111.84 323.011 110.794L321.498 107.661L314.049 110.381C315.386 108.364 316.517 106.309 317.701 104.147H317.694Z" fill="white"/>
<path d="M294.201 66.7719C291.733 66.9094 289.342 67.0851 286.996 67.3525L292.673 61.8288C291.962 60.912 291.221 60.0334 290.488 59.1242L289.38 57.7643L288.211 56.4655C290.686 56.4502 293.085 56.6565 295.614 56.8475C296.225 54.3416 296.783 51.7898 297.272 49.1846C298.647 51.4002 300.007 53.5547 301.199 55.8237C303.567 54.6854 305.981 53.5852 308.434 52.5385C307.38 54.991 306.287 57.4052 305.149 59.7736C307.418 60.9655 309.572 62.333 311.788 63.7006C309.183 64.1972 306.631 64.7473 304.125 65.3585C304.308 67.8873 304.515 70.2863 304.507 72.7616L303.208 71.5927L301.848 70.4849C300.939 69.7515 300.06 69.0027 299.144 68.2999L293.62 73.9764C293.88 71.6309 294.063 69.2396 294.201 66.7719Z" fill="white"/>
<path d="M256.826 43.286C254.664 44.4702 252.617 45.6009 250.592 46.9379L253.312 39.4889L250.179 37.9762C249.125 37.472 248.048 37.0594 246.971 36.5934C248.071 36.0815 249.194 35.5773 250.34 35.073C251.471 34.6146 252.624 34.1715 253.793 33.7284C253.258 31.2072 252.663 28.6096 251.96 26.096C253.075 26.7454 254.145 27.5018 255.222 28.197C256.291 28.9152 257.369 29.5799 258.385 30.3591C260.02 28.3193 261.716 26.2946 263.473 24.293C263.603 26.9288 263.672 29.5493 263.664 32.208L267.499 32.4678C268.791 32.5594 270.051 32.7504 271.342 32.8956C269.211 34.4618 267.179 36.0051 265.162 37.6935C266.445 39.8327 267.606 42.056 268.722 44.1799L265.33 43.3013C264.764 43.1561 264.207 43.0033 263.641 42.8735L261.937 42.522L259.424 50.0321C258.645 47.8165 257.812 45.4787 256.826 43.2936V43.286Z" fill="white"/>
</g>
</svg>
