<svg width="382" height="242" viewBox="0 0 382 242" fill="none" xmlns="http://www.w3.org/2000/svg">
<mask id="mask0_1_8136" style="mask-type:alpha" maskUnits="userSpaceOnUse" x="0" y="0" width="382" height="242">
<path d="M0 32C0 14.3269 14.3269 0 32 0H350C367.673 0 382 14.3269 382 32V242H0V32Z" fill="#542828"/>
</mask>
<g mask="url(#mask0_1_8136)">
<path d="M382 -11.6709H1V242H382V-11.6709Z" fill="#FFFEEC"/>
<path d="M382 194.295H1V242.005H382V194.295Z" fill="#635341"/>
<g style="mix-blend-mode:multiply" opacity="0.4">
<path d="M382 194.295H1V199.16H382V194.295Z" fill="#635341"/>
</g>
<path d="M247.746 49.6212C249.834 49.4183 250.967 48.3072 252.196 47.6426C252.099 47.3382 252.038 47.0236 252.038 46.6888C252.049 44.9435 253.476 43.5331 255.229 43.5433C256.199 43.5483 257.047 43.9999 257.621 44.6797C257.662 44.6087 257.698 44.5427 257.738 44.4717C258.089 42.6706 259.674 41.311 261.584 41.3211C262.163 41.3211 262.712 41.4632 263.209 41.6965C263.225 41.6762 263.245 41.661 263.26 41.6458C263.875 40.2912 265.241 39.3425 266.831 39.3526C268.757 39.3628 270.337 40.7783 270.636 42.6148C270.682 42.7214 270.738 42.8178 270.774 42.9243C272.612 43.1678 274.086 44.5326 274.477 46.3134C274.721 46.2525 274.975 46.2119 275.239 46.2119C276.976 46.222 278.373 47.6375 278.363 49.3777C278.363 49.398 278.363 49.4132 278.363 49.4335C278.373 49.5603 278.566 49.88 280.141 50.1641C282.158 50.5344 284.881 51.8535 284.159 52.442C283.443 53.0306 275.198 52.4979 275.198 52.4979C274.06 52.4928 273.075 51.8738 272.531 50.9707C272.526 50.9707 272.521 50.9707 272.516 50.9606C271.83 51.3868 271.033 51.6404 270.164 51.6354C268.995 51.6252 267.944 51.1585 267.162 50.4076C266.151 51.8941 264.439 52.8733 262.503 52.8581C261.467 52.853 260.497 52.5587 259.669 52.0615C258.922 52.7312 257.947 53.1472 256.859 53.1422C255.584 53.132 254.467 52.5435 253.705 51.6404C253.7 51.6404 253.689 51.6404 253.684 51.6404C252.831 51.6557 245.358 51.2498 244.764 51.2498C244.17 51.2498 244.297 49.9459 247.741 49.6111L247.746 49.6212Z" fill="#ADE0EE"/>
<path d="M129.91 41.6513C131.287 41.5092 132.034 40.7685 132.841 40.3271C132.78 40.1292 132.735 39.9161 132.735 39.698C132.735 38.5412 133.674 37.6077 134.828 37.6077C135.468 37.6077 136.032 37.902 136.413 38.3485C136.438 38.3028 136.463 38.2571 136.489 38.2115C136.712 37.0192 137.754 36.1162 139.014 36.1162C139.4 36.1162 139.76 36.2075 140.09 36.3597C140.101 36.3495 140.111 36.3394 140.121 36.3242C140.522 35.4262 141.421 34.792 142.473 34.792C143.743 34.792 144.795 35.7204 145.003 36.933C145.033 36.9989 145.069 37.0649 145.094 37.1359C146.308 37.2881 147.289 38.1861 147.553 39.3631C147.716 39.3226 147.883 39.2921 148.056 39.2921C149.204 39.2921 150.134 40.2206 150.134 41.3722C150.134 41.3824 150.134 41.3976 150.134 41.4128C150.144 41.494 150.271 41.7071 151.312 41.8897C152.643 42.1231 154.452 42.9856 153.979 43.3762C153.512 43.7669 148.056 43.4523 148.056 43.4523C147.304 43.4523 146.649 43.0515 146.283 42.4529C146.283 42.4529 146.283 42.4529 146.273 42.4478C145.826 42.7319 145.297 42.9044 144.723 42.9044C143.951 42.9044 143.255 42.6 142.732 42.1079C142.072 43.0972 140.944 43.7466 139.664 43.7466C138.978 43.7466 138.338 43.5589 137.784 43.2291C137.296 43.6755 136.651 43.9546 135.935 43.9546C135.092 43.9546 134.35 43.569 133.842 42.9754C133.842 42.9754 133.832 42.9754 133.827 42.9754C133.263 42.9906 128.325 42.7522 127.929 42.7522C127.533 42.7522 127.614 41.8897 129.89 41.6563L129.91 41.6513Z" fill="#ADE0EE"/>
<path d="M203.094 28.3588C202.037 28.2472 201.463 27.684 200.843 27.339C200.889 27.1868 200.924 27.0245 200.924 26.8571C200.924 25.9692 200.203 25.2539 199.319 25.2539C198.831 25.2539 198.395 25.4771 198.1 25.8221C198.08 25.7866 198.059 25.7511 198.039 25.7155C197.866 24.8023 197.069 24.1073 196.098 24.1073C195.804 24.1073 195.524 24.1783 195.275 24.295C195.27 24.2848 195.26 24.2798 195.25 24.2696C194.945 23.5796 194.254 23.0977 193.447 23.0977C192.471 23.0977 191.664 23.8079 191.506 24.7364C191.481 24.7871 191.455 24.8378 191.435 24.8936C190.505 25.0103 189.753 25.7003 189.55 26.5983C189.428 26.5679 189.296 26.5425 189.164 26.5425C188.28 26.5425 187.569 27.2579 187.569 28.1356C187.569 28.1457 187.569 28.1559 187.569 28.166C187.564 28.232 187.468 28.3892 186.665 28.5313C185.644 28.7139 184.262 29.3735 184.618 29.6728C184.978 29.9721 189.159 29.7286 189.159 29.7286C189.733 29.7286 190.236 29.4191 190.515 28.9625C190.515 28.9625 190.515 28.9625 190.521 28.9625C190.866 29.1807 191.272 29.3126 191.709 29.3126C192.304 29.3126 192.837 29.0792 193.238 28.6987C193.746 29.4547 194.61 29.9569 195.59 29.9569C196.114 29.9569 196.606 29.8098 197.028 29.5612C197.404 29.9011 197.897 30.1193 198.445 30.1193C199.091 30.1193 199.659 29.825 200.051 29.3684H200.061C200.493 29.3785 204.282 29.1959 204.582 29.1959C204.882 29.1959 204.821 28.5364 203.078 28.3537L203.094 28.3588Z" fill="#ADE0EE"/>
<path d="M61.0164 70.4235L60.6768 70.4453L60.9947 75.3817L61.3343 75.3599L61.0164 70.4235Z" fill="#E9C7AC"/>
<path d="M53.6588 70.4181L53.3418 75.3545L53.6815 75.3763L53.9985 70.4398L53.6588 70.4181Z" fill="#E9C7AC"/>
<path d="M52.2736 75.2822C52.2736 79.1127 53.183 82.2176 57.3384 82.2176C61.4938 82.2176 62.4032 79.1127 62.4032 75.2822H52.2686H52.2736Z" fill="#CD6F19"/>
<g style="mix-blend-mode:multiply" opacity="0.3">
<path d="M57.3389 82.2176C61.6061 82.2176 62.4036 79.1127 62.4036 75.2822H57.3389C57.3389 75.2822 61.7635 76.6977 57.3389 82.2176Z" fill="#CD6F19"/>
</g>
<path d="M62.408 75.2929C62.408 75.5669 60.1373 75.785 57.3382 75.785C54.5391 75.785 52.2734 75.5669 52.2734 75.2929C52.2734 75.0189 54.5442 74.8008 57.3382 74.8008C60.1322 74.8008 62.408 75.024 62.408 75.2929Z" fill="#FFD478"/>
<path d="M62.1086 75.2774C62.1086 75.3992 59.8937 75.5767 57.2623 75.5767C54.6308 75.5767 52.5684 75.3992 52.5684 75.2774C52.5684 75.1556 54.707 74.9121 57.3385 74.9121C59.9699 74.9121 62.1086 75.1556 62.1086 75.2774Z" fill="#FFEDBA"/>
<g style="mix-blend-mode:multiply" opacity="0.4">
<path d="M58.2269 75.7799C60.5992 75.7394 62.4077 75.5364 62.4077 75.2929C62.4077 75.0494 60.4722 74.8312 57.9678 74.8008C59.38 75.1711 58.2319 75.7698 58.2269 75.7749V75.7799Z" fill="#FFD478"/>
</g>
<path d="M75.5052 35.4516C70.3643 23.9755 57.3392 24.0821 57.3392 24.0821C57.3392 24.0821 44.314 23.9806 39.1731 35.4516C34.0321 46.9277 41.7588 56.6433 43.9331 58.7132C46.1073 60.7781 52.5691 65.7247 53.0415 68.3274C53.519 70.93 53.0415 71.6352 57.3392 71.8432C61.6369 71.6352 61.1593 70.93 61.6369 68.3274C62.1144 65.7247 68.571 60.7832 70.7453 58.7132C72.9195 56.6433 80.6462 46.9277 75.5052 35.4516Z" fill="#EDF0F0"/>
<path d="M60.5398 24.4119C60.4433 24.3967 60.3569 24.3814 60.2655 24.3662C63.3287 25.7766 70.8674 30.7486 69.0336 45.0658C66.773 62.7111 60.8598 59.9765 59.6152 71.5998C59.8083 71.5592 59.9861 71.5135 60.1385 71.4577C60.2096 69.9966 60.9157 65.5827 66.4783 59.9562C72.3457 54.0254 80.9766 32.0474 60.5398 24.4068V24.4119Z" fill="#E14846"/>
<path d="M57.9987 71.8023C58.207 71.787 58.4051 71.7718 58.588 71.7515C59.0756 69.0169 61.3312 56.7038 63.4292 51.2092C65.7965 45.0095 66.9852 30.1393 57.8564 24.1172C57.8564 24.1172 61.9966 32.3869 60.2034 44.3804C58.5473 55.4506 58.0698 69.6816 58.0038 71.8073L57.9987 71.8023Z" fill="#E14846"/>
<path d="M51.2536 51.2094C53.3517 56.704 55.6072 69.0171 56.0949 71.7517C56.2778 71.772 56.4759 71.7872 56.6842 71.8025C56.6232 69.6767 56.1406 55.4457 54.4845 44.3755C52.6913 32.382 56.8315 24.1123 56.8315 24.1123C47.7027 30.1345 48.8914 45.0046 51.2587 51.2044L51.2536 51.2094Z" fill="#E14846"/>
<path d="M54.4128 24.3662C54.3214 24.3814 54.235 24.3967 54.1385 24.4119C33.7067 32.0524 42.3377 54.0305 48.2051 59.9613C53.7677 65.5827 54.4789 69.9965 54.5449 71.4628C54.6973 71.5135 54.8751 71.5642 55.0682 71.6048C53.8236 59.9816 47.9053 62.7162 45.6448 45.0708C43.8109 30.7536 51.3445 25.7817 54.4128 24.3713V24.3662Z" fill="#E14846"/>
<path d="M61.4542 69.4385C56.7603 70.1944 53.2246 69.4385 53.2246 69.4385C53.4938 71.1431 53.7377 71.6657 57.3394 71.8433C60.9411 71.6708 61.19 71.1432 61.4542 69.4436V69.4385Z" fill="#CD6F19"/>
<g style="mix-blend-mode:multiply">
<path d="M63.5014 57.232C58.7871 65.2987 58.0709 69.7633 58.0709 69.7633C59.6101 71.5999 56.6383 71.7724 56.6485 71.7978C56.8669 71.813 57.0904 71.8282 57.3393 71.8384C61.637 71.6303 61.1595 70.9251 61.637 68.3225C62.1145 65.7198 68.5712 60.7783 70.7455 58.7083C72.9197 56.6384 80.6464 46.9228 75.5054 35.4467C70.3645 23.9706 57.3393 24.0772 57.3393 24.0772C70.6134 27.8975 68.5814 48.5311 63.5014 57.2269V57.232Z" fill="#D1D3D4"/>
</g>
<path d="M176.574 97.3978L176.346 97.4121L176.556 100.744L176.784 100.729L176.574 97.3978Z" fill="#E9C7AC"/>
<path d="M171.613 97.3811L171.403 100.713L171.631 100.727L171.841 97.3954L171.613 97.3811Z" fill="#E9C7AC"/>
<path d="M170.679 100.665C170.679 103.247 171.293 105.343 174.098 105.343C176.902 105.343 177.516 103.247 177.516 100.665H170.679Z" fill="#CD6F19"/>
<g style="mix-blend-mode:multiply" opacity="0.3">
<path d="M174.098 105.343C176.973 105.343 177.517 103.247 177.517 100.665H174.098C174.098 100.665 177.08 101.619 174.098 105.343Z" fill="#CD6F19"/>
</g>
<path d="M177.516 100.67C177.516 100.852 175.987 101 174.098 101C172.208 101 170.679 100.852 170.679 100.67C170.679 100.487 172.208 100.335 174.098 100.335C175.987 100.335 177.516 100.487 177.516 100.67Z" fill="#FFD478"/>
<path d="M177.318 100.66C177.318 100.741 175.825 100.863 174.047 100.863C172.269 100.863 170.882 100.741 170.882 100.66C170.882 100.579 172.325 100.411 174.103 100.411C175.881 100.411 177.323 100.573 177.323 100.66H177.318Z" fill="#FFEDBA"/>
<g style="mix-blend-mode:multiply" opacity="0.4">
<path d="M174.696 100.994C176.297 100.969 177.516 100.832 177.516 100.67C177.516 100.507 176.21 100.36 174.519 100.34C175.474 100.588 174.696 100.994 174.691 100.999L174.696 100.994Z" fill="#FFD478"/>
</g>
<path d="M186.355 73.7911C182.886 66.0491 174.102 66.1201 174.102 66.1201C174.102 66.1201 165.314 66.0491 161.849 73.7911C158.38 81.5332 163.592 88.088 165.06 89.4832C166.528 90.8784 170.887 94.2117 171.207 95.9671C171.527 97.7225 171.207 98.1994 174.107 98.3364C177.003 98.1943 176.683 97.7225 177.003 95.9671C177.323 94.2117 181.682 90.8734 183.15 89.4832C184.618 88.088 189.83 81.5332 186.36 73.7911H186.355Z" fill="#EDF0F0"/>
<path d="M176.256 66.3439C176.19 66.3338 176.134 66.3236 176.073 66.3135C178.14 67.2673 183.225 70.6208 181.986 80.2806C180.462 92.1879 176.469 90.3412 175.631 98.1847C175.763 98.1543 175.88 98.1238 175.981 98.0883C176.027 97.1041 176.51 94.126 180.259 90.331C184.216 86.3281 190.038 71.4985 176.256 66.349V66.3439Z" fill="#E14846"/>
<path d="M174.544 98.3162C174.686 98.3061 174.818 98.296 174.94 98.2807C175.27 96.434 176.789 88.1288 178.206 84.4202C179.807 80.2397 180.604 70.2044 174.447 66.1406C174.447 66.1406 177.241 71.7214 176.032 79.8084C174.915 87.2765 174.59 96.8754 174.549 98.3112L174.544 98.3162Z" fill="#E14846"/>
<path d="M169.987 84.42C171.404 88.1286 172.923 96.4338 173.253 98.2806C173.38 98.2907 173.507 98.3059 173.65 98.3161C173.609 96.8803 173.284 87.2814 172.166 79.8133C170.957 71.7212 173.751 66.1455 173.751 66.1455C167.594 70.2093 168.392 80.2395 169.992 84.425L169.987 84.42Z" fill="#E14846"/>
<path d="M172.121 66.3078C172.06 66.318 171.999 66.3281 171.933 66.3382C158.146 71.4928 163.972 86.3224 167.93 90.3203C171.684 94.1152 172.161 97.0933 172.207 98.0776C172.309 98.1131 172.425 98.1435 172.558 98.174C171.719 90.3304 167.726 92.1772 166.202 80.2699C164.968 70.6101 170.048 67.2565 172.116 66.3027L172.121 66.3078Z" fill="#E14846"/>
<path d="M176.876 96.7227C173.711 97.23 171.323 96.7227 171.323 96.7227C171.506 97.8692 171.669 98.2244 174.102 98.3462C176.53 98.2295 176.698 97.8743 176.876 96.7277V96.7227Z" fill="#CD6F19"/>
<g style="mix-blend-mode:multiply">
<path d="M178.253 88.4836C175.073 93.9274 174.59 96.9359 174.59 96.9359C175.631 98.1789 173.625 98.2956 173.63 98.3108C173.777 98.3209 173.93 98.3311 174.097 98.3412C176.993 98.1992 176.673 97.7274 176.993 95.9719C177.313 94.2165 181.672 90.8782 183.14 89.4881C184.608 88.0929 189.82 81.5381 186.35 73.796C182.881 66.054 174.097 66.125 174.097 66.125C183.053 68.7023 181.682 82.6238 178.253 88.4887V88.4836Z" fill="#D1D3D4"/>
</g>
<path d="M44.0321 154.86H43.4326V180.78H44.0321V154.86Z" fill="#FBB034"/>
<path d="M38.0526 159.635H37.4531V180.781H38.0526V159.635Z" fill="#FBB034"/>
<path d="M32.0789 164.241H31.4795V180.781H32.0789V164.241Z" fill="#FBB034"/>
<path d="M26.1053 168.676H25.5059V180.781H26.1053V168.676Z" fill="#FBB034"/>
<path d="M20.1258 172.511H19.5264V180.78H20.1258V172.511Z" fill="#FBB034"/>
<path d="M4.28629 181.079L3.85449 180.003C28.5535 170.085 48.8735 148.959 49.0716 148.746L49.9149 149.548C49.7117 149.761 29.2189 171.069 4.28629 181.084V181.079Z" fill="#5C8C96"/>
<path d="M10.0728 180.805L9.80859 180.287C35.0156 167.568 49.4021 152.744 49.5444 152.597L49.966 152.997C49.8238 153.145 35.3712 168.035 10.0728 180.805Z" fill="#5C8C96"/>
<path d="M50.5811 148.549H48.8691V181.019H50.5811V148.549Z" fill="#5C8C96"/>
<path d="M50.5808 179.928H1V182.825H50.5808V179.928Z" fill="#5C8C96"/>
<g style="mix-blend-mode:multiply">
<path d="M50.5808 181.019V148.549H48.8688V148.955C47.7664 150.081 42.2038 155.647 33.9336 162.085C34.2282 162.338 34.4924 162.628 34.7362 162.927C35.676 162.191 36.5854 161.471 37.454 160.766V162.983C36.8749 163.429 36.2653 163.886 35.6456 164.347C35.7319 164.525 35.8132 164.703 35.8894 164.89C36.4228 164.495 36.9511 164.099 37.454 163.713V179.933H35.4322C34.9598 181.693 34.5534 182.83 34.5534 182.83H50.5808V181.024V181.019ZM43.4281 179.928H38.0484V163.257C40.1007 161.684 41.8889 160.228 43.4281 158.934V179.928ZM43.4281 158.173C41.9092 159.462 40.1109 160.928 38.0484 162.521V160.279C40.0702 158.625 41.8736 157.067 43.4281 155.682V158.173ZM48.8637 179.928H44.0225V158.427C46.2577 156.524 47.8833 155.017 48.8637 154.079V179.928ZM48.8637 153.272C48.0204 154.094 46.3898 155.636 44.0225 157.666V155.149C46.2272 153.166 47.8782 151.573 48.8637 150.598V153.267V153.272Z" fill="#BCBEC0"/>
</g>
<path d="M143.946 188.416C121.005 182.642 101.426 182.947 89.0361 184.215C75.6096 185.595 67.507 188.37 67.4257 188.401L67.0244 187.249C67.1057 187.218 75.315 184.403 88.8684 183.008C101.365 181.724 121.111 181.409 144.246 187.234L143.946 188.416Z" fill="#8FCCB9"/>
<g style="mix-blend-mode:multiply" opacity="0.3">
<path d="M118.216 184.073C126.09 184.763 134.746 186.102 143.946 188.416L144.246 187.234C134.96 184.895 126.222 183.551 118.277 182.855C119.059 183.327 118.216 184.073 118.216 184.073Z" fill="#8FCCB9"/>
</g>
<path d="M144.485 179.243H66.8623V181.699H144.485V179.243Z" fill="#5C8C96"/>
<g style="mix-blend-mode:multiply">
<path d="M118.206 181.704C118.206 181.704 119.222 180.075 117.022 179.248H144.393V181.704H118.206Z" fill="#BCBEC0"/>
</g>
<path d="M147.481 142.491H63.7676V142.821H147.481V142.491Z" fill="#FBB034"/>
<path d="M147.481 144.287H63.7676V145.52H147.481V144.287Z" fill="#FBB034"/>
<g style="mix-blend-mode:multiply" opacity="0.4">
<path d="M115.879 145.515C115.879 145.515 116.118 144.658 115.092 144.282H144.393V145.515H115.879Z" fill="#FBB034"/>
</g>
<path d="M167.828 154.86H167.229V180.78H167.828V154.86Z" fill="#FBB034"/>
<path d="M173.803 159.635H173.203V180.781H173.803V159.635Z" fill="#FBB034"/>
<path d="M179.782 164.241H179.183V180.781H179.782V164.241Z" fill="#FBB034"/>
<path d="M185.755 168.676H185.155V180.781H185.755V168.676Z" fill="#FBB034"/>
<path d="M191.729 172.511H191.13V180.78H191.729V172.511Z" fill="#FBB034"/>
<path d="M206.969 181.08L207.401 180.004C182.702 170.086 162.382 148.96 162.184 148.747L161.341 149.549C161.544 149.762 182.037 171.07 206.969 181.085V181.08Z" fill="#5C8C96"/>
<path d="M201.183 180.806L201.447 180.288C176.24 167.569 161.854 152.745 161.712 152.598L161.29 152.998C161.432 153.146 175.885 168.036 201.183 180.806Z" fill="#5C8C96"/>
<path d="M162.387 148.549H160.675V181.019H162.387V148.549Z" fill="#5C8C96"/>
<path d="M210.256 179.928H160.675V182.825H210.256V179.928Z" fill="#5C8C96"/>
<g style="mix-blend-mode:multiply">
<path d="M210.257 179.928H207.214C195.154 175.052 184.156 167.523 176.048 161.085C179.324 163.642 181.763 165.991 183.566 168.127C184.09 168.492 184.618 168.857 185.156 169.218V170.177C185.37 170.476 185.568 170.775 185.756 171.064V169.624C187.488 170.785 189.281 171.937 191.135 173.058V174.641C189.363 173.596 187.666 172.551 186.04 171.516C186.264 171.881 186.467 172.236 186.65 172.586C188.087 173.489 189.586 174.403 191.135 175.311V179.923H188.174C187.844 181.83 186.96 182.819 186.96 182.819H210.262V179.923L210.257 179.928ZM191.73 179.928V175.666C194.178 177.092 196.764 178.522 199.482 179.928H191.73ZM200.752 179.928C197.567 178.304 194.559 176.645 191.73 174.991V173.418C195.682 175.788 199.878 178.015 204.232 179.928H200.747H200.752Z" fill="#BCBEC0"/>
</g>
<path d="M161.084 141.75H144.392V182.824H161.084V141.75Z" fill="#BB9355"/>
<path d="M159.023 137.347H146.384V141.75H159.023V137.347Z" fill="#9B703D"/>
<path d="M152.703 105.638C152.703 122.76 146.384 137.341 146.384 137.341H159.023C159.023 137.341 152.703 122.76 152.703 105.638Z" fill="#888B8A"/>
<path d="M148.511 137.768H144.392V141.75H148.511V137.768Z" fill="#AA8048"/>
<path d="M148.511 137.093H144.392V137.768H148.511V137.093Z" fill="#535852"/>
<path d="M146.454 124.287C146.454 131.202 144.396 137.092 144.396 137.092H148.516C148.516 137.092 146.454 131.202 146.454 124.287Z" fill="#5F3D31"/>
<path d="M161.085 137.768H156.965V141.75H161.085V137.768Z" fill="#AA8048"/>
<path d="M161.085 137.093H156.965V137.768H161.085V137.093Z" fill="#535852"/>
<path d="M159.022 124.287C159.022 131.202 156.965 137.092 156.965 137.092H161.085C161.085 137.092 159.022 131.202 159.022 124.287Z" fill="#5F3D31"/>
<path d="M148.075 144.094H146.571V153.023H148.075V144.094Z" fill="#5F3D31"/>
<path d="M150.33 144.094H148.826V153.023H150.33V144.094Z" fill="#5F3D31"/>
<path d="M152.591 144.094H151.087V153.023H152.591V144.094Z" fill="#5F3D31"/>
<path d="M154.846 144.094H153.343V153.023H154.846V144.094Z" fill="#5F3D31"/>
<path d="M157.106 144.094H155.603V153.023H157.106V144.094Z" fill="#5F3D31"/>
<path d="M159.368 144.094H157.864V153.023H159.368V144.094Z" fill="#5F3D31"/>
<path d="M148.075 157.69H146.571V166.62H148.075V157.69Z" fill="#5F3D31"/>
<path d="M150.33 157.69H148.826V166.62H150.33V157.69Z" fill="#5F3D31"/>
<path d="M152.591 157.69H151.087V166.62H152.591V157.69Z" fill="#5F3D31"/>
<path d="M154.846 157.69H153.343V166.62H154.846V157.69Z" fill="#5F3D31"/>
<path d="M157.106 157.69H155.603V166.62H157.106V157.69Z" fill="#5F3D31"/>
<path d="M159.368 157.69H157.864V166.62H159.368V157.69Z" fill="#5F3D31"/>
<path d="M148.075 171.282H146.571V180.217H148.075V171.282Z" fill="#5F3D31"/>
<path d="M150.33 171.282H148.826V180.217H150.33V171.282Z" fill="#5F3D31"/>
<path d="M152.591 171.282H151.087V180.217H152.591V171.282Z" fill="#5F3D31"/>
<path d="M154.846 171.282H153.343V180.217H154.846V171.282Z" fill="#5F3D31"/>
<path d="M157.106 171.282H155.603V180.217H157.106V171.282Z" fill="#5F3D31"/>
<path d="M159.368 171.282H157.864V180.217H159.368V171.282Z" fill="#5F3D31"/>
<path d="M161.084 154.662H144.392V156.052H161.084V154.662Z" fill="#5F3D31"/>
<path d="M161.084 168.259H144.392V169.649H161.084V168.259Z" fill="#5F3D31"/>
<path d="M163.173 182.824H142.264V194.29H163.173V182.824Z" fill="#5F3D31"/>
<g style="mix-blend-mode:multiply">
<path d="M161.086 169.644V137.088C161.086 137.088 159.024 131.198 159.024 124.283C159.024 128.179 158.368 131.751 157.799 134.13C155.96 128.909 152.704 117.931 152.704 105.638C152.704 111.132 152.054 116.363 151.17 120.939C158.394 130.939 153.939 137.347 153.939 137.347C156.479 139.061 153.771 141.75 153.771 141.75C161.559 147.874 153.263 182.825 153.263 182.825C159.948 187.406 154.619 194.291 154.619 194.291H163.184V182.825H161.091V169.644H161.086Z" fill="#BCBEC0"/>
</g>
<path d="M66.8628 141.75H50.1699V182.824H66.8628V141.75Z" fill="#BB9355"/>
<path d="M64.8011 137.347H52.1621V141.75H64.8011V137.347Z" fill="#9B703D"/>
<path d="M58.4816 105.638C58.4816 122.76 52.1621 137.341 52.1621 137.341H64.8011C64.8011 137.341 58.4816 122.76 58.4816 105.638Z" fill="#888B8A"/>
<path d="M54.2898 137.768H50.1699V141.75H54.2898V137.768Z" fill="#AA8048"/>
<path d="M54.2898 137.093H50.1699V137.768H54.2898V137.093Z" fill="#535852"/>
<path d="M52.2322 124.287C52.2322 131.202 50.1748 137.092 50.1748 137.092H54.2947C54.2947 137.092 52.2322 131.202 52.2322 124.287Z" fill="#5F3D31"/>
<path d="M66.864 137.768H62.7441V141.75H66.864V137.768Z" fill="#AA8048"/>
<path d="M66.864 137.093H62.7441V137.768H66.864V137.093Z" fill="#535852"/>
<path d="M64.8015 124.287C64.8015 131.202 62.7441 137.092 62.7441 137.092H66.864C66.864 137.092 64.8015 131.202 64.8015 124.287Z" fill="#5F3D31"/>
<path d="M53.8533 144.095H52.3496V153.024H53.8533V144.095Z" fill="#5F3D31"/>
<path d="M56.114 144.095H54.6104V153.024H56.114V144.095Z" fill="#5F3D31"/>
<path d="M58.3689 144.095H56.8652V153.024H58.3689V144.095Z" fill="#5F3D31"/>
<path d="M60.6297 144.095H59.126V153.024H60.6297V144.095Z" fill="#5F3D31"/>
<path d="M62.8855 144.095H61.3818V153.024H62.8855V144.095Z" fill="#5F3D31"/>
<path d="M65.1463 144.095H63.6426V153.024H65.1463V144.095Z" fill="#5F3D31"/>
<path d="M53.8533 157.691H52.3496V166.621H53.8533V157.691Z" fill="#5F3D31"/>
<path d="M56.114 157.691H54.6104V166.621H56.114V157.691Z" fill="#5F3D31"/>
<path d="M58.3689 157.691H56.8652V166.621H58.3689V157.691Z" fill="#5F3D31"/>
<path d="M60.6297 157.691H59.126V166.621H60.6297V157.691Z" fill="#5F3D31"/>
<path d="M62.8855 157.691H61.3818V166.621H62.8855V157.691Z" fill="#5F3D31"/>
<path d="M65.1463 157.691H63.6426V166.621H65.1463V157.691Z" fill="#5F3D31"/>
<path d="M53.8533 171.283H52.3496V180.218H53.8533V171.283Z" fill="#5F3D31"/>
<path d="M56.114 171.283H54.6104V180.218H56.114V171.283Z" fill="#5F3D31"/>
<path d="M58.3689 171.283H56.8652V180.218H58.3689V171.283Z" fill="#5F3D31"/>
<path d="M60.6297 171.283H59.126V180.218H60.6297V171.283Z" fill="#5F3D31"/>
<path d="M62.8855 171.283H61.3818V180.218H62.8855V171.283Z" fill="#5F3D31"/>
<path d="M65.1463 171.283H63.6426V180.218H65.1463V171.283Z" fill="#5F3D31"/>
<path d="M66.8628 154.663H50.1699V156.053H66.8628V154.663Z" fill="#5F3D31"/>
<path d="M66.8628 168.26H50.1699V169.65H66.8628V168.26Z" fill="#5F3D31"/>
<path d="M69.0519 182.824H48.1426V194.29H69.0519V182.824Z" fill="#5F3D31"/>
<g style="mix-blend-mode:multiply">
<path d="M66.8615 169.644V137.088C66.8615 137.088 64.799 131.198 64.799 124.283C64.799 128.179 64.1437 131.751 63.5747 134.13C61.7358 128.909 58.4795 117.931 58.4795 105.638C58.4795 111.132 57.8292 116.363 56.9453 120.939C64.1691 130.939 59.7139 137.347 59.7139 137.347C62.2539 139.061 59.5463 141.75 59.5463 141.75C67.3339 147.874 59.0383 182.825 59.0383 182.825C65.7236 187.406 60.3946 194.291 60.3946 194.291H69.056V182.825H66.8615V169.644Z" fill="#BCBEC0"/>
</g>
<path d="M114.518 89.9053H95.0664V94.6844H114.518V89.9053Z" fill="#AA8048"/>
<path d="M98.4748 90.8135H96.9863V93.6089H98.4748V90.8135Z" fill="#5F3D31"/>
<path d="M101.299 90.8135H99.8105V93.6089H101.299V90.8135Z" fill="#5F3D31"/>
<path d="M104.123 90.8135H102.635V93.6089H104.123V90.8135Z" fill="#5F3D31"/>
<path d="M106.943 90.8135H105.46V93.6089H106.943V90.8135Z" fill="#5F3D31"/>
<path d="M109.772 90.8135H108.289V93.6089H109.772V90.8135Z" fill="#5F3D31"/>
<path d="M112.597 90.8135H111.108V93.6089H112.597V90.8135Z" fill="#5F3D31"/>
<path d="M114.518 88.3672H95.0664V89.9044H114.518V88.3672Z" fill="#535852"/>
<path d="M111.206 81.4268H98.3786C98.2211 85.7442 95.0664 88.3672 95.0664 88.3672H114.518C114.518 88.3672 111.363 85.7442 111.206 81.4268Z" fill="#888B8A"/>
<path d="M111.205 80.1943H98.3779V81.4272H111.205V80.1943Z" fill="#535852"/>
<path d="M111.206 72.9443H98.3789V80.1892H111.206V72.9443Z" fill="#BB9355"/>
<path d="M101.28 74.0957H100.198V78.8749H101.28V74.0957Z" fill="#5F3D31"/>
<path d="M102.9 74.0957H101.818V78.8749H102.9V74.0957Z" fill="#5F3D31"/>
<path d="M104.526 74.0957H103.444V78.8749H104.526V74.0957Z" fill="#5F3D31"/>
<path d="M106.147 74.0957H105.065V78.8749H106.147V74.0957Z" fill="#5F3D31"/>
<path d="M107.768 74.0957H106.686V78.8749H107.768V74.0957Z" fill="#5F3D31"/>
<path d="M109.388 74.0957H108.306V78.8749H109.388V74.0957Z" fill="#5F3D31"/>
<path d="M111.206 71.7119H98.3789V72.9448H111.206V71.7119Z" fill="#535852"/>
<path d="M104.79 48.3994C104.79 60.9916 98.3789 71.7118 98.3789 71.7118H111.206C111.206 71.7118 104.795 60.9916 104.795 48.3994H104.79Z" fill="#888B8A"/>
<path d="M115.24 120.746H94.3506V122.826H115.24V120.746Z" fill="#5A392F"/>
<path d="M117.765 94.6895H91.8262V120.747H117.765V94.6895Z" fill="#BB9355"/>
<path opacity="0.2" d="M93.624 95.7646H92.542V119.818H93.624V95.7646Z" fill="white"/>
<path opacity="0.2" d="M95.6309 95.7646H94.5488V119.818H95.6309V95.7646Z" fill="white"/>
<path opacity="0.2" d="M97.916 95.7646H96.834V119.818H97.916V95.7646Z" fill="white"/>
<path opacity="0.2" d="M99.9229 95.7646H98.8408V119.818H99.9229V95.7646Z" fill="white"/>
<path opacity="0.2" d="M102.21 95.7646H101.128V119.818H102.21V95.7646Z" fill="white"/>
<path opacity="0.2" d="M104.217 95.7646H103.135V119.818H104.217V95.7646Z" fill="white"/>
<path opacity="0.2" d="M106.497 95.7646H105.415V119.818H106.497V95.7646Z" fill="white"/>
<path opacity="0.2" d="M108.509 95.7646H107.427V119.818H108.509V95.7646Z" fill="white"/>
<path opacity="0.2" d="M110.789 95.7646H109.707V119.818H110.789V95.7646Z" fill="white"/>
<path opacity="0.2" d="M112.801 95.7646H111.719V119.818H112.801V95.7646Z" fill="white"/>
<path opacity="0.2" d="M115.082 95.7646H114V119.818H115.082V95.7646Z" fill="white"/>
<path opacity="0.2" d="M117.089 95.7646H116.007V119.818H117.089V95.7646Z" fill="white"/>
<path d="M99.0846 114.48H97.332V119.26H99.0846V114.48Z" fill="#5F3D31"/>
<path d="M101.721 114.48H99.9688V119.26H101.721V114.48Z" fill="#5F3D31"/>
<path d="M104.357 114.48H102.6V119.26H104.357V114.48Z" fill="#5F3D31"/>
<path d="M106.984 114.48H105.231V119.26H106.984V114.48Z" fill="#5F3D31"/>
<path d="M109.62 114.48H107.862V119.26H109.62V114.48Z" fill="#5F3D31"/>
<path d="M112.247 114.48H110.494V119.26H112.247V114.48Z" fill="#5F3D31"/>
<path d="M112.779 97.0684H96.8027V113.121H112.779V97.0684Z" fill="#5A392F"/>
<path d="M109.599 104.861C109.594 107.514 107.435 109.66 104.778 109.65C102.121 109.645 99.9723 107.489 99.9825 104.835C99.9875 102.182 102.147 100.036 104.803 100.046C107.46 100.051 109.609 102.207 109.604 104.861H109.599Z" fill="white"/>
<path d="M104.803 99.2647C101.715 99.2545 99.2104 101.751 99.2002 104.83C99.1901 107.915 101.684 110.416 104.773 110.426C107.862 110.431 110.366 107.94 110.376 104.861C110.381 101.781 107.887 99.2748 104.803 99.2647ZM104.778 109.65C102.121 109.645 99.9724 107.489 99.9775 104.835C99.9825 102.182 102.142 100.036 104.798 100.041C107.455 100.046 109.604 102.202 109.599 104.856C109.594 107.509 107.43 109.655 104.773 109.65H104.778Z" fill="#D4A67C"/>
<path d="M105.468 104.85C105.468 105.225 105.163 105.525 104.787 105.525C104.411 105.525 104.111 105.22 104.111 104.845C104.111 104.469 104.416 104.17 104.792 104.17C105.168 104.17 105.468 104.474 105.468 104.85Z" fill="#4E3921"/>
<path d="M102.196 102.572C103.182 104.612 104.782 105.155 104.782 105.155C104.782 105.155 104.244 103.557 102.196 102.572Z" fill="#4E3921"/>
<path d="M109.278 104.911C106.667 104.343 104.823 104.911 104.823 104.911C104.823 104.911 106.667 105.479 109.278 104.911Z" fill="#4E3921"/>
<path d="M115.239 143.409H94.3496V145.489H115.239V143.409Z" fill="#5A392F"/>
<path d="M117.765 122.826H91.8262V143.409H117.765V122.826Z" fill="#BB9355"/>
<path opacity="0.2" d="M93.624 123.906H92.542V142.485H93.624V123.906Z" fill="white"/>
<path opacity="0.2" d="M95.6309 123.906H94.5488V142.485H95.6309V123.906Z" fill="white"/>
<path opacity="0.2" d="M97.916 123.906H96.834V142.485H97.916V123.906Z" fill="white"/>
<path opacity="0.2" d="M99.9229 123.906H98.8408V142.485H99.9229V123.906Z" fill="white"/>
<path opacity="0.2" d="M102.21 123.906H101.128V142.485H102.21V123.906Z" fill="white"/>
<path opacity="0.2" d="M104.217 123.906H103.135V142.485H104.217V123.906Z" fill="white"/>
<path opacity="0.2" d="M106.497 123.906H105.415V142.485H106.497V123.906Z" fill="white"/>
<path opacity="0.2" d="M108.509 123.906H107.427V142.485H108.509V123.906Z" fill="white"/>
<path opacity="0.2" d="M110.789 123.906H109.707V142.485H110.789V123.906Z" fill="white"/>
<path opacity="0.2" d="M112.801 123.906H111.719V142.485H112.801V123.906Z" fill="white"/>
<path opacity="0.2" d="M115.082 123.906H114V142.485H115.082V123.906Z" fill="white"/>
<path opacity="0.2" d="M117.089 123.906H116.007V142.485H117.089V123.906Z" fill="white"/>
<path d="M99.0856 125.119H97.333V140.862H99.0856V125.119Z" fill="#5F3D31"/>
<path d="M101.722 125.119H99.9697V140.862H101.722V125.119Z" fill="#5F3D31"/>
<path d="M104.358 125.119H102.601V140.862H104.358V125.119Z" fill="#5F3D31"/>
<path d="M106.985 125.119H105.232V140.862H106.985V125.119Z" fill="#5F3D31"/>
<path d="M109.621 125.119H107.863V140.862H109.621V125.119Z" fill="#5F3D31"/>
<path d="M112.248 125.119H110.495V140.862H112.248V125.119Z" fill="#5F3D31"/>
<path d="M119.867 192.21H89.7168V194.29H119.867V192.21Z" fill="#5A392F"/>
<path d="M117.765 145.464H91.8262V192.215H117.765V145.464Z" fill="#BB9355"/>
<path opacity="0.2" d="M93.624 146.539H92.542V191.287H93.624V146.539Z" fill="white"/>
<path opacity="0.2" d="M95.6309 146.539H94.5488V191.287H95.6309V146.539Z" fill="white"/>
<path opacity="0.2" d="M97.916 146.539H96.834V191.287H97.916V146.539Z" fill="white"/>
<path opacity="0.2" d="M99.9229 146.539H98.8408V191.287H99.9229V146.539Z" fill="white"/>
<path opacity="0.2" d="M102.21 146.539H101.128V191.287H102.21V146.539Z" fill="white"/>
<path opacity="0.2" d="M104.217 146.539H103.135V191.287H104.217V146.539Z" fill="white"/>
<path opacity="0.2" d="M106.497 146.539H105.415V191.287H106.497V146.539Z" fill="white"/>
<path opacity="0.2" d="M108.509 146.539H107.427V191.287H108.509V146.539Z" fill="white"/>
<path opacity="0.2" d="M110.789 146.539H109.707V191.287H110.789V146.539Z" fill="white"/>
<path opacity="0.2" d="M112.801 146.539H111.719V191.287H112.801V146.539Z" fill="white"/>
<path opacity="0.2" d="M115.082 146.539H114V191.287H115.082V146.539Z" fill="white"/>
<path opacity="0.2" d="M117.089 146.539H116.007V191.287H117.089V146.539Z" fill="white"/>
<path d="M99.0856 147.757H97.333V189.668H99.0856V147.757Z" fill="#5F3D31"/>
<path d="M101.722 147.757H99.9697V189.668H101.722V147.757Z" fill="#5F3D31"/>
<path d="M104.358 147.757H102.601V189.668H104.358V147.757Z" fill="#5F3D31"/>
<path d="M106.985 147.757H105.232V189.668H106.985V147.757Z" fill="#5F3D31"/>
<path d="M109.621 147.757H107.863V189.668H109.621V147.757Z" fill="#5F3D31"/>
<path d="M112.248 147.757H110.495V189.668H112.248V147.757Z" fill="#5F3D31"/>
<g style="mix-blend-mode:multiply">
<path d="M119.867 194.295V192.215H117.759V145.464H115.234V143.414H117.759V122.831H115.234V120.751H117.759V94.694H114.518V88.3776C114.518 88.3776 111.363 85.7546 111.205 81.4371V71.7215C111.205 71.7215 104.794 61.0014 104.794 48.4092C104.794 52.0823 104.246 55.5982 103.474 58.7336C109.524 66.5771 106.339 71.7215 106.339 71.7215C106.847 72.3202 106.085 72.9544 106.085 72.9544C109.524 75.4201 106.979 81.4371 106.979 81.4371C109.432 83.9891 107.36 88.3776 107.36 88.3776C108.122 88.9661 107.614 89.9148 107.614 89.9148C110.032 92.0406 107.741 94.694 107.741 94.694C115.513 103.638 109.524 120.751 109.524 120.751C110.54 121.674 109.143 122.831 109.143 122.831C115.005 130.649 109.27 143.414 109.27 143.414C110.032 144.337 108.889 145.464 108.889 145.464C116.915 160.141 108.889 192.215 108.889 192.215C109.397 192.966 109.692 193.737 109.016 194.295H119.872H119.867Z" fill="#BCBEC0"/>
</g>
<path d="M330.158 49.4551L318.434 52.5346V194.296H346.516C346.516 194.296 330.905 62.3872 330.163 49.4601L330.158 49.4551Z" fill="#5E9BA2"/>
<mask id="mask1_1_8136" style="mask-type:luminance" maskUnits="userSpaceOnUse" x="318" y="49" width="26" height="146">
<path d="M327.258 49.4551L318.434 52.5346V194.296H343.615C343.615 194.296 328.004 62.3872 327.258 49.4601V49.4551Z" fill="white"/>
</mask>
<g mask="url(#mask1_1_8136)">
<path d="M345.46 187H319.582V189.263H345.46V187Z" fill="#8FCCB9"/>
<path d="M345.46 181.866H319.582V184.134H345.46V181.866Z" fill="#8FCCB9"/>
<path d="M345.46 176.737H319.582V179H345.46V176.737Z" fill="#8FCCB9"/>
<path d="M345.46 171.603H319.582V173.865H345.46V171.603Z" fill="#8FCCB9"/>
<path d="M345.46 166.474H319.582V168.736H345.46V166.474Z" fill="#8FCCB9"/>
<path d="M345.46 161.344H319.582V163.607H345.46V161.344Z" fill="#8FCCB9"/>
<path d="M345.46 156.21H319.582V158.478H345.46V156.21Z" fill="#8FCCB9"/>
<path d="M345.46 151.075H319.582V153.338H345.46V151.075Z" fill="#8FCCB9"/>
<path d="M345.46 145.946H319.582V148.214H345.46V145.946Z" fill="#8FCCB9"/>
<path d="M345.46 140.817H319.582V143.08H345.46V140.817Z" fill="#8FCCB9"/>
<path d="M345.46 135.683H319.582V137.945H345.46V135.683Z" fill="#8FCCB9"/>
<path d="M345.46 130.549H319.582V132.812H345.46V130.549Z" fill="#8FCCB9"/>
<path d="M345.46 125.419H319.582V127.682H345.46V125.419Z" fill="#8FCCB9"/>
<path d="M345.46 120.285H319.582V122.548H345.46V120.285Z" fill="#8FCCB9"/>
<path d="M345.46 115.156H319.582V117.419H345.46V115.156Z" fill="#8FCCB9"/>
<path d="M345.46 110.021H319.582V112.289H345.46V110.021Z" fill="#8FCCB9"/>
<path d="M345.46 104.893H319.582V107.155H345.46V104.893Z" fill="#8FCCB9"/>
<path d="M345.46 99.7627H319.582V102.025H345.46V99.7627Z" fill="#8FCCB9"/>
<path d="M345.46 94.6289H319.582V96.8916H345.46V94.6289Z" fill="#8FCCB9"/>
<path d="M345.46 89.499H319.582V91.7618H345.46V89.499Z" fill="#8FCCB9"/>
<path d="M345.46 84.3652H319.582V86.628H345.46V84.3652Z" fill="#8FCCB9"/>
<path d="M345.46 79.2363H319.582V81.4991H345.46V79.2363Z" fill="#8FCCB9"/>
<path d="M345.46 74.1016H319.582V76.3643H345.46V74.1016Z" fill="#8FCCB9"/>
<path d="M345.46 68.9727H319.582V71.2354H345.46V68.9727Z" fill="#8FCCB9"/>
<path d="M345.46 63.8379H319.582V66.1006H345.46V63.8379Z" fill="#8FCCB9"/>
<path d="M345.46 58.709H319.582V60.9717H345.46V58.709Z" fill="#8FCCB9"/>
</g>
<path d="M306.704 37.4355L318.429 40.7739V194.296H297.448C297.448 194.296 308.248 48.455 306.704 37.4406V37.4355Z" fill="#4B797F"/>
<mask id="mask2_1_8136" style="mask-type:luminance" maskUnits="userSpaceOnUse" x="300" y="44" width="19" height="151">
<path d="M309.478 44.9854L318.429 45.5637V194.296H300.08C300.08 194.296 311.022 55.9997 309.478 44.9854Z" fill="white"/>
</mask>
<g mask="url(#mask2_1_8136)">
<path d="M315.848 187H289.976V189.263H315.848V187Z" fill="#5C8C96"/>
<path d="M315.848 181.866H289.976V184.134H315.848V181.866Z" fill="#5C8C96"/>
<path d="M315.848 176.737H289.976V179H315.848V176.737Z" fill="#5C8C96"/>
<path d="M315.848 171.603H289.976V173.865H315.848V171.603Z" fill="#5C8C96"/>
<path d="M315.848 166.474H289.976V168.736H315.848V166.474Z" fill="#5C8C96"/>
<path d="M315.848 161.344H289.976V163.607H315.848V161.344Z" fill="#5C8C96"/>
<path d="M315.848 156.21H289.976V158.478H315.848V156.21Z" fill="#5C8C96"/>
<path d="M315.848 151.075H289.976V153.338H315.848V151.075Z" fill="#5C8C96"/>
<path d="M315.848 145.946H289.976V148.214H315.848V145.946Z" fill="#5C8C96"/>
<path d="M315.848 140.817H289.976V143.08H315.848V140.817Z" fill="#5C8C96"/>
<path d="M315.848 135.683H289.976V137.945H315.848V135.683Z" fill="#5C8C96"/>
<path d="M315.848 130.549H289.976V132.812H315.848V130.549Z" fill="#5C8C96"/>
<path d="M315.848 125.42H289.976V127.683H315.848V125.42Z" fill="#5C8C96"/>
<path d="M315.848 120.285H289.976V122.548H315.848V120.285Z" fill="#5C8C96"/>
<path d="M315.848 115.156H289.976V117.419H315.848V115.156Z" fill="#5C8C96"/>
<path d="M315.848 110.021H289.976V112.289H315.848V110.021Z" fill="#5C8C96"/>
<path d="M315.848 104.893H289.976V107.155H315.848V104.893Z" fill="#5C8C96"/>
<path d="M315.848 99.7627H289.976V102.025H315.848V99.7627Z" fill="#5C8C96"/>
<path d="M315.848 94.6289H289.976V96.8916H315.848V94.6289Z" fill="#5C8C96"/>
<path d="M315.848 89.499H289.976V91.7618H315.848V89.499Z" fill="#5C8C96"/>
<path d="M315.848 84.3652H289.976V86.628H315.848V84.3652Z" fill="#5C8C96"/>
<path d="M315.848 79.2363H289.976V81.4991H315.848V79.2363Z" fill="#5C8C96"/>
<path d="M315.848 74.1016H289.976V76.3643H315.848V74.1016Z" fill="#5C8C96"/>
<path d="M315.848 68.9727H289.976V71.2354H315.848V68.9727Z" fill="#5C8C96"/>
<path d="M315.848 63.8379H289.976V66.1006H315.848V63.8379Z" fill="#5C8C96"/>
<path d="M315.848 58.709H289.976V60.9717H315.848V58.709Z" fill="#5C8C96"/>
</g>
<g style="mix-blend-mode:multiply" opacity="0.7">
<path d="M330.158 49.4551L318.434 52.5346C328.934 57.8313 335.99 131.685 328.197 165.017C321.141 195.219 318.434 194.291 318.434 194.291H346.516C346.516 194.291 330.905 62.3821 330.163 49.4551H330.158Z" fill="#BCBEC0"/>
</g>
<path d="M207.893 193.784L199.582 193.754L225.465 160.127L230.255 162.324L207.893 193.784Z" fill="#467C88"/>
<path d="M273.944 193.982L282.254 194.008L256.58 160.224L251.774 162.395L273.944 193.982Z" fill="#467C88"/>
<path d="M285.307 188.619H196.885V194.296H285.307V188.619Z" fill="#5C8C96"/>
<path d="M243.719 76.0447C243.714 77.5718 242.469 78.8047 240.94 78.7996C239.411 78.7996 238.177 77.5515 238.182 76.0244C238.182 74.4973 239.431 73.2645 240.955 73.2695C242.489 73.2695 243.719 74.5125 243.719 76.0396V76.0447Z" fill="#FBB034"/>
<path d="M258.385 78.8045C258.385 80.3316 257.14 81.5644 255.611 81.5593C254.077 81.5543 252.843 80.3113 252.848 78.7842C252.848 77.2571 254.097 76.0242 255.632 76.0293C257.161 76.0344 258.395 77.2774 258.385 78.8045Z" fill="#FBB034"/>
<path d="M271.649 85.9734C271.649 87.5005 270.404 88.7334 268.875 88.7283C267.346 88.7283 266.106 87.4802 266.111 85.9531C266.116 84.426 267.361 83.1932 268.895 83.1983C270.424 83.2033 271.659 84.4463 271.654 85.9734H271.649Z" fill="#FBB034"/>
<path d="M281.926 96.6931C281.926 98.2202 280.676 99.4531 279.147 99.448C277.618 99.448 276.384 98.2 276.389 96.6729C276.389 95.1458 277.638 93.9129 279.162 93.918C280.691 93.918 281.926 95.166 281.926 96.6931Z" fill="#FBB034"/>
<path d="M287.828 110.178C287.828 111.706 286.584 112.938 285.049 112.933C283.52 112.933 282.286 111.685 282.291 110.158C282.291 108.631 283.536 107.398 285.065 107.403C286.599 107.403 287.833 108.646 287.828 110.178Z" fill="#FBB034"/>
<path d="M289.368 124.44C289.368 125.967 288.124 127.2 286.595 127.195C285.06 127.19 283.826 125.947 283.831 124.42C283.831 122.893 285.081 121.66 286.61 121.665C288.134 121.665 289.368 122.908 289.363 124.435L289.368 124.44Z" fill="#FBB034"/>
<path d="M286.356 138.296C286.356 139.823 285.106 141.055 283.577 141.05C282.053 141.05 280.813 139.807 280.818 138.275C280.818 136.753 282.068 135.515 283.597 135.525C285.126 135.525 286.361 136.768 286.356 138.296Z" fill="#FBB034"/>
<path d="M278.526 151.086C278.526 152.613 277.282 153.845 275.753 153.84C274.224 153.835 272.984 152.597 272.989 151.07C272.994 149.548 274.239 148.31 275.768 148.315C277.302 148.321 278.532 149.564 278.526 151.091V151.086Z" fill="#FBB034"/>
<path d="M267.249 160.806C267.244 162.334 265.999 163.566 264.47 163.561C262.941 163.556 261.707 162.313 261.712 160.786C261.712 159.259 262.957 158.026 264.491 158.031C266.02 158.031 267.249 159.274 267.249 160.806Z" fill="#FBB034"/>
<path d="M224.227 78.4898C224.212 80.0169 225.446 81.265 226.97 81.2802C228.499 81.2954 229.749 80.0676 229.764 78.5405C229.779 77.0134 228.55 75.7654 227.016 75.7501C225.492 75.7349 224.237 76.9627 224.222 78.4898H224.227Z" fill="#FBB034"/>
<path d="M211.523 85.0953C211.507 86.6224 212.737 87.8755 214.261 87.8856C215.795 87.9009 217.045 86.6731 217.055 85.146C217.07 83.6189 215.841 82.3708 214.317 82.3556C212.782 82.3404 211.533 83.5682 211.523 85.0953Z" fill="#FBB034"/>
<path d="M201.113 95.191C201.098 96.7181 202.328 97.9661 203.857 97.9813C205.386 97.9966 206.635 96.7688 206.651 95.2417C206.661 93.7146 205.437 92.4665 203.907 92.4513C202.378 92.4361 201.124 93.6639 201.113 95.191Z" fill="#FBB034"/>
<path d="M194.539 108.428C194.524 109.955 195.748 111.203 197.277 111.219C198.806 111.234 200.061 110.006 200.076 108.479C200.092 106.952 198.857 105.704 197.333 105.689C195.804 105.673 194.554 106.901 194.539 108.428Z" fill="#FBB034"/>
<path d="M192.822 123.009C192.807 124.536 194.037 125.784 195.566 125.8C197.095 125.815 198.344 124.587 198.36 123.06C198.375 121.533 197.14 120.285 195.616 120.27C194.087 120.254 192.838 121.482 192.822 123.009Z" fill="#FBB034"/>
<path d="M195.662 137.57C195.647 139.102 196.876 140.35 198.405 140.365C199.935 140.38 201.184 139.148 201.199 137.625C201.215 136.098 199.985 134.85 198.456 134.835C196.927 134.82 195.677 136.048 195.662 137.575V137.57Z" fill="#FBB034"/>
<path d="M203.008 150.116C202.993 151.643 204.222 152.891 205.751 152.906C207.275 152.921 208.53 151.694 208.545 150.166C208.56 148.639 207.326 147.391 205.797 147.376C204.273 147.361 203.023 148.589 203.008 150.116Z" fill="#FBB034"/>
<path d="M213.416 159.903C213.401 161.43 214.625 162.678 216.154 162.693C217.683 162.708 218.938 161.481 218.953 159.954C218.969 158.427 217.734 157.178 216.205 157.163C214.676 157.148 213.431 158.376 213.416 159.903Z" fill="#FBB034"/>
<path d="M230.145 166.164C230.129 167.691 231.359 168.939 232.883 168.954C234.412 168.969 235.667 167.741 235.682 166.214C235.697 164.682 234.468 163.434 232.934 163.424C231.405 163.409 230.16 164.637 230.145 166.164Z" fill="#FBB034"/>
<path d="M245.01 166.427C244.995 167.954 246.224 169.202 247.753 169.218C249.282 169.233 250.532 168.005 250.547 166.478C250.562 164.951 249.333 163.703 247.804 163.688C246.275 163.677 245.025 164.9 245.01 166.427Z" fill="#FBB034"/>
<path d="M240.907 81.5377L240.744 122.054L241.471 122.057L241.633 81.5406L240.907 81.5377Z" fill="#8FCCB9"/>
<path d="M241.499 122.12L240.782 121.998L247.442 82.0352L248.158 82.1518L241.499 122.12Z" fill="#8FCCB9"/>
<path d="M241.488 122.176L240.797 121.943L253.817 83.5723L254.503 83.8006L241.488 122.176Z" fill="#8FCCB9"/>
<path d="M241.462 122.227L240.822 121.887L259.857 86.1094L260.502 86.4493L241.462 122.227Z" fill="#8FCCB9"/>
<path d="M265.411 89.5888L240.854 121.84L241.433 122.279L265.989 90.0279L265.411 89.5888Z" fill="#8FCCB9"/>
<path d="M270.324 93.9209L240.896 121.811L241.397 122.337L270.824 94.4472L270.324 93.9209Z" fill="#8FCCB9"/>
<path d="M274.491 98.9862L240.941 121.766L241.35 122.366L274.9 99.5862L274.491 98.9862Z" fill="#8FCCB9"/>
<path d="M241.295 122.389L240.99 121.73L277.775 104.647L278.084 105.307L241.295 122.389Z" fill="#8FCCB9"/>
<path d="M280.115 110.785L241.042 121.688L241.237 122.386L280.31 111.484L280.115 110.785Z" fill="#8FCCB9"/>
<path d="M241.183 122.42L241.102 121.7L281.422 117.185L281.498 117.91L241.183 122.42Z" fill="#8FCCB9"/>
<path d="M241.181 121.703L241.145 122.428L281.667 124.464L281.704 123.739L241.181 121.703Z" fill="#8FCCB9"/>
<path d="M241.21 121.701L241.058 122.41L280.724 130.932L280.877 130.223L241.21 121.701Z" fill="#8FCCB9"/>
<path d="M278.781 137.188L241.011 122.394L241.275 121.725L279.045 136.514L278.781 137.188Z" fill="#8FCCB9"/>
<path d="M241.322 121.734L240.951 122.358L275.842 143.032L276.212 142.408L241.322 121.734Z" fill="#8FCCB9"/>
<path d="M241.37 121.781L240.903 122.337L272.004 148.353L272.47 147.797L241.37 121.781Z" fill="#8FCCB9"/>
<path d="M241.415 121.811L240.865 122.285L267.363 152.965L267.913 152.491L241.415 121.811Z" fill="#8FCCB9"/>
<path d="M241.447 121.861L240.828 122.24L262.031 156.782L262.651 156.403L241.447 121.861Z" fill="#8FCCB9"/>
<path d="M256.159 159.7L240.802 122.197L241.477 121.923L256.829 159.426L256.159 159.7Z" fill="#8FCCB9"/>
<path d="M241.495 121.97L240.787 122.133L249.892 161.615L250.6 161.453L241.495 121.97Z" fill="#8FCCB9"/>
<path d="M243.398 162.516L240.782 122.081L241.504 122.04L244.12 162.47L243.398 162.516Z" fill="#8FCCB9"/>
<path d="M240.794 122.029L236.835 162.352L237.558 162.422L241.517 122.099L240.794 122.029Z" fill="#8FCCB9"/>
<path d="M240.78 121.956L230.383 161.119L231.085 161.305L241.482 122.142L240.78 121.956Z" fill="#8FCCB9"/>
<path d="M240.821 121.913L224.224 158.883L224.886 159.18L241.484 122.209L240.821 121.913Z" fill="#8FCCB9"/>
<path d="M240.775 121.814L218.573 155.725L219.181 156.122L241.383 122.211L240.775 121.814Z" fill="#8FCCB9"/>
<path d="M240.87 121.822L213.399 151.637L213.934 152.128L241.405 122.314L240.87 121.822Z" fill="#8FCCB9"/>
<path d="M240.913 121.751L208.983 146.745L209.432 147.316L241.361 122.322L240.913 121.751Z" fill="#8FCCB9"/>
<path d="M240.967 121.748L205.423 141.279L205.773 141.915L241.317 122.384L240.967 121.748Z" fill="#8FCCB9"/>
<path d="M241.037 121.784L202.76 135.209L203 135.893L241.278 122.469L241.037 121.784Z" fill="#8FCCB9"/>
<path d="M201.284 129.64L201.157 128.93L241.076 121.705L241.208 122.415L201.284 129.64Z" fill="#8FCCB9"/>
<path d="M200.583 123.13L200.573 122.405L241.137 121.694L241.147 122.42L200.583 123.13Z" fill="#8FCCB9"/>
<path d="M201.029 115.865L200.925 116.583L241.073 122.404L241.177 121.686L201.029 115.865Z" fill="#8FCCB9"/>
<path d="M202.583 109.519L202.364 110.211L241.047 122.421L241.266 121.73L202.583 109.519Z" fill="#8FCCB9"/>
<path d="M205.086 103.455L204.759 104.103L240.97 122.37L241.298 121.723L205.086 103.455Z" fill="#8FCCB9"/>
<path d="M208.571 97.9146L208.144 98.501L240.927 122.359L241.355 121.772L208.571 97.9146Z" fill="#8FCCB9"/>
<path d="M240.883 122.314L212.369 93.4917L212.887 92.9844L241.401 121.806L240.883 122.314Z" fill="#8FCCB9"/>
<path d="M217.949 88.8241L217.356 89.2441L240.846 122.278L241.438 121.858L217.949 88.8241Z" fill="#8FCCB9"/>
<path d="M223.613 85.5274L222.961 85.8467L240.815 122.228L241.467 121.909L223.613 85.5274Z" fill="#8FCCB9"/>
<path d="M229.74 83.1687L229.045 83.3789L240.798 122.158L241.493 121.948L229.74 83.1687Z" fill="#8FCCB9"/>
<path d="M236.154 81.8478L235.434 81.9434L240.778 122.107L241.498 122.011L236.154 81.8478Z" fill="#8FCCB9"/>
<path d="M241.122 128.757C239.242 128.747 237.484 128.011 236.158 126.687C234.838 125.358 234.111 123.592 234.116 121.715C234.126 117.844 237.291 114.704 241.167 114.719C245.043 114.729 248.188 117.89 248.173 121.761C248.162 125.632 244.998 128.767 241.122 128.762V128.757Z" fill="#8FCCB9"/>
<g style="mix-blend-mode:multiply" opacity="0.3">
<path d="M241.153 118.519C239.375 118.513 237.922 119.954 237.917 121.725C237.917 122.587 238.247 123.394 238.852 124.008C239.461 124.617 240.269 124.957 241.133 124.957C242.911 124.962 244.364 123.526 244.369 121.745C244.369 119.97 242.936 118.519 241.153 118.519Z" fill="#8FCCB9"/>
</g>
<path d="M241.011 165.281C229.362 165.245 218.425 160.679 210.216 152.435C202.007 144.186 197.506 133.237 197.541 121.604C197.617 97.5914 217.236 78.1146 241.28 78.1907C265.324 78.2617 284.826 97.8603 284.75 121.873C284.673 145.885 265.049 165.357 241.011 165.286V165.281ZM241.28 78.5864C217.455 78.5103 198.014 97.8096 197.943 121.599C197.907 133.126 202.367 143.973 210.5 152.151C218.638 160.324 229.474 164.845 241.016 164.88C264.841 164.951 284.282 145.657 284.358 121.868C284.43 98.0734 265.11 78.6574 241.285 78.5864H241.28Z" fill="#8FCCB9"/>
<path d="M241.011 164.003C229.708 163.968 219.096 159.538 211.125 151.533C203.155 143.527 198.786 132.898 198.822 121.61C198.893 98.3074 217.938 79.4038 241.27 79.4748C264.602 79.5458 283.531 98.5661 283.459 121.868C283.383 145.171 264.343 164.074 241.006 164.003H241.011ZM241.265 81.5498C219.075 81.4788 200.965 99.4539 200.894 121.615C200.864 132.35 205.019 142.456 212.593 150.066C220.168 157.682 230.267 161.893 241.011 161.928C263.205 161.999 281.311 144.024 281.382 121.863C281.448 99.6975 263.449 81.6158 241.26 81.5498H241.265Z" fill="#5C8C96"/>
<path d="M340.826 194.295C333.663 184.544 333.13 158.878 335.213 136.321C337.077 116.134 342.599 103.644 347.979 103.644C353.358 103.644 358.88 116.139 360.745 136.321C362.802 158.589 362.934 184.27 355.812 194.295H340.821H340.826Z" fill="#5C8C96"/>
<mask id="mask3_1_8136" style="mask-type:luminance" maskUnits="userSpaceOnUse" x="334" y="103" width="28" height="92">
<path d="M340.826 194.295C333.663 184.544 333.13 158.878 335.213 136.321C337.077 116.134 342.599 103.644 347.979 103.644C353.358 103.644 358.88 116.139 360.745 136.321C362.802 158.589 362.934 184.27 355.812 194.295H340.821H340.826Z" fill="white"/>
</mask>
<g mask="url(#mask3_1_8136)">
<path d="M367.293 169.457C364.515 162.217 353.288 148.58 342.269 139.052C331.195 129.473 331.296 121.447 331.307 121.112L335 121.199C335 121.265 335.071 127.951 344.687 136.262C354.857 145.054 367.38 159.376 370.743 168.138L367.293 169.457Z" fill="#8FCCB9"/>
<path d="M369.163 152.907C366.207 145.743 354.644 132.385 343.387 123.136C332.074 113.837 331.977 105.81 331.983 105.476H335.676C335.676 105.536 335.914 112.218 345.734 120.29C356.118 128.823 368.995 142.836 372.577 151.507L369.163 152.912V152.907Z" fill="#8FCCB9"/>
<path d="M362.472 185.772C360.394 178.304 350.514 163.662 340.455 153.13C330.341 142.547 331.205 134.566 331.25 134.231L334.918 134.668C334.913 134.734 334.349 141.395 343.127 150.583C352.414 160.299 363.519 175.747 366.033 184.783L362.472 185.772Z" fill="#8FCCB9"/>
<path d="M358.012 200.556C355.934 193.088 346.059 178.446 335.995 167.919C325.881 157.336 326.745 149.355 326.79 149.021L330.458 149.457C330.453 149.523 329.889 156.184 338.667 165.372C347.954 175.088 359.059 190.536 361.573 199.572L358.012 200.561V200.556Z" fill="#8FCCB9"/>
<g style="mix-blend-mode:multiply" opacity="0.3">
<path d="M329.634 169.746C332.281 162.455 343.254 148.615 354.094 138.889C364.991 129.113 364.742 121.087 364.722 120.752L361.028 120.904C361.028 120.97 361.079 127.657 351.62 136.145C341.613 145.12 329.355 159.67 326.154 168.488L329.629 169.746H329.634Z" fill="#4B797F"/>
<path d="M328.563 153.734C331.154 146.428 342.015 132.501 352.784 122.689C363.605 112.827 363.295 104.806 363.274 104.471L359.586 104.653C359.586 104.719 359.693 111.406 350.295 119.965C340.359 129.016 328.212 143.663 325.083 152.506L328.568 153.734H328.563Z" fill="#4B797F"/>
<path d="M334.16 184.616C336.462 177.213 346.779 162.876 357.158 152.658C367.592 142.384 366.967 134.384 366.937 134.049L363.259 134.374C363.259 134.439 363.624 141.116 354.567 150.035C344.991 159.462 333.419 174.57 330.63 183.525L334.16 184.621V184.616Z" fill="#4B797F"/>
<path d="M338.469 200.556C340.547 193.088 350.423 178.446 360.486 167.919C370.6 157.336 369.732 149.355 369.691 149.021L366.023 149.457C366.028 149.523 366.592 156.184 357.814 165.372C348.528 175.088 337.423 190.536 334.908 199.572L338.469 200.561V200.556Z" fill="#4B797F"/>
</g>
</g>
<path d="M356.275 113.963C353.877 107.342 350.911 103.639 347.979 103.639C345.048 103.639 342.076 107.347 339.679 113.978C339.679 113.978 345.053 115.942 356.275 113.963Z" fill="#4B797F"/>
<g style="mix-blend-mode:multiply" opacity="0.7">
<path d="M340.826 194.295H355.817C362.939 184.27 362.807 158.594 360.75 136.321C358.886 116.134 353.364 103.644 347.984 103.644C346.252 103.644 344.499 104.947 342.863 107.383C352.825 105.44 358.505 128.103 354.842 160.999C351.174 193.945 340.831 194.295 340.831 194.295H340.826Z" fill="#BCBEC0"/>
</g>
<path d="M228.089 138.295H198.406V194.29H228.089V138.295Z" fill="#D6C0A2"/>
<path d="M228.089 140.177H198.406V141.354H228.089V140.177Z" fill="#F5DBBA"/>
<path d="M228.089 177.826H198.406V179.602H228.089V177.826Z" fill="#BB9A79"/>
<path d="M198.406 153.591L213.25 144.885L228.089 153.591H198.406Z" fill="#F5DBBA"/>
<path d="M228.089 153.591H198.406V155.818H228.089V153.591Z" fill="#BB9A79"/>
<path d="M206.122 159.603H203.059V174.894H206.122V159.603Z" fill="#5C8C96"/>
<path d="M211.892 159.603H208.829V174.894H211.892V159.603Z" fill="#5C8C96"/>
<path d="M217.664 159.603H214.601V174.894H217.664V159.603Z" fill="#5C8C96"/>
<path d="M223.439 159.603H220.376V174.894H223.439V159.603Z" fill="#5C8C96"/>
<path d="M209.832 194.295V185.117C209.832 183.564 211.107 182.291 212.662 182.291H213.84C215.395 182.291 216.665 183.559 216.665 185.117V194.295H209.832Z" fill="#5F3D31"/>
<path d="M142.547 145.778H116.832V194.29H142.547V145.778Z" fill="#D6C0A2"/>
<path d="M142.547 147.412H116.832V148.432H142.547V147.412Z" fill="#F5DBBA"/>
<g style="mix-blend-mode:multiply">
<path d="M142.547 180.024H116.832V181.562H142.547V180.024Z" fill="#BCBEC0"/>
</g>
<path d="M116.832 159.031L129.695 151.486L142.552 159.031H116.832Z" fill="#F5DBBA"/>
<g style="mix-blend-mode:multiply">
<path d="M142.547 159.03H116.832V160.958H142.547V159.03Z" fill="#BCBEC0"/>
</g>
<path d="M123.518 164.235H120.866V177.482H123.518V164.235Z" fill="#5C8C96"/>
<path d="M128.517 164.235H125.865V177.482H128.517V164.235Z" fill="#5C8C96"/>
<path d="M133.521 164.235H130.864V177.482H133.521V164.235Z" fill="#5C8C96"/>
<path d="M138.52 164.235H135.868V177.482H138.52V164.235Z" fill="#5C8C96"/>
<path d="M126.732 194.296V186.346C126.732 185.001 127.835 183.9 129.181 183.9H130.202C131.548 183.9 132.651 185.001 132.651 186.346V194.296H126.732Z" fill="#5F3D31"/>
<path d="M198.407 156.884H142.471V194.295H198.407V156.884Z" fill="#BB9A79"/>
<g style="mix-blend-mode:multiply">
<path d="M198.407 156.884H142.471V158.999H198.407V156.884Z" fill="#BCBEC0"/>
</g>
<g style="mix-blend-mode:multiply">
<path d="M198.407 175.234H142.471V176.751H198.407V175.234Z" fill="#BCBEC0"/>
</g>
<path d="M198.407 150.765V149.588H142.471V150.765H144.828V153.591H142.471V156.883H198.407V153.591H196.659V150.765H198.407ZM151.427 150.765H153.311V153.591H151.427V150.765ZM150.482 153.591H148.597V150.765H150.482V153.591ZM154.251 150.765H156.136V153.591H154.251V150.765ZM157.076 150.765H158.96V153.591H157.076V150.765ZM159.905 150.765H161.79V153.591H159.905V150.765ZM162.73 150.765H164.614V153.591H162.73V150.765ZM165.554 150.765H167.439V153.591H165.554V150.765ZM168.379 150.765H170.263V153.591H168.379V150.765ZM171.208 150.765H173.093V153.591H171.208V150.765ZM174.033 150.765H175.917V153.591H174.033V150.765ZM176.857 150.765H178.742V153.591H176.857V150.765ZM179.687 150.765H181.571V153.591H179.687V150.765ZM182.511 150.765H184.396V153.591H182.511V150.765ZM185.336 150.765H187.22V153.591H185.336V150.765ZM188.16 150.765H190.045V153.591H188.16V150.765ZM190.99 150.765H192.874V153.591H190.99V150.765ZM145.757 150.765H147.642V153.591H145.757V150.765ZM195.699 153.591H193.814V150.765H195.699V153.591Z" fill="#F5DBBA"/>
<path d="M167.021 194.295V185.117C167.021 183.564 168.297 182.291 169.851 182.291H171.03C172.584 182.291 173.854 183.559 173.854 185.117V194.295H167.021Z" fill="#5F3D31"/>
<path d="M152.38 162.316H147.031V172.407H152.38V162.316Z" fill="#5C8C96"/>
<path d="M162.749 162.316H157.399V172.407H162.749V162.316Z" fill="#5C8C96"/>
<path d="M173.112 162.316H167.763V172.407H173.112V162.316Z" fill="#5C8C96"/>
<path d="M183.48 162.316H178.131V172.407H183.48V162.316Z" fill="#5C8C96"/>
<path d="M193.843 162.316H188.494V172.407H193.843V162.316Z" fill="#5C8C96"/>
<path d="M162.749 180.905H157.399V190.996H162.749V180.905Z" fill="#5C8C96"/>
<path d="M183.48 180.905H178.131V190.996H183.48V180.905Z" fill="#5C8C96"/>
<path d="M152.38 180.905H147.031V190.996H152.38V180.905Z" fill="#5C8C96"/>
<path d="M193.843 180.905H188.494V190.996H193.843V180.905Z" fill="#5C8C96"/>
<path d="M309.737 145.778H284.022V194.29H309.737V145.778Z" fill="#D6C0A2"/>
<path d="M309.737 147.412H284.022V148.432H309.737V147.412Z" fill="#F5DBBA"/>
<g style="mix-blend-mode:multiply">
<path d="M309.736 180.023H284.021V181.561H309.736V180.023Z" fill="#BCBEC0"/>
</g>
<path d="M284.021 159.03L296.879 151.485L309.736 159.03H284.021Z" fill="#F5DBBA"/>
<g style="mix-blend-mode:multiply">
<path d="M309.736 159.029H284.021V160.957H309.736V159.029Z" fill="#BCBEC0"/>
</g>
<path d="M290.702 164.234H288.05V177.481H290.702V164.234Z" fill="#5C8C96"/>
<path d="M295.705 164.234H293.054V177.481H295.705V164.234Z" fill="#5C8C96"/>
<path d="M300.71 164.234H298.053V177.481H300.71V164.234Z" fill="#5C8C96"/>
<path d="M305.707 164.234H303.056V177.481H305.707V164.234Z" fill="#5C8C96"/>
<path d="M293.924 194.296V186.346C293.924 185.001 295.026 183.9 296.372 183.9H297.393C298.74 183.9 299.842 185.001 299.842 186.346V194.296H293.924Z" fill="#5F3D31"/>
<path d="M284.024 156.884H228.088V194.295H284.024V156.884Z" fill="#BB9A79"/>
<g style="mix-blend-mode:multiply">
<path d="M284.024 156.884H228.088V158.999H284.024V156.884Z" fill="#BCBEC0"/>
</g>
<g style="mix-blend-mode:multiply">
<path d="M284.024 175.234H228.088V176.751H284.024V175.234Z" fill="#BCBEC0"/>
</g>
<path d="M284.024 150.765V149.588H228.088V150.765H230.445V153.591H228.088V156.883H284.024V153.591H282.276V150.765H284.024ZM237.044 150.765H238.929V153.591H237.044V150.765ZM236.099 153.591H234.214V150.765H236.099V153.591ZM239.868 150.765H241.753V153.591H239.868V150.765ZM242.698 150.765H244.583V153.591H242.698V150.765ZM245.522 150.765H247.407V153.591H245.522V150.765ZM248.347 150.765H250.232V153.591H248.347V150.765ZM251.171 150.765H253.056V153.591H251.171V150.765ZM254.001 150.765H255.886V153.591H254.001V150.765ZM256.825 150.765H258.71V153.591H256.825V150.765ZM259.65 150.765H261.535V153.591H259.65V150.765ZM262.479 150.765H264.364V153.591H262.479V150.765ZM265.304 150.765H267.189V153.591H265.304V150.765ZM268.128 150.765H270.013V153.591H268.128V150.765ZM270.953 150.765H272.838V153.591H270.953V150.765ZM273.782 150.765H275.667V153.591H273.782V150.765ZM276.607 150.765H278.492V153.591H276.607V150.765ZM231.375 150.765H233.259V153.591H231.375V150.765ZM281.316 153.591H279.431V150.765H281.316V153.591Z" fill="#F5DBBA"/>
<path d="M252.64 194.295V185.117C252.64 183.564 253.915 182.291 255.464 182.291H256.643C258.197 182.291 259.472 183.559 259.472 185.117V194.295H252.64Z" fill="#5F3D31"/>
<path d="M238 162.317H232.65V172.408H238V162.317Z" fill="#5C8C96"/>
<path d="M248.368 162.317H243.019V172.408H248.368V162.317Z" fill="#5C8C96"/>
<path d="M258.731 162.317H253.382V172.408H258.731V162.317Z" fill="#5C8C96"/>
<path d="M269.094 162.317H263.745V172.408H269.094V162.317Z" fill="#5C8C96"/>
<path d="M279.463 162.317H274.113V172.408H279.463V162.317Z" fill="#5C8C96"/>
<path d="M248.368 180.906H243.019V190.997H248.368V180.906Z" fill="#5C8C96"/>
<path d="M269.094 180.906H263.745V190.997H269.094V180.906Z" fill="#5C8C96"/>
<path d="M238 180.906H232.65V190.997H238V180.906Z" fill="#5C8C96"/>
<path d="M279.463 180.906H274.113V190.997H279.463V180.906Z" fill="#5C8C96"/>
<g style="mix-blend-mode:multiply" opacity="0.4">
<path d="M177.364 194.296C177.364 194.296 190.064 175.54 175.078 156.885H198.405V194.296H177.364Z" fill="#BCBEC0"/>
</g>
<g style="mix-blend-mode:multiply" opacity="0.4">
<path d="M249.128 194.296C249.128 194.296 236.428 175.54 251.414 156.885H228.087V194.296H249.128Z" fill="#BCBEC0"/>
</g>
<g style="mix-blend-mode:multiply" opacity="0.4">
<path d="M303.347 194.296C303.347 194.296 312.237 174.738 302.585 159.03H309.738V194.296H303.347Z" fill="#BCBEC0"/>
</g>
<g style="mix-blend-mode:multiply" opacity="0.4">
<path d="M136.078 194.296C136.078 194.296 144.968 174.738 135.316 159.03H142.469V194.296H136.078Z" fill="#BCBEC0"/>
</g>
<g style="mix-blend-mode:multiply" opacity="0.4">
<path d="M246.786 153.592H245.521V150.766H246.35C246.537 150.045 246.883 149.589 246.883 149.589H228.087V150.766H230.444V153.592H228.087V156.884H251.414C248.808 155.849 247.447 154.683 246.786 153.592ZM233.274 153.592H231.389V150.766H233.274V153.592ZM236.098 153.592H234.213V150.766H236.098V153.592ZM238.923 153.592H237.038V150.766H238.923V153.592ZM241.747 153.592H239.862V150.766H241.747V153.592ZM244.577 153.592H242.692V150.766H244.577V153.592Z" fill="#BCBEC0"/>
</g>
<path d="M312.556 192.378C312.556 189.248 310.016 186.711 306.877 186.711C303.737 186.711 301.202 189.248 301.202 192.378V194.357L302.122 193.469H311.703L312.551 194.357V192.505C312.551 192.464 312.556 192.419 312.556 192.378Z" fill="#BD1D14"/>
<path d="M311.798 192.505C311.798 195.199 309.609 197.385 306.911 197.385C304.214 197.385 302.024 195.199 302.024 192.505C302.024 189.811 304.214 187.619 306.911 187.619C309.609 187.619 311.798 189.806 311.798 192.505Z" fill="#231F20"/>
<path d="M310.086 192.505C310.086 194.255 308.664 195.676 306.911 195.676C305.159 195.676 303.736 194.255 303.736 192.505C303.736 190.755 305.159 189.329 306.911 189.329C308.664 189.329 310.086 190.75 310.086 192.505Z" fill="#58595B"/>
<path d="M309.319 192.504C309.319 193.829 308.242 194.904 306.917 194.904C305.591 194.904 304.514 193.829 304.514 192.504C304.514 191.18 305.591 190.1 306.917 190.1C308.242 190.1 309.319 191.175 309.319 192.504Z" fill="#BBBDBF"/>
<path d="M308.791 192.504C308.791 193.539 307.948 194.376 306.917 194.376C305.885 194.376 305.037 193.539 305.037 192.504C305.037 191.469 305.875 190.627 306.917 190.627C307.958 190.627 308.791 191.469 308.791 192.504Z" fill="#241F20"/>
<path d="M308.039 193.509C308.187 193.509 308.319 193.545 308.446 193.606C308.669 193.291 308.806 192.916 308.806 192.505C308.806 192.444 308.791 192.383 308.786 192.317C308.324 192.251 307.968 191.855 307.968 191.379C307.968 191.242 307.999 191.115 308.05 190.998C307.735 190.755 307.338 190.607 306.912 190.607C306.851 190.607 306.795 190.618 306.739 190.623C306.714 191.125 306.297 191.521 305.789 191.521C305.631 191.521 305.489 191.48 305.357 191.414C305.144 191.724 305.012 192.094 305.012 192.5C305.012 192.561 305.027 192.622 305.032 192.682C305.535 192.708 305.936 193.119 305.936 193.631C305.936 193.783 305.896 193.925 305.835 194.052C306.139 194.265 306.51 194.387 306.912 194.387C306.973 194.387 307.034 194.377 307.095 194.372C307.14 193.885 307.542 193.504 308.039 193.504V193.509Z" fill="url(#paint0_linear_1_8136)"/>
<path d="M307.608 191.825C307.608 191.987 307.476 192.124 307.308 192.124C307.141 192.124 307.009 191.987 307.009 191.825C307.009 191.662 307.141 191.525 307.308 191.525C307.476 191.525 307.608 191.662 307.608 191.825Z" fill="#241F20"/>
<path d="M307.608 193.159C307.608 193.326 307.476 193.453 307.308 193.453C307.141 193.453 307.009 193.321 307.009 193.159C307.009 192.996 307.141 192.859 307.308 192.859C307.476 192.859 307.608 192.991 307.608 193.159Z" fill="#241F20"/>
<path d="M308.035 192.5C308.035 192.662 307.903 192.794 307.735 192.794C307.568 192.794 307.436 192.662 307.436 192.5C307.436 192.337 307.568 192.2 307.735 192.2C307.903 192.2 308.035 192.332 308.035 192.5Z" fill="#241F20"/>
<path d="M306.298 191.825C306.298 191.987 306.43 192.124 306.593 192.124C306.755 192.124 306.892 191.987 306.892 191.825C306.892 191.662 306.76 191.525 306.593 191.525C306.425 191.525 306.298 191.662 306.298 191.825Z" fill="#241F20"/>
<path d="M306.298 193.159C306.298 193.326 306.43 193.453 306.593 193.453C306.755 193.453 306.892 193.321 306.892 193.159C306.892 192.996 306.76 192.859 306.593 192.859C306.425 192.859 306.298 192.991 306.298 193.159Z" fill="#241F20"/>
<path d="M305.871 192.5C305.871 192.662 306.003 192.794 306.166 192.794C306.328 192.794 306.465 192.662 306.465 192.5C306.465 192.337 306.333 192.2 306.166 192.2C305.998 192.2 305.871 192.332 305.871 192.5Z" fill="#241F20"/>
<path d="M358.088 192.378C358.088 189.248 355.548 186.711 352.409 186.711C349.269 186.711 346.734 189.248 346.734 192.378V194.357L347.654 193.469H357.235L358.083 194.357V192.505C358.083 192.464 358.088 192.419 358.088 192.378Z" fill="#BD1D14"/>
<path d="M357.336 192.505C357.336 195.199 355.147 197.385 352.449 197.385C349.752 197.385 347.562 195.199 347.562 192.505C347.562 189.811 349.752 187.619 352.449 187.619C355.147 187.619 357.336 189.806 357.336 192.505Z" fill="#231F20"/>
<path d="M355.624 192.505C355.624 194.255 354.202 195.676 352.449 195.676C350.697 195.676 349.274 194.255 349.274 192.505C349.274 190.755 350.697 189.329 352.449 189.329C354.202 189.329 355.624 190.75 355.624 192.505Z" fill="#58595B"/>
<path d="M354.853 192.505C354.853 193.83 353.776 194.905 352.45 194.905C351.124 194.905 350.047 193.83 350.047 192.505C350.047 191.181 351.119 190.101 352.45 190.101C353.781 190.101 354.853 191.176 354.853 192.505Z" fill="#BBBDBF"/>
<path d="M354.324 192.505C354.324 193.54 353.486 194.377 352.45 194.377C351.413 194.377 350.575 193.54 350.575 192.505C350.575 191.47 351.413 190.628 352.45 190.628C353.486 190.628 354.324 191.47 354.324 192.505Z" fill="#241F20"/>
<path d="M353.577 193.509C353.725 193.509 353.862 193.545 353.984 193.606C354.207 193.291 354.345 192.916 354.345 192.505C354.345 192.444 354.334 192.383 354.324 192.317C353.862 192.251 353.506 191.855 353.506 191.379C353.506 191.242 353.532 191.115 353.588 190.998C353.273 190.755 352.876 190.607 352.45 190.607C352.389 190.607 352.333 190.618 352.277 190.623C352.252 191.125 351.835 191.521 351.327 191.521C351.17 191.521 351.027 191.48 350.895 191.414C350.677 191.724 350.55 192.094 350.55 192.5C350.55 192.561 350.565 192.622 350.57 192.682C351.073 192.708 351.474 193.119 351.474 193.631C351.474 193.783 351.434 193.925 351.368 194.052C351.672 194.265 352.043 194.387 352.445 194.387C352.506 194.387 352.567 194.377 352.628 194.372C352.673 193.885 353.075 193.504 353.572 193.504L353.577 193.509Z" fill="url(#paint1_linear_1_8136)"/>
<path d="M353.14 191.825C353.14 191.987 353.008 192.124 352.841 192.124C352.673 192.124 352.541 191.987 352.541 191.825C352.541 191.662 352.678 191.525 352.841 191.525C353.003 191.525 353.14 191.662 353.14 191.825Z" fill="#241F20"/>
<path d="M353.14 193.159C353.14 193.326 353.008 193.453 352.841 193.453C352.673 193.453 352.541 193.321 352.541 193.159C352.541 192.996 352.678 192.859 352.841 192.859C353.003 192.859 353.14 192.991 353.14 193.159Z" fill="#241F20"/>
<path d="M353.567 192.5C353.567 192.662 353.435 192.794 353.267 192.794C353.1 192.794 352.973 192.662 352.973 192.5C352.973 192.337 353.105 192.2 353.267 192.2C353.43 192.2 353.567 192.332 353.567 192.5Z" fill="#241F20"/>
<path d="M351.829 191.825C351.829 191.987 351.961 192.124 352.129 192.124C352.296 192.124 352.429 191.987 352.429 191.825C352.429 191.662 352.296 191.525 352.129 191.525C351.961 191.525 351.829 191.662 351.829 191.825Z" fill="#241F20"/>
<path d="M351.829 193.159C351.829 193.326 351.961 193.453 352.129 193.453C352.296 193.453 352.429 193.321 352.429 193.159C352.429 192.996 352.296 192.859 352.129 192.859C351.961 192.859 351.829 192.991 351.829 193.159Z" fill="#241F20"/>
<path d="M351.402 192.5C351.402 192.662 351.534 192.794 351.697 192.794C351.86 192.794 351.992 192.662 351.992 192.5C351.992 192.337 351.86 192.2 351.697 192.2C351.534 192.2 351.402 192.332 351.402 192.5Z" fill="#241F20"/>
<path d="M298.576 186.929H297.814V188.943H298.576V186.929Z" fill="#F7ECD7"/>
<path d="M299.882 179.497H299.648V177.346C299.648 176.919 300.014 176.787 300.212 176.777H301.208V177.011H300.217C300.187 177.011 299.887 177.041 299.887 177.34V179.492L299.882 179.497Z" fill="#0E0D12"/>
<path d="M299.877 177.549H299.339V179.771H299.877V177.549Z" fill="#0E0D12"/>
<path d="M370.377 166.199C370.377 163.642 368.284 161.552 365.724 161.552H305.434C302.874 161.552 300.776 163.642 300.776 166.199V184.58C300.776 184.697 300.786 184.808 300.796 184.925H300.776C298.343 184.925 298.576 187.061 298.576 187.061V194.356H301.203V192.378C301.203 189.248 303.743 186.711 306.877 186.711C310.011 186.711 312.557 189.248 312.557 192.378C312.557 192.418 312.551 192.464 312.551 192.505V194.356H346.735V192.378C346.735 189.248 349.28 186.711 352.409 186.711C355.538 186.711 358.089 189.248 358.089 192.378C358.089 192.418 358.083 192.464 358.083 192.505V194.356H370.377V184.925H370.362C370.372 184.813 370.377 184.697 370.377 184.58V166.199Z" fill="#FC1D14"/>
<path d="M298.948 191.581H301.32V194.356H298.257V192.154C298.257 192.154 298.287 191.586 298.943 191.586L298.948 191.581Z" fill="#BD1D14"/>
<g style="mix-blend-mode:multiply">
<path d="M345.855 190.014H313.825V190.836H345.855V190.014Z" fill="#BD1D14"/>
<path d="M345.855 187.386H313.825V188.208H345.855V187.386Z" fill="#BD1D14"/>
</g>
<g style="mix-blend-mode:multiply">
<path d="M367.302 171.323H303.787V172.145H367.302V171.323Z" fill="#BD1D14"/>
</g>
<path d="M370.375 174.448H300.774V175.712H370.375V174.448Z" fill="#FBF0B1"/>
<path d="M304.047 165.869V169.862H312.927V163.931H306.673C306.673 163.931 304.027 163.789 304.047 165.869Z" fill="#323232"/>
<path d="M312.927 168.178H304.047V169.862H312.927V168.178Z" fill="#231F20"/>
<path d="M323.463 163.926H314.583V169.857H323.463V163.926Z" fill="#323232"/>
<path d="M323.463 168.178H314.583V169.862H323.463V168.178Z" fill="#231F20"/>
<path d="M333.995 163.926H325.115V169.857H333.995V163.926Z" fill="#323232"/>
<path d="M333.995 168.178H325.115V169.862H333.995V168.178Z" fill="#231F20"/>
<path d="M344.53 163.926H335.65V169.857H344.53V163.926Z" fill="#323232"/>
<path d="M344.53 168.178H335.65V169.862H344.53V168.178Z" fill="#231F20"/>
<path d="M355.244 163.926H346.364V169.857H355.244V163.926Z" fill="#323232"/>
<path d="M355.244 168.178H346.364V169.862H355.244V168.178Z" fill="#231F20"/>
<path d="M365.978 165.869V169.862H357.098V163.931H363.351C363.351 163.931 365.993 163.789 365.978 165.869Z" fill="#323232"/>
<path d="M365.978 168.177H357.098V169.861H365.978V168.177Z" fill="#231F20"/>
<path d="M323.545 177.036H314.665V182.967H323.545V177.036Z" fill="#323232"/>
<path d="M323.545 181.288H314.665V182.972H323.545V181.288Z" fill="#231F20"/>
<path d="M334.076 177.036H325.196V182.967H334.076V177.036Z" fill="#323232"/>
<path d="M334.076 181.288H325.196V182.972H334.076V181.288Z" fill="#231F20"/>
<path d="M344.611 177.036H335.731V182.967H344.611V177.036Z" fill="#323232"/>
<path d="M344.611 181.288H335.731V182.972H344.611V181.288Z" fill="#231F20"/>
<path d="M355.325 177.036H346.445V182.967H355.325V177.036Z" fill="#323232"/>
<path d="M355.325 181.288H346.445V182.972H355.325V181.288Z" fill="#231F20"/>
<path d="M312.933 176.985H303.042V184.499H312.933V176.985Z" fill="#323232"/>
<path d="M312.933 182.819H303.042V184.504H312.933V182.819Z" fill="#231F20"/>
<path d="M367.299 176.985H359.166V191.368H367.299V176.985Z" fill="#323232"/>
<path d="M367.299 189.685H359.166V191.369H367.299V189.685Z" fill="#231F20"/>
<g style="mix-blend-mode:multiply">
<path d="M349.366 184.134C345.505 193.271 335.934 194.27 332.973 194.356H346.739V192.378C346.739 189.248 349.285 186.711 352.414 186.711C355.543 186.711 358.093 189.248 358.093 192.378C358.093 192.418 358.088 192.464 358.088 192.505V194.356H370.382V184.925H370.367C370.377 184.813 370.382 184.697 370.382 184.58V166.199C370.382 163.642 368.289 161.552 365.728 161.552H338.683C346.775 162.81 353.968 173.261 349.371 184.139L349.366 184.134Z" fill="#CE6414"/>
</g>
<path d="M92.3745 194.311H81.6252L81.5439 166.422L92.3745 166.392V194.311Z" fill="#FC1D14"/>
<path d="M92.7823 192.389L81.3066 192.423L81.3098 193.483L92.7855 193.449L92.7823 192.389Z" fill="#BD1D14"/>
<path d="M81.5439 167.27L92.3745 167.239V166.691L81.5439 166.722V167.27Z" fill="#BD1D14"/>
<path d="M92.3741 170.623H81.5537V171.171H92.3741V170.623Z" fill="#BD1D14"/>
<path d="M86.9489 163.505C82.2905 163.475 80.416 165.418 80.416 165.418V166.681H93.4919V165.382C93.4919 165.382 91.6022 163.449 86.9489 163.505Z" fill="#FC1D14"/>
<path d="M86.953 164.078C83.0109 164.063 81.4209 165.387 81.4209 165.387V166.194L86.9581 166.179L92.4902 166.163V165.357C92.4902 165.357 90.89 164.043 86.9479 164.083L86.953 164.078Z" fill="#BD1D14"/>
<path d="M93.2077 194.311H80.8684L80.8633 193.083L93.2077 193.048V194.311Z" fill="#0E0D12"/>
<path d="M90.887 168.18L83.0537 168.203L83.0583 169.735L90.8916 169.712L90.887 168.18Z" fill="#F3E7B4"/>
<path d="M84.1 168.757C84.1 168.757 84.0645 168.767 84.0391 168.767C84.0391 168.666 83.9934 168.61 83.8968 168.61H83.8308V169.249C83.8308 169.33 83.8511 169.356 83.9324 169.356C83.9324 169.371 83.9375 169.386 83.9375 169.411C83.8816 169.411 83.8257 169.411 83.7749 169.411C83.7241 169.411 83.6581 169.411 83.6124 169.411C83.6124 169.391 83.6124 169.371 83.6175 169.356C83.6987 169.356 83.719 169.33 83.719 169.244V168.605H83.653C83.5311 168.605 83.5158 168.671 83.4955 168.762C83.4752 168.762 83.4498 168.762 83.4346 168.752C83.4498 168.681 83.4549 168.61 83.4549 168.549C83.526 168.549 83.6479 168.549 83.7749 168.549C83.9019 168.549 84.0289 168.549 84.1 168.549C84.1 168.61 84.1001 168.671 84.1102 168.752L84.1 168.757Z" fill="#231F20"/>
<path d="M84.801 169.224C84.7807 169.279 84.7705 169.356 84.7655 169.411C84.7147 169.411 84.6131 169.411 84.4962 169.411C84.4048 169.411 84.2321 169.411 84.1711 169.411C84.1711 169.391 84.1711 169.371 84.1762 169.356C84.2422 169.356 84.2625 169.33 84.2625 169.234V168.716C84.2625 168.635 84.2422 168.61 84.1711 168.605C84.1711 168.589 84.166 168.569 84.166 168.549C84.2168 168.549 84.3337 168.549 84.3794 168.549C84.5775 168.549 84.6943 168.549 84.735 168.549C84.735 168.605 84.7502 168.691 84.7604 168.747C84.7451 168.757 84.7248 168.762 84.7045 168.762C84.6943 168.686 84.6588 168.605 84.4962 168.605H84.3794V168.95H84.4606C84.5622 168.95 84.5978 168.929 84.5978 168.848C84.6181 168.843 84.6334 168.838 84.6588 168.838C84.6588 168.879 84.6588 168.929 84.6588 168.975C84.6588 169.021 84.6588 169.076 84.6588 169.122C84.6384 169.122 84.6181 169.122 84.5978 169.117C84.5927 169.031 84.5572 169.005 84.4556 169.005H84.3743V169.234C84.3743 169.325 84.3946 169.35 84.4911 169.35H84.5013C84.6791 169.35 84.7096 169.295 84.7451 169.193C84.7705 169.203 84.7858 169.208 84.801 169.224Z" fill="#231F20"/>
<path d="M85.2583 169.35C85.4006 169.35 85.4361 169.31 85.4768 169.193C85.5022 169.203 85.5174 169.208 85.5326 169.223C85.5123 169.284 85.5022 169.355 85.492 169.411C85.4412 169.411 85.3396 169.411 85.2482 169.411C85.1567 169.411 84.984 169.411 84.923 169.411C84.923 169.391 84.9231 169.371 84.9281 169.355C84.9942 169.355 85.0145 169.33 85.0145 169.234V168.716C85.0145 168.635 84.9942 168.61 84.923 168.61C84.923 168.594 84.918 168.574 84.918 168.554C84.9688 168.554 85.0348 168.554 85.0704 168.554C85.1263 168.554 85.172 168.554 85.2228 168.554C85.2228 168.574 85.2228 168.594 85.2177 168.61C85.1516 168.61 85.1313 168.635 85.1313 168.721V169.234C85.1313 169.325 85.1516 169.35 85.2482 169.35H85.2583Z" fill="#231F20"/>
<path d="M86.2641 169.219C86.2438 169.274 86.2336 169.35 86.2235 169.406C86.1727 169.406 86.0711 169.406 85.9542 169.406C85.8628 169.406 85.6901 169.406 85.6291 169.406C85.6291 169.386 85.6291 169.366 85.6342 169.35C85.7002 169.35 85.7205 169.325 85.7205 169.229V168.711C85.7205 168.63 85.7002 168.605 85.6291 168.605C85.6291 168.589 85.624 168.569 85.624 168.549C85.6748 168.549 85.7917 168.549 85.8374 168.549C86.0355 168.549 86.1473 168.549 86.193 168.549C86.193 168.605 86.2082 168.691 86.2184 168.747C86.2031 168.757 86.1828 168.762 86.1625 168.762C86.1574 168.686 86.1168 168.605 85.9542 168.605H85.8374V168.95H85.9136C86.0152 168.95 86.0507 168.929 86.0507 168.843C86.0711 168.838 86.0914 168.833 86.1117 168.833C86.1117 168.874 86.1117 168.924 86.1117 168.97C86.1117 169.016 86.1117 169.071 86.1117 169.117C86.0914 169.117 86.0761 169.117 86.0558 169.112C86.0507 169.026 86.0152 169 85.9136 169H85.8374V169.229C85.8374 169.32 85.8577 169.345 85.9491 169.345H85.9593C86.1371 169.345 86.1676 169.29 86.2031 169.188C86.2285 169.193 86.2438 169.203 86.259 169.219H86.2641Z" fill="#231F20"/>
<path d="M87.0008 168.792C87.0008 168.934 86.9043 169.081 86.7163 169.081C86.6808 169.081 86.6503 169.076 86.6249 169.066C86.6249 169.045 86.6249 169.03 86.6249 169.015C86.6452 169.02 86.6706 169.025 86.6909 169.025C86.7824 169.025 86.8687 168.984 86.8687 168.827C86.8687 168.69 86.8078 168.604 86.6554 168.604C86.6401 168.604 86.6198 168.604 86.5893 168.609V169.213C86.5893 169.324 86.6249 169.345 86.7011 169.35C86.7011 169.365 86.7062 169.38 86.7062 169.405C86.6655 169.405 86.6046 169.405 86.5487 169.405C86.4877 169.405 86.4115 169.405 86.376 169.405C86.376 169.385 86.376 169.365 86.3811 169.35C86.4471 169.35 86.4674 169.324 86.4674 169.243V168.71C86.4674 168.629 86.4471 168.604 86.3811 168.599C86.3811 168.584 86.376 168.568 86.376 168.543C86.442 168.543 86.5081 168.543 86.5487 168.543C86.5843 168.543 86.6757 168.543 86.7062 168.543C86.9145 168.543 86.9907 168.655 86.9907 168.786L87.0008 168.792Z" fill="#231F20"/>
<path d="M87.8296 169.238C87.8296 169.319 87.8499 169.345 87.9159 169.345C87.9159 169.36 87.921 169.375 87.921 169.401C87.8702 169.401 87.8143 169.401 87.7686 169.401C87.7178 169.401 87.6619 169.401 87.6162 169.401C87.6162 169.38 87.6162 169.36 87.6213 169.345C87.6873 169.345 87.7076 169.319 87.7076 169.238V168.99C87.606 168.99 87.4232 168.99 87.3216 168.995V169.238C87.3216 169.324 87.3419 169.345 87.4079 169.345C87.413 169.36 87.4181 169.375 87.4181 169.401C87.3673 169.401 87.3114 169.401 87.2657 169.401C87.2149 169.401 87.1539 169.401 87.1133 169.401C87.1133 169.38 87.1133 169.36 87.1184 169.345C87.1844 169.345 87.2047 169.319 87.2047 169.238V168.706C87.2047 168.624 87.1844 168.599 87.1184 168.594C87.1133 168.579 87.1133 168.563 87.1133 168.538C87.159 168.538 87.2098 168.538 87.2657 168.538C87.3216 168.538 87.3673 168.538 87.4181 168.538C87.4181 168.558 87.4181 168.579 87.4079 168.594C87.3419 168.594 87.3216 168.619 87.3216 168.706V168.934H87.7076V168.706C87.7076 168.619 87.6873 168.599 87.6213 168.594C87.6162 168.579 87.6162 168.563 87.6162 168.538C87.6619 168.538 87.7127 168.538 87.7686 168.538C87.8245 168.538 87.8702 168.538 87.921 168.538C87.921 168.558 87.921 168.579 87.9159 168.594C87.8499 168.594 87.8296 168.619 87.8296 168.706V169.238Z" fill="#231F20"/>
<path d="M88.8702 168.964C88.8702 169.213 88.6975 169.406 88.4537 169.406C88.2047 169.406 88.0371 169.218 88.0371 168.97C88.0371 168.716 88.22 168.538 88.4486 168.533C88.6873 168.533 88.8652 168.706 88.8652 168.964H88.8702ZM88.7382 169C88.7382 168.772 88.601 168.594 88.4232 168.594C88.2759 168.594 88.1641 168.731 88.1641 168.934C88.1641 169.147 88.2759 169.345 88.4791 169.345C88.6416 169.345 88.7382 169.193 88.7382 169Z" fill="#231F20"/>
<path d="M89.7952 168.538C89.7952 168.538 89.7952 168.574 89.7901 168.594C89.7343 168.594 89.7139 168.634 89.7139 168.771V169.395C89.7139 169.395 89.6835 169.401 89.6631 169.401L89.1399 168.721V169.157C89.1399 169.299 89.1602 169.34 89.2263 169.34C89.2263 169.355 89.2313 169.37 89.2313 169.395C89.1958 169.395 89.145 169.395 89.1094 169.395C89.0739 169.395 89.0129 169.395 88.9824 169.395C88.9824 169.375 88.9824 169.355 88.9875 169.34C89.0535 169.34 89.0739 169.299 89.0739 169.157V168.64V168.634C89.0485 168.604 89.0332 168.599 88.9926 168.594C88.9875 168.574 88.9875 168.553 88.9875 168.538C89.0129 168.538 89.0485 168.538 89.0789 168.538C89.1094 168.538 89.1399 168.538 89.1653 168.538L89.6581 169.187V168.771C89.6581 168.634 89.6377 168.594 89.5666 168.594C89.5666 168.563 89.5615 168.553 89.5615 168.538C89.5971 168.538 89.6479 168.538 89.6784 168.538C89.7089 168.538 89.7647 168.538 89.8003 168.538H89.7952Z" fill="#231F20"/>
<path d="M90.5518 169.208C90.5315 169.264 90.5213 169.335 90.5162 169.395C90.4705 169.395 90.3638 169.395 90.247 169.395C90.1556 169.395 89.9828 169.395 89.9219 169.395C89.9219 169.375 89.9219 169.355 89.927 169.34C89.993 169.34 90.0133 169.314 90.0133 169.218V168.7C90.0133 168.619 89.993 168.594 89.927 168.594C89.927 168.579 89.9219 168.558 89.9219 168.538C89.9727 168.538 90.0895 168.538 90.1352 168.538C90.3334 168.538 90.4502 168.538 90.4908 168.538C90.4908 168.594 90.5061 168.685 90.5162 168.736C90.501 168.746 90.4807 168.751 90.4604 168.751C90.4553 168.675 90.4146 168.594 90.2521 168.594H90.1352V168.939H90.2165C90.3181 168.939 90.3537 168.919 90.3588 168.832C90.3791 168.827 90.3943 168.822 90.4197 168.822C90.4197 168.863 90.4197 168.914 90.4197 168.959C90.4197 169.005 90.4197 169.061 90.4197 169.106C90.3994 169.106 90.3791 169.106 90.3638 169.101C90.3588 169.015 90.3232 168.99 90.2216 168.99H90.1403V169.218C90.1403 169.309 90.1606 169.335 90.2572 169.335H90.2622C90.4451 169.335 90.4705 169.279 90.5061 169.177C90.5315 169.187 90.5467 169.193 90.562 169.208H90.5518Z" fill="#231F20"/>
<path d="M87.3764 181.348C87.3764 181.541 87.2088 181.698 87.0056 181.698C86.8024 181.698 86.6348 181.546 86.6348 181.353C86.6348 181.16 86.8024 181.003 87.0056 181.003C87.2088 181.003 87.3764 181.16 87.3764 181.353V181.348Z" fill="#0E0D12"/>
<path d="M91.0018 172.521L82.9805 172.545L83.0326 190.155L91.0539 190.131L91.0018 172.521Z" fill="#BD1D14"/>
<path d="M85.6275 173.105L83.5244 173.111L83.5316 175.684L85.6347 175.678L85.6275 173.105Z" fill="#0E0D12"/>
<path d="M88.0201 173.094L85.917 173.1L85.9242 175.672L88.0273 175.666L88.0201 173.094Z" fill="#0E0D12"/>
<path d="M90.4185 173.087L88.3154 173.093L88.3226 175.665L90.4257 175.659L90.4185 173.087Z" fill="#0E0D12"/>
<path d="M85.6402 175.891L83.5371 175.896L83.5443 178.469L85.6474 178.463L85.6402 175.891Z" fill="#0E0D12"/>
<path d="M88.0328 175.879L85.9297 175.885L85.9369 178.457L88.04 178.451L88.0328 175.879Z" fill="#0E0D12"/>
<path d="M90.4254 175.877L88.3223 175.883L88.3295 178.455L90.4326 178.449L90.4254 175.877Z" fill="#0E0D12"/>
<path d="M85.6432 178.676L83.54 178.682L83.5472 181.254L85.6503 181.248L85.6432 178.676Z" fill="#0E0D12"/>
<path d="M88.0357 178.669L85.9326 178.675L85.9398 181.247L88.0429 181.241L88.0357 178.669Z" fill="#0E0D12"/>
<path d="M90.4332 178.657L88.3301 178.663L88.3373 181.235L90.4404 181.229L90.4332 178.657Z" fill="#0E0D12"/>
<path d="M85.6558 181.462L83.5527 181.468L83.5599 184.04L85.663 184.034L85.6558 181.462Z" fill="#0E0D12"/>
<path d="M88.0484 181.455L85.9453 181.461L85.9525 184.033L88.0556 184.027L88.0484 181.455Z" fill="#0E0D12"/>
<path d="M90.4469 181.443L88.3438 181.449L88.3509 184.021L90.4541 184.016L90.4469 181.443Z" fill="#0E0D12"/>
<path d="M85.6529 184.247L83.5498 184.253L83.557 186.825L85.6601 186.819L85.6529 184.247Z" fill="#0E0D12"/>
<path d="M88.0562 184.24L85.9531 184.246L85.9603 186.818L88.0634 186.812L88.0562 184.24Z" fill="#0E0D12"/>
<path d="M90.4488 184.229L88.3457 184.234L88.3529 186.807L90.456 186.801L90.4488 184.229Z" fill="#0E0D12"/>
<path d="M85.6656 187.032L83.5625 187.038L83.5697 189.61L85.6728 189.604L85.6656 187.032Z" fill="#0E0D12"/>
<path d="M88.064 187.025L85.9609 187.031L85.9681 189.603L88.0712 189.598L88.064 187.025Z" fill="#0E0D12"/>
<path d="M90.4615 187.019L88.3584 187.024L88.3656 189.597L90.4687 189.591L90.4615 187.019Z" fill="#0E0D12"/>
<g style="mix-blend-mode:multiply">
<path d="M88.2232 192.408C88.2232 192.408 90.5194 191.921 90.4381 179.045C90.3619 166.59 87.6797 166.706 87.6797 166.706L92.3685 166.696V192.398L88.2182 192.408H88.2232Z" fill="#BCBEC0"/>
</g>
</g>
<defs>
<linearGradient id="paint0_linear_1_8136" x1="305.022" y1="192.5" x2="308.806" y2="192.5" gradientUnits="userSpaceOnUse">
<stop stop-color="#D4D4D6"/>
<stop offset="1" stop-color="#E5E5E6"/>
</linearGradient>
<linearGradient id="paint1_linear_1_8136" x1="350.555" y1="-11.6693" x2="354.345" y2="-11.6693" gradientUnits="userSpaceOnUse">
<stop stop-color="#D4D4D6"/>
<stop offset="1" stop-color="#E5E5E6"/>
</linearGradient>
</defs>
</svg>
